<svg width="331" height="335" viewBox="0 0 331 335" fill="none" xmlns="http://www.w3.org/2000/svg">
<path d="M168.899 59.4796V64.2747" stroke="#263238" stroke-width="1.45313" stroke-linecap="round" stroke-linejoin="round"/>
<path d="M168.899 69.4526V77.2159" stroke="#263238" stroke-width="1.45313" stroke-linecap="round" stroke-linejoin="round" stroke-dasharray="9.4 9.4"/>
<path d="M168.899 79.8013V84.5965" stroke="#263238" stroke-width="1.45313" stroke-linecap="round" stroke-linejoin="round"/>
<path d="M245.426 140.658H240.631" stroke="#263238" stroke-width="1.45313" stroke-linecap="round" stroke-linejoin="round"/>
<path d="M235.453 140.658H227.69" stroke="#263238" stroke-width="1.45313" stroke-linecap="round" stroke-linejoin="round" stroke-dasharray="9.4 9.4"/>
<path d="M225.105 140.658H220.309" stroke="#263238" stroke-width="1.45313" stroke-linecap="round" stroke-linejoin="round"/>
<path d="M117.495 140.658H112.692" stroke="#263238" stroke-width="1.45313" stroke-linecap="round" stroke-linejoin="round"/>
<path d="M107.522 140.658H99.7582" stroke="#263238" stroke-width="1.45313" stroke-linecap="round" stroke-linejoin="round" stroke-dasharray="9.4 9.4"/>
<path d="M97.1731 140.658H92.3707" stroke="#263238" stroke-width="1.45313" stroke-linecap="round" stroke-linejoin="round"/>
<path d="M301.098 156.921C301.098 156.586 301.231 156.265 301.468 156.028C301.705 155.791 302.027 155.658 302.362 155.658C302.697 155.658 303.018 155.791 303.255 156.028C303.492 156.265 303.626 156.586 303.626 156.921V159.68C303.626 160.015 303.492 160.337 303.255 160.574C303.018 160.811 302.697 160.944 302.362 160.944C302.027 160.944 301.705 160.811 301.468 160.574C301.231 160.337 301.098 160.015 301.098 159.68V156.921ZM301.928 159.731C301.928 160.106 302.095 160.251 302.362 160.251C302.629 160.251 302.788 160.106 302.788 159.731V156.842C302.788 156.466 302.622 156.322 302.362 156.322C302.102 156.322 301.928 156.466 301.928 156.842V159.731Z" fill="#263238"/>
<path d="M301.69 163.883C301.898 163.909 302.107 163.854 302.276 163.731C302.445 163.607 302.561 163.424 302.6 163.219H303.163V168.548H302.333V164.511H301.69V163.883Z" fill="#263238"/>
<path d="M301.098 172.051C301.098 171.716 301.231 171.394 301.468 171.157C301.705 170.92 302.027 170.787 302.362 170.787C302.697 170.787 303.018 170.92 303.255 171.157C303.492 171.394 303.626 171.716 303.626 172.051V174.802C303.626 175.137 303.492 175.459 303.255 175.696C303.018 175.933 302.697 176.066 302.362 176.066C302.027 176.066 301.705 175.933 301.468 175.696C301.231 175.459 301.098 175.137 301.098 174.802V172.051ZM301.928 174.86C301.928 175.235 302.095 175.38 302.362 175.38C302.629 175.38 302.788 175.235 302.788 174.86V171.971C302.788 171.589 302.622 171.451 302.362 171.451C302.102 171.451 301.928 171.589 301.928 171.971V174.86Z" fill="#263238"/>
<path d="M301.69 179.012C301.898 179.038 302.107 178.984 302.276 178.86C302.445 178.737 302.561 178.554 302.6 178.348H303.163V183.634H302.333V179.597H301.69V179.012Z" fill="#263238"/>
<path d="M301.098 187.18C301.098 186.845 301.231 186.523 301.468 186.286C301.705 186.049 302.027 185.916 302.362 185.916C302.697 185.916 303.018 186.049 303.255 186.286C303.492 186.523 303.626 186.845 303.626 187.18V189.931C303.626 190.267 303.492 190.588 303.255 190.825C303.018 191.062 302.697 191.195 302.362 191.195C302.027 191.195 301.705 191.062 301.468 190.825C301.231 190.588 301.098 190.267 301.098 189.931V187.18ZM301.928 189.982C301.928 190.365 302.095 190.502 302.362 190.502C302.629 190.502 302.788 190.365 302.788 189.982V187.093C302.788 186.718 302.622 186.573 302.362 186.573C302.102 186.573 301.928 186.718 301.928 187.093V189.982Z" fill="#263238"/>
<path d="M301.69 194.135C301.898 194.16 302.107 194.106 302.276 193.982C302.445 193.859 302.561 193.676 302.6 193.47H303.163V198.764H302.333V194.727H301.69V194.135Z" fill="#263238"/>
<path d="M301.098 202.302C301.098 201.967 301.231 201.646 301.468 201.409C301.705 201.172 302.027 201.039 302.362 201.039C302.697 201.039 303.018 201.172 303.255 201.409C303.492 201.646 303.626 201.967 303.626 202.302V205.061C303.626 205.396 303.492 205.718 303.255 205.955C303.018 206.192 302.697 206.325 302.362 206.325C302.027 206.325 301.705 206.192 301.468 205.955C301.231 205.718 301.098 205.396 301.098 205.061V202.302ZM301.928 205.112C301.928 205.487 302.095 205.632 302.362 205.632C302.629 205.632 302.788 205.487 302.788 205.112V202.223C302.788 201.847 302.622 201.703 302.362 201.703C302.102 201.703 301.928 201.847 301.928 202.223V205.112Z" fill="#263238"/>
<path d="M301.098 209.87C301.098 209.535 301.231 209.214 301.468 208.977C301.705 208.74 302.027 208.607 302.362 208.607C302.697 208.607 303.018 208.74 303.255 208.977C303.492 209.214 303.626 209.535 303.626 209.87V212.6C303.626 212.935 303.492 213.257 303.255 213.494C303.018 213.731 302.697 213.864 302.362 213.864C302.027 213.864 301.705 213.731 301.468 213.494C301.231 213.257 301.098 212.935 301.098 212.6V209.87ZM301.928 212.672C301.928 213.055 302.095 213.192 302.362 213.192C302.629 213.192 302.788 213.055 302.788 212.672V209.784C302.788 209.401 302.622 209.257 302.362 209.257C302.102 209.257 301.928 209.401 301.928 209.784V212.672Z" fill="#263238"/>
<path d="M301.098 217.432C301.098 217.096 301.231 216.775 301.468 216.538C301.705 216.301 302.027 216.168 302.362 216.168C302.697 216.168 303.018 216.301 303.255 216.538C303.492 216.775 303.626 217.096 303.626 217.432V220.183C303.626 220.518 303.492 220.84 303.255 221.077C303.018 221.314 302.697 221.447 302.362 221.447C302.027 221.447 301.705 221.314 301.468 221.077C301.231 220.84 301.098 220.518 301.098 220.183V217.432ZM301.928 220.241C301.928 220.616 302.095 220.761 302.362 220.761C302.629 220.761 302.788 220.616 302.788 220.241V217.352C302.788 216.977 302.622 216.832 302.362 216.832C302.102 216.832 301.928 216.977 301.928 217.352V220.241Z" fill="#263238"/>
<path d="M301.69 231.954C301.898 231.98 302.107 231.926 302.276 231.802C302.445 231.679 302.561 231.496 302.6 231.29H303.163V236.583H302.333V232.546H301.69V231.954Z" fill="#263238"/>
<path d="M301.69 239.523C301.899 239.55 302.11 239.495 302.28 239.37C302.45 239.245 302.564 239.059 302.6 238.851H303.163V244.144H302.333V240.108H301.69V239.523Z" fill="#263238"/>
<path d="M301.69 247.084C301.898 247.109 302.107 247.055 302.276 246.931C302.445 246.808 302.561 246.625 302.6 246.419H303.163V251.705H302.333V247.676H301.69V247.084Z" fill="#263238"/>
<path d="M301.098 255.251C301.098 254.916 301.231 254.595 301.468 254.358C301.705 254.121 302.027 253.987 302.362 253.987C302.697 253.987 303.018 254.121 303.255 254.358C303.492 254.595 303.626 254.916 303.626 255.251V258.003C303.626 258.338 303.492 258.659 303.255 258.896C303.018 259.133 302.697 259.266 302.362 259.266C302.027 259.266 301.705 259.133 301.468 258.896C301.231 258.659 301.098 258.338 301.098 258.003V255.251ZM301.928 258.053C301.928 258.436 302.095 258.573 302.362 258.573C302.629 258.573 302.788 258.436 302.788 258.053V255.208C302.788 254.825 302.622 254.681 302.362 254.681C302.102 254.681 301.928 254.825 301.928 255.208V258.053Z" fill="#263238"/>
<path d="M301.098 262.812C301.098 262.477 301.231 262.156 301.468 261.919C301.705 261.682 302.027 261.549 302.362 261.549C302.697 261.549 303.018 261.682 303.255 261.919C303.492 262.156 303.626 262.477 303.626 262.812V265.564C303.626 265.899 303.492 266.22 303.255 266.457C303.018 266.694 302.697 266.828 302.362 266.828C302.027 266.828 301.705 266.694 301.468 266.457C301.231 266.22 301.098 265.899 301.098 265.564V262.812ZM301.928 265.622C301.928 265.997 302.095 266.142 302.362 266.142C302.629 266.142 302.788 265.997 302.788 265.622V262.733C302.788 262.357 302.622 262.213 302.362 262.213C302.102 262.213 301.928 262.357 301.928 262.733V265.622Z" fill="#263238"/>
<path d="M301.69 269.774C301.898 269.8 302.107 269.745 302.276 269.622C302.445 269.498 302.561 269.315 302.6 269.11H303.163V274.396H302.333V270.373H301.69V269.774Z" fill="#263238"/>
<path d="M306.153 148.754C306.361 148.779 306.572 148.725 306.742 148.602C306.912 148.479 307.03 148.295 307.07 148.089H307.626V153.383H306.796V149.346H306.153V148.754Z" fill="#263238"/>
<path d="M306.153 156.322C306.361 156.348 306.572 156.294 306.742 156.17C306.912 156.047 307.03 155.864 307.07 155.658H307.626V160.944H306.796V156.907H306.153V156.322Z" fill="#263238"/>
<path d="M305.604 172.051C305.591 171.877 305.614 171.703 305.671 171.539C305.729 171.374 305.819 171.224 305.937 171.096C306.056 170.968 306.199 170.867 306.359 170.797C306.518 170.727 306.69 170.691 306.864 170.691C307.038 170.691 307.21 170.727 307.37 170.797C307.529 170.867 307.673 170.968 307.791 171.096C307.909 171.224 308 171.374 308.057 171.539C308.115 171.703 308.138 171.877 308.124 172.051V174.802C308.138 174.976 308.115 175.15 308.057 175.314C308 175.479 307.909 175.629 307.791 175.757C307.673 175.884 307.529 175.986 307.37 176.056C307.21 176.125 307.038 176.161 306.864 176.161C306.69 176.161 306.518 176.125 306.359 176.056C306.199 175.986 306.056 175.884 305.937 175.757C305.819 175.629 305.729 175.479 305.671 175.314C305.614 175.15 305.591 174.976 305.604 174.802V172.051ZM306.435 174.86C306.435 175.235 306.601 175.38 306.861 175.38C307.121 175.38 307.294 175.235 307.294 174.86V171.971C307.294 171.588 307.128 171.451 306.861 171.451C306.593 171.451 306.435 171.588 306.435 171.971V174.86Z" fill="#263238"/>
<path d="M306.153 194.135C306.361 194.16 306.572 194.106 306.742 193.983C306.912 193.86 307.03 193.676 307.07 193.47H307.626V198.764H306.796V194.727H306.153V194.135Z" fill="#263238"/>
<path d="M305.604 202.302C305.591 202.129 305.614 201.954 305.671 201.79C305.729 201.626 305.819 201.475 305.937 201.347C306.056 201.22 306.199 201.118 306.359 201.048C306.518 200.979 306.69 200.943 306.864 200.943C307.038 200.943 307.21 200.979 307.37 201.048C307.529 201.118 307.673 201.22 307.791 201.347C307.909 201.475 308 201.626 308.057 201.79C308.115 201.954 308.138 202.129 308.124 202.302V205.061C308.138 205.234 308.115 205.409 308.057 205.573C308 205.737 307.909 205.888 307.791 206.016C307.673 206.143 307.529 206.245 307.37 206.315C307.21 206.384 307.038 206.42 306.864 206.42C306.69 206.42 306.518 206.384 306.359 206.315C306.199 206.245 306.056 206.143 305.937 206.016C305.819 205.888 305.729 205.737 305.671 205.573C305.614 205.409 305.591 205.234 305.604 205.061V202.302ZM306.435 205.111C306.435 205.487 306.601 205.631 306.861 205.631C307.121 205.631 307.294 205.487 307.294 205.111V202.223C307.294 201.847 307.128 201.703 306.861 201.703C306.593 201.703 306.435 201.847 306.435 202.223V205.111Z" fill="#263238"/>
<path d="M306.153 209.264C306.361 209.29 306.572 209.235 306.742 209.112C306.912 208.989 307.03 208.806 307.07 208.599H307.626V213.893H306.796V209.856H306.153V209.264Z" fill="#263238"/>
<path d="M306.153 216.825C306.362 216.852 306.573 216.799 306.744 216.675C306.914 216.552 307.031 216.367 307.07 216.16H307.626V221.454H306.796V217.417H306.153V216.825Z" fill="#263238"/>
<path d="M306.153 224.393C306.361 224.419 306.572 224.365 306.742 224.242C306.912 224.118 307.03 223.935 307.07 223.729H307.626V229.015H306.796V224.978H306.153V224.393Z" fill="#263238"/>
<path d="M305.604 232.561C305.591 232.387 305.614 232.213 305.671 232.049C305.729 231.884 305.819 231.734 305.937 231.606C306.056 231.479 306.199 231.377 306.359 231.307C306.518 231.238 306.69 231.202 306.864 231.202C307.038 231.202 307.21 231.238 307.37 231.307C307.529 231.377 307.673 231.479 307.791 231.606C307.909 231.734 308 231.884 308.057 232.049C308.115 232.213 308.138 232.387 308.124 232.561V235.312C308.138 235.486 308.115 235.66 308.057 235.825C308 235.989 307.909 236.139 307.791 236.267C307.673 236.395 307.529 236.496 307.37 236.566C307.21 236.636 307.038 236.672 306.864 236.672C306.69 236.672 306.518 236.636 306.359 236.566C306.199 236.496 306.056 236.395 305.937 236.267C305.819 236.139 305.729 235.989 305.671 235.825C305.614 235.66 305.591 235.486 305.604 235.312V232.561ZM306.435 235.363C306.435 235.746 306.601 235.883 306.861 235.883C307.121 235.883 307.294 235.746 307.294 235.363V232.51C307.294 232.128 307.128 231.983 306.861 231.983C306.593 231.983 306.435 232.128 306.435 232.51V235.363Z" fill="#263238"/>
<path d="M305.604 240.122C305.591 239.948 305.614 239.774 305.671 239.61C305.729 239.446 305.819 239.295 305.937 239.167C306.056 239.04 306.199 238.938 306.359 238.868C306.518 238.799 306.69 238.763 306.864 238.763C307.038 238.763 307.21 238.799 307.37 238.868C307.529 238.938 307.673 239.04 307.791 239.167C307.909 239.295 308 239.446 308.057 239.61C308.115 239.774 308.138 239.948 308.124 240.122V242.873C308.138 243.047 308.115 243.221 308.057 243.386C308 243.55 307.909 243.7 307.791 243.828C307.673 243.956 307.529 244.057 307.37 244.127C307.21 244.197 307.038 244.233 306.864 244.233C306.69 244.233 306.518 244.197 306.359 244.127C306.199 244.057 306.056 243.956 305.937 243.828C305.819 243.7 305.729 243.55 305.671 243.386C305.614 243.221 305.591 243.047 305.604 242.873V240.122ZM306.435 242.931C306.435 243.307 306.601 243.451 306.861 243.451C307.121 243.451 307.294 243.307 307.294 242.931V240.043C307.294 239.667 307.128 239.523 306.861 239.523C306.593 239.523 306.435 239.667 306.435 240.043V242.931Z" fill="#263238"/>
<path d="M297.191 194.135C297.399 194.16 297.61 194.106 297.78 193.983C297.951 193.86 298.068 193.676 298.108 193.47H298.664V198.764H297.834V194.727H297.191V194.135Z" fill="#263238"/>
<path d="M296.606 202.302C296.606 201.967 296.739 201.646 296.976 201.409C297.213 201.172 297.535 201.039 297.87 201.039C298.205 201.039 298.526 201.172 298.763 201.409C299 201.646 299.134 201.967 299.134 202.302V205.061C299.134 205.396 299 205.718 298.763 205.955C298.526 206.192 298.205 206.325 297.87 206.325C297.535 206.325 297.213 206.192 296.976 205.955C296.739 205.718 296.606 205.396 296.606 205.061V202.302ZM297.436 205.112C297.436 205.487 297.603 205.632 297.87 205.632C298.137 205.632 298.303 205.487 298.303 205.112V202.223C298.303 201.847 298.137 201.703 297.87 201.703C297.603 201.703 297.436 201.847 297.436 202.223V205.112Z" fill="#263238"/>
<path d="M296.606 209.87C296.606 209.535 296.739 209.214 296.976 208.977C297.213 208.74 297.535 208.607 297.87 208.607C298.205 208.607 298.526 208.74 298.763 208.977C299 209.214 299.134 209.535 299.134 209.87V212.6C299.134 212.935 299 213.257 298.763 213.494C298.526 213.731 298.205 213.864 297.87 213.864C297.535 213.864 297.213 213.731 296.976 213.494C296.739 213.257 296.606 212.935 296.606 212.6V209.87ZM297.436 212.672C297.436 213.055 297.603 213.192 297.87 213.192C298.137 213.192 298.303 213.055 298.303 212.672V209.784C298.303 209.401 298.137 209.257 297.87 209.257C297.603 209.257 297.436 209.401 297.436 209.784V212.672Z" fill="#263238"/>
<path d="M297.191 216.825C297.4 216.852 297.611 216.799 297.782 216.675C297.952 216.552 298.069 216.367 298.108 216.16H298.664V221.454H297.834V217.417H297.191V216.825Z" fill="#263238"/>
<path d="M297.191 231.954C297.399 231.98 297.61 231.926 297.78 231.803C297.951 231.679 298.068 231.496 298.108 231.29H298.664V236.583H297.834V232.546H297.191V231.954Z" fill="#263238"/>
<path d="M297.191 239.523C297.401 239.548 297.612 239.493 297.782 239.368C297.953 239.244 298.069 239.059 298.108 238.851H298.664V244.144H297.834V240.108H297.191V239.523Z" fill="#263238"/>
<path d="M297.191 247.084C297.399 247.109 297.61 247.055 297.78 246.932C297.951 246.809 298.068 246.625 298.108 246.419H298.664V251.705H297.834V247.676H297.191V247.084Z" fill="#263238"/>
<path d="M292.114 172.051C292.101 171.877 292.124 171.703 292.181 171.539C292.238 171.374 292.329 171.224 292.447 171.096C292.566 170.968 292.709 170.867 292.868 170.797C293.028 170.727 293.2 170.691 293.374 170.691C293.548 170.691 293.72 170.727 293.88 170.797C294.039 170.867 294.183 170.968 294.301 171.096C294.419 171.224 294.51 171.374 294.567 171.539C294.625 171.703 294.647 171.877 294.634 172.051V174.802C294.647 174.976 294.625 175.15 294.567 175.314C294.51 175.479 294.419 175.629 294.301 175.757C294.183 175.884 294.039 175.986 293.88 176.056C293.72 176.125 293.548 176.161 293.374 176.161C293.2 176.161 293.028 176.125 292.868 176.056C292.709 175.986 292.566 175.884 292.447 175.757C292.329 175.629 292.238 175.479 292.181 175.314C292.124 175.15 292.101 174.976 292.114 174.802V172.051ZM292.944 174.86C292.944 175.235 293.11 175.38 293.37 175.38C293.63 175.38 293.804 175.235 293.804 174.86V171.971C293.804 171.588 293.638 171.451 293.37 171.451C293.103 171.451 292.944 171.588 292.944 171.971V174.86Z" fill="#263238"/>
<path d="M292.114 187.18C292.101 187.007 292.124 186.832 292.181 186.668C292.238 186.504 292.329 186.353 292.447 186.225C292.566 186.098 292.709 185.996 292.868 185.926C293.028 185.857 293.2 185.821 293.374 185.821C293.548 185.821 293.72 185.857 293.88 185.926C294.039 185.996 294.183 186.098 294.301 186.225C294.419 186.353 294.51 186.504 294.567 186.668C294.625 186.832 294.647 187.007 294.634 187.18V189.931C294.647 190.105 294.625 190.279 294.567 190.444C294.51 190.608 294.419 190.759 294.301 190.886C294.183 191.014 294.039 191.116 293.88 191.185C293.72 191.255 293.548 191.291 293.374 191.291C293.2 191.291 293.028 191.255 292.868 191.185C292.709 191.116 292.566 191.014 292.447 190.886C292.329 190.759 292.238 190.608 292.181 190.444C292.124 190.279 292.101 190.105 292.114 189.931V187.18ZM292.944 189.982C292.944 190.365 293.11 190.502 293.37 190.502C293.63 190.502 293.804 190.365 293.804 189.982V187.093C293.804 186.718 293.638 186.573 293.37 186.573C293.103 186.573 292.944 186.718 292.944 187.093V189.982Z" fill="#263238"/>
<path d="M292.692 209.264C292.9 209.29 293.111 209.235 293.281 209.112C293.451 208.989 293.568 208.806 293.609 208.599H294.165V213.893H293.334V209.856H292.692V209.264Z" fill="#263238"/>
<path d="M292.692 216.825C292.901 216.852 293.112 216.799 293.283 216.675C293.453 216.552 293.57 216.367 293.609 216.16H294.165V221.454H293.334V217.417H292.692V216.825Z" fill="#263238"/>
<path d="M292.692 239.523C292.901 239.548 293.113 239.493 293.283 239.368C293.454 239.244 293.57 239.059 293.609 238.851H294.165V244.144H293.334V240.108H292.692V239.523Z" fill="#263238"/>
<path d="M292.114 247.69C292.101 247.517 292.124 247.342 292.181 247.178C292.238 247.014 292.329 246.863 292.447 246.736C292.566 246.608 292.709 246.506 292.868 246.437C293.028 246.367 293.2 246.331 293.374 246.331C293.548 246.331 293.72 246.367 293.88 246.437C294.039 246.506 294.183 246.608 294.301 246.736C294.419 246.863 294.51 247.014 294.567 247.178C294.625 247.342 294.647 247.517 294.634 247.69V250.442C294.647 250.615 294.625 250.79 294.567 250.954C294.51 251.118 294.419 251.269 294.301 251.396C294.183 251.524 294.039 251.626 293.88 251.695C293.72 251.765 293.548 251.801 293.374 251.801C293.2 251.801 293.028 251.765 292.868 251.695C292.709 251.626 292.566 251.524 292.447 251.396C292.329 251.269 292.238 251.118 292.181 250.954C292.124 250.79 292.101 250.615 292.114 250.442V247.69ZM292.944 250.492C292.944 250.868 293.11 251.012 293.37 251.012C293.63 251.012 293.804 250.868 293.804 250.492V247.604C293.804 247.228 293.638 247.084 293.37 247.084C293.103 247.084 292.944 247.228 292.944 247.604V250.492Z" fill="#263238"/>
<path d="M292.692 254.645C292.9 254.67 293.111 254.616 293.281 254.493C293.451 254.37 293.568 254.186 293.609 253.98H294.165V259.274H293.334V255.208H292.692V254.645Z" fill="#263238"/>
<path d="M105.918 180.103C105.918 179.768 106.051 179.446 106.288 179.209C106.526 178.972 106.847 178.839 107.182 178.839C107.517 178.839 107.839 178.972 108.076 179.209C108.313 179.446 108.446 179.768 108.446 180.103V182.854C108.446 183.189 108.313 183.511 108.076 183.748C107.839 183.985 107.517 184.118 107.182 184.118C106.847 184.118 106.526 183.985 106.288 183.748C106.051 183.511 105.918 183.189 105.918 182.854V180.103ZM106.749 182.905C106.749 183.287 106.915 183.432 107.182 183.432C107.449 183.432 107.608 183.287 107.608 182.905V180.016C107.608 179.633 107.442 179.489 107.182 179.489C106.922 179.489 106.749 179.633 106.749 180.016V182.905Z" fill="#263238"/>
<path d="M105.918 187.685C105.918 187.35 106.051 187.029 106.288 186.792C106.526 186.555 106.847 186.422 107.182 186.422C107.517 186.422 107.839 186.555 108.076 186.792C108.313 187.029 108.446 187.35 108.446 187.685V190.437C108.446 190.772 108.313 191.093 108.076 191.33C107.839 191.567 107.517 191.701 107.182 191.701C106.847 191.701 106.526 191.567 106.288 191.33C106.051 191.093 105.918 190.772 105.918 190.437V187.685ZM106.749 190.495C106.749 190.87 106.915 191.015 107.182 191.015C107.449 191.015 107.608 190.87 107.608 190.495V187.606C107.608 187.23 107.442 187.086 107.182 187.086C106.922 187.086 106.749 187.23 106.749 187.606V190.495Z" fill="#263238"/>
<path d="M106.503 194.647C106.711 194.673 106.921 194.618 107.09 194.495C107.259 194.372 107.375 194.188 107.413 193.983H107.977V199.276H107.146V195.268H106.503V194.647Z" fill="#263238"/>
<path d="M105.918 202.815C105.918 202.48 106.051 202.158 106.288 201.921C106.526 201.684 106.847 201.551 107.182 201.551C107.517 201.551 107.839 201.684 108.076 201.921C108.313 202.158 108.446 202.48 108.446 202.815V205.566C108.446 205.901 108.313 206.223 108.076 206.46C107.839 206.697 107.517 206.83 107.182 206.83C106.847 206.83 106.526 206.697 106.288 206.46C106.051 206.223 105.918 205.901 105.918 205.566V202.815ZM106.749 205.617C106.749 206 106.915 206.144 107.182 206.144C107.449 206.144 107.608 206 107.608 205.617V202.764C107.608 202.382 107.442 202.237 107.182 202.237C106.922 202.237 106.749 202.382 106.749 202.764V205.617Z" fill="#263238"/>
<path d="M106.503 209.777C106.711 209.802 106.921 209.748 107.09 209.624C107.259 209.501 107.375 209.318 107.413 209.112H107.977V214.398H107.146V210.362H106.503V209.777Z" fill="#263238"/>
<path d="M105.918 217.944C105.918 217.609 106.051 217.288 106.288 217.051C106.526 216.814 106.847 216.681 107.182 216.681C107.517 216.681 107.839 216.814 108.076 217.051C108.313 217.288 108.446 217.609 108.446 217.944V220.696C108.446 221.031 108.313 221.352 108.076 221.589C107.839 221.826 107.517 221.96 107.182 221.96C106.847 221.96 106.526 221.826 106.288 221.589C106.051 221.352 105.918 221.031 105.918 220.696V217.944ZM106.749 220.746C106.749 221.122 106.915 221.266 107.182 221.266C107.449 221.266 107.608 221.122 107.608 220.746V217.858C107.608 217.482 107.442 217.338 107.182 217.338C106.922 217.338 106.749 217.482 106.749 217.858V220.746Z" fill="#263238"/>
<path d="M106.503 224.877C106.711 224.903 106.921 224.848 107.09 224.725C107.259 224.602 107.375 224.418 107.413 224.213H107.977V229.506H107.146V225.469H106.503V224.877Z" fill="#263238"/>
<path d="M105.918 233.067C105.918 232.731 106.051 232.41 106.288 232.173C106.526 231.936 106.847 231.803 107.182 231.803C107.517 231.803 107.839 231.936 108.076 232.173C108.313 232.41 108.446 232.731 108.446 233.067V235.818C108.446 236.153 108.313 236.475 108.076 236.712C107.839 236.949 107.517 237.082 107.182 237.082C106.847 237.082 106.526 236.949 106.288 236.712C106.051 236.475 105.918 236.153 105.918 235.818V233.067ZM106.749 235.876C106.749 236.251 106.915 236.396 107.182 236.396C107.449 236.396 107.608 236.251 107.608 235.876V232.987C107.608 232.612 107.442 232.467 107.182 232.467C106.922 232.467 106.749 232.612 106.749 232.987V235.876Z" fill="#263238"/>
<path d="M105.918 240.635C105.918 240.3 106.051 239.978 106.288 239.741C106.526 239.504 106.847 239.371 107.182 239.371C107.517 239.371 107.839 239.504 108.076 239.741C108.313 239.978 108.446 240.3 108.446 240.635V243.386C108.446 243.722 108.313 244.043 108.076 244.28C107.839 244.517 107.517 244.65 107.182 244.65C106.847 244.65 106.526 244.517 106.288 244.28C106.051 244.043 105.918 243.722 105.918 243.386V240.635ZM106.749 243.437C106.749 243.812 106.915 243.957 107.182 243.957C107.449 243.957 107.608 243.812 107.608 243.437V240.548C107.608 240.173 107.442 240.028 107.182 240.028C106.922 240.028 106.749 240.173 106.749 240.548V243.437Z" fill="#263238"/>
<path d="M105.918 248.196C105.918 247.86 106.051 247.539 106.288 247.302C106.526 247.065 106.847 246.932 107.182 246.932C107.517 246.932 107.839 247.065 108.076 247.302C108.313 247.539 108.446 247.86 108.446 248.196V250.947C108.446 251.282 108.313 251.604 108.076 251.841C107.839 252.078 107.517 252.211 107.182 252.211C106.847 252.211 106.526 252.078 106.288 251.841C106.051 251.604 105.918 251.282 105.918 250.947V248.196ZM106.749 250.998C106.749 251.38 106.915 251.525 107.182 251.525C107.449 251.525 107.608 251.38 107.608 250.998V248.145C107.608 247.762 107.442 247.625 107.182 247.625C106.922 247.625 106.749 247.762 106.749 248.145V250.998Z" fill="#263238"/>
<path d="M106.503 255.157C106.711 255.183 106.921 255.129 107.09 255.005C107.259 254.882 107.375 254.699 107.413 254.493H107.977V259.779H107.146V255.742H106.503V255.157Z" fill="#263238"/>
<path d="M106.503 262.718C106.711 262.744 106.921 262.69 107.09 262.566C107.259 262.443 107.375 262.26 107.413 262.054H107.977V267.348H107.146V263.311H106.503V262.718Z" fill="#263238"/>
<path d="M106.503 270.279C106.711 270.305 106.921 270.251 107.09 270.127C107.259 270.004 107.375 269.821 107.413 269.615H107.977V274.909H107.146V270.872H106.503V270.279Z" fill="#263238"/>
<path d="M106.503 277.848C106.711 277.874 106.921 277.819 107.09 277.696C107.259 277.572 107.375 277.389 107.413 277.183H107.977V282.47H107.146V278.433H106.503V277.848Z" fill="#263238"/>
<path d="M106.749 288.818C106.749 289.2 106.915 289.338 107.182 289.338C107.449 289.338 107.608 289.2 107.608 288.818V285.929C107.608 285.553 107.442 285.409 107.182 285.409C106.922 285.409 106.749 285.553 106.749 285.929V288.818Z" fill="#263238"/>
<path d="M110.995 209.777C111.204 209.802 111.414 209.748 111.585 209.625C111.755 209.502 111.872 209.318 111.912 209.112H112.468V214.398H111.638V210.362H110.995V209.777Z" fill="#263238"/>
<path d="M110.995 217.338C111.204 217.363 111.414 217.309 111.585 217.186C111.755 217.063 111.872 216.879 111.912 216.673H112.468V221.988H111.638V217.951H110.995V217.338Z" fill="#263238"/>
<path d="M110.446 233.066C110.433 232.893 110.456 232.719 110.513 232.554C110.571 232.39 110.661 232.239 110.78 232.112C110.898 231.984 111.041 231.882 111.201 231.813C111.36 231.743 111.532 231.707 111.706 231.707C111.88 231.707 112.053 231.743 112.212 231.813C112.371 231.882 112.515 231.984 112.633 232.112C112.751 232.239 112.842 232.39 112.9 232.554C112.957 232.719 112.98 232.893 112.967 233.066V235.818C112.98 235.991 112.957 236.166 112.9 236.33C112.842 236.494 112.751 236.645 112.633 236.773C112.515 236.9 112.371 237.002 112.212 237.072C112.053 237.141 111.88 237.177 111.706 237.177C111.532 237.177 111.36 237.141 111.201 237.072C111.041 237.002 110.898 236.9 110.78 236.773C110.661 236.645 110.571 236.494 110.513 236.33C110.456 236.166 110.433 235.991 110.446 235.818V233.066ZM111.277 235.876C111.277 236.251 111.443 236.396 111.703 236.396C111.963 236.396 112.136 236.251 112.136 235.876V232.987C112.136 232.611 111.97 232.467 111.703 232.467C111.436 232.467 111.277 232.611 111.277 232.987V235.876Z" fill="#263238"/>
<path d="M110.995 240.043C111.204 240.068 111.414 240.014 111.585 239.891C111.755 239.768 111.872 239.584 111.912 239.378H112.468V244.672H111.638V240.62H110.995V240.043Z" fill="#263238"/>
<path d="M110.446 248.196C110.433 248.022 110.456 247.848 110.513 247.684C110.571 247.519 110.661 247.369 110.78 247.241C110.898 247.114 111.041 247.012 111.201 246.942C111.36 246.872 111.532 246.837 111.706 246.837C111.88 246.837 112.053 246.872 112.212 246.942C112.371 247.012 112.515 247.114 112.633 247.241C112.751 247.369 112.842 247.519 112.9 247.684C112.957 247.848 112.98 248.022 112.967 248.196V250.947C112.98 251.121 112.957 251.295 112.9 251.459C112.842 251.624 112.751 251.774 112.633 251.902C112.515 252.03 112.371 252.131 112.212 252.201C112.053 252.271 111.88 252.307 111.706 252.307C111.532 252.307 111.36 252.271 111.201 252.201C111.041 252.131 110.898 252.03 110.78 251.902C110.661 251.774 110.571 251.624 110.513 251.459C110.456 251.295 110.433 251.121 110.446 250.947V248.196ZM111.277 250.998C111.277 251.381 111.443 251.525 111.703 251.525C111.963 251.525 112.136 251.381 112.136 250.998V248.145C112.136 247.763 111.97 247.625 111.703 247.625C111.436 247.625 111.277 247.763 111.277 248.145V250.998Z" fill="#263238"/>
<path d="M111.248 266.127C111.248 266.503 111.414 266.647 111.674 266.647C111.934 266.647 112.107 266.503 112.107 266.127V263.238C112.107 262.863 111.941 262.719 111.674 262.719C111.407 262.719 111.248 262.863 111.248 263.238V266.127Z" fill="#263238"/>
<path d="M110.995 270.28C111.195 270.301 111.396 270.249 111.561 270.134C111.726 270.018 111.843 269.847 111.891 269.651H112.447V274.945H111.616V270.908H110.974L110.995 270.28Z" fill="#263238"/>
<path d="M110.995 277.848C111.204 277.874 111.414 277.82 111.585 277.696C111.755 277.573 111.872 277.39 111.912 277.183H112.468V282.47H111.638V278.433H110.995V277.848Z" fill="#263238"/>
<path d="M110.446 301.138C110.433 300.964 110.456 300.79 110.513 300.626C110.571 300.461 110.661 300.311 110.78 300.183C110.898 300.055 111.041 299.954 111.201 299.884C111.36 299.814 111.532 299.778 111.706 299.778C111.88 299.778 112.053 299.814 112.212 299.884C112.371 299.954 112.515 300.055 112.633 300.183C112.751 300.311 112.842 300.461 112.9 300.626C112.957 300.79 112.98 300.964 112.967 301.138V303.896C112.98 304.07 112.957 304.244 112.9 304.409C112.842 304.573 112.751 304.723 112.633 304.851C112.515 304.979 112.371 305.08 112.212 305.15C112.053 305.22 111.88 305.256 111.706 305.256C111.532 305.256 111.36 305.22 111.201 305.15C111.041 305.08 110.898 304.979 110.78 304.851C110.661 304.723 110.571 304.573 110.513 304.409C110.456 304.244 110.433 304.07 110.446 303.896V301.138ZM111.277 303.947C111.277 304.322 111.443 304.467 111.703 304.467C111.963 304.467 112.136 304.322 112.136 303.947V301.058C112.136 300.683 111.97 300.538 111.703 300.538C111.436 300.538 111.277 300.683 111.277 301.058V303.947Z" fill="#263238"/>
<path d="M101.419 202.815C101.419 202.48 101.552 202.158 101.789 201.921C102.026 201.684 102.348 201.551 102.683 201.551C103.018 201.551 103.339 201.684 103.576 201.921C103.813 202.158 103.947 202.48 103.947 202.815V205.566C103.947 205.901 103.813 206.223 103.576 206.46C103.339 206.697 103.018 206.83 102.683 206.83C102.348 206.83 102.026 206.697 101.789 206.46C101.552 206.223 101.419 205.901 101.419 205.566V202.815ZM102.25 205.617C102.25 206 102.416 206.144 102.683 206.144C102.95 206.144 103.116 206 103.116 205.617V202.764C103.116 202.382 102.95 202.237 102.683 202.237C102.416 202.237 102.25 202.382 102.25 202.764V205.617Z" fill="#263238"/>
<path d="M102.004 209.777C102.213 209.802 102.423 209.748 102.594 209.625C102.764 209.502 102.881 209.318 102.921 209.112H103.477V214.398H102.647V210.362H102.004V209.777Z" fill="#263238"/>
<path d="M102.004 217.338C102.213 217.363 102.423 217.309 102.594 217.186C102.764 217.063 102.881 216.879 102.921 216.673H103.477V221.988H102.647V217.951H102.004V217.338Z" fill="#263238"/>
<path d="M101.419 225.505C101.419 225.17 101.552 224.849 101.789 224.612C102.026 224.375 102.348 224.242 102.683 224.242C103.018 224.242 103.339 224.375 103.576 224.612C103.813 224.849 103.947 225.17 103.947 225.505V228.257C103.947 228.592 103.813 228.914 103.576 229.151C103.339 229.388 103.018 229.521 102.683 229.521C102.348 229.521 102.026 229.388 101.789 229.151C101.552 228.914 101.419 228.592 101.419 228.257V225.505ZM102.25 228.307C102.25 228.69 102.416 228.835 102.683 228.835C102.95 228.835 103.116 228.69 103.116 228.307V225.455C103.116 225.072 102.95 224.928 102.683 224.928C102.416 224.928 102.25 225.072 102.25 225.455V228.307Z" fill="#263238"/>
<path d="M101.419 240.635C101.419 240.3 101.552 239.978 101.789 239.741C102.026 239.504 102.348 239.371 102.683 239.371C103.018 239.371 103.339 239.504 103.576 239.741C103.813 239.978 103.947 240.3 103.947 240.635V243.386C103.947 243.722 103.813 244.043 103.576 244.28C103.339 244.517 103.018 244.65 102.683 244.65C102.348 244.65 102.026 244.517 101.789 244.28C101.552 244.043 101.419 243.722 101.419 243.386V240.635ZM102.25 243.437C102.25 243.812 102.416 243.957 102.683 243.957C102.95 243.957 103.116 243.812 103.116 243.437V240.548C103.116 240.173 102.95 240.028 102.683 240.028C102.416 240.028 102.25 240.173 102.25 240.548V243.437Z" fill="#263238"/>
<path d="M101.419 248.196C101.419 247.86 101.552 247.539 101.789 247.302C102.026 247.065 102.348 246.932 102.683 246.932C103.018 246.932 103.339 247.065 103.576 247.302C103.813 247.539 103.947 247.86 103.947 248.196V250.947C103.947 251.282 103.813 251.604 103.576 251.841C103.339 252.078 103.018 252.211 102.683 252.211C102.348 252.211 102.026 252.078 101.789 251.841C101.552 251.604 101.419 251.282 101.419 250.947V248.196ZM102.25 250.998C102.25 251.38 102.416 251.525 102.683 251.525C102.95 251.525 103.116 251.38 103.116 250.998V248.145C103.116 247.762 102.95 247.625 102.683 247.625C102.416 247.625 102.25 247.762 102.25 248.145V250.998Z" fill="#263238"/>
<path d="M102.004 255.157C102.213 255.183 102.423 255.129 102.594 255.006C102.764 254.882 102.881 254.699 102.921 254.493H103.477V259.779H102.647V255.742H102.004V255.157Z" fill="#263238"/>
<path d="M101.419 263.325C101.419 262.99 101.552 262.669 101.789 262.432C102.026 262.194 102.348 262.061 102.683 262.061C103.018 262.061 103.339 262.194 103.576 262.432C103.813 262.669 103.947 262.99 103.947 263.325V266.077C103.947 266.412 103.813 266.733 103.576 266.97C103.339 267.207 103.018 267.34 102.683 267.34C102.348 267.34 102.026 267.207 101.789 266.97C101.552 266.733 101.419 266.412 101.419 266.077V263.325ZM102.25 266.127C102.25 266.503 102.416 266.647 102.683 266.647C102.95 266.647 103.116 266.503 103.116 266.127V263.238C103.116 262.863 102.95 262.719 102.683 262.719C102.416 262.719 102.25 262.863 102.25 263.238V266.127Z" fill="#263238"/>
<path d="M102.004 270.279C102.213 270.305 102.423 270.251 102.594 270.128C102.764 270.005 102.881 269.821 102.921 269.615H103.477V274.909H102.647V270.872H102.004V270.279Z" fill="#263238"/>
<path d="M96.9274 187.686C96.9143 187.512 96.9371 187.338 96.9945 187.173C97.0519 187.009 97.1425 186.858 97.2609 186.731C97.3792 186.603 97.5225 186.501 97.682 186.432C97.8415 186.362 98.0136 186.326 98.1876 186.326C98.3616 186.326 98.5338 186.362 98.6932 186.432C98.8527 186.501 98.9961 186.603 99.1144 186.731C99.2327 186.858 99.3234 187.009 99.3807 187.173C99.4381 187.338 99.4609 187.512 99.4478 187.686V190.437C99.4609 190.611 99.4381 190.785 99.3807 190.949C99.3234 191.113 99.2327 191.264 99.1144 191.392C98.9961 191.519 98.8527 191.621 98.6932 191.691C98.5338 191.76 98.3616 191.796 98.1876 191.796C98.0136 191.796 97.8415 191.76 97.682 191.691C97.5225 191.621 97.3792 191.519 97.2609 191.392C97.1425 191.264 97.0519 191.113 96.9945 190.949C96.9371 190.785 96.9143 190.611 96.9274 190.437V187.686ZM97.7579 190.495C97.7579 190.87 97.924 191.015 98.184 191.015C98.444 191.015 98.6173 190.87 98.6173 190.495V187.606C98.6173 187.231 98.4512 187.086 98.184 187.086C97.9168 187.086 97.7579 187.231 97.7579 187.606V190.495Z" fill="#263238"/>
<path d="M97.5052 202.208C97.7138 202.234 97.9244 202.18 98.0946 202.057C98.2648 201.934 98.382 201.75 98.4224 201.544H98.9785V206.823H98.1696V202.786H97.5269L97.5052 202.208Z" fill="#263238"/>
<path d="M97.5052 217.338C97.7138 217.363 97.9244 217.309 98.0946 217.186C98.2648 217.063 98.382 216.879 98.4224 216.673H98.9785V221.988H98.1696V217.951H97.5269L97.5052 217.338Z" fill="#263238"/>
<path d="M96.9274 225.506C96.9143 225.332 96.9371 225.158 96.9945 224.993C97.0519 224.829 97.1425 224.678 97.2609 224.551C97.3792 224.423 97.5225 224.321 97.682 224.252C97.8415 224.182 98.0136 224.146 98.1876 224.146C98.3616 224.146 98.5338 224.182 98.6932 224.252C98.8527 224.321 98.9961 224.423 99.1144 224.551C99.2327 224.678 99.3234 224.829 99.3807 224.993C99.4381 225.158 99.4609 225.332 99.4478 225.506V228.257C99.4609 228.431 99.4381 228.605 99.3807 228.769C99.3234 228.933 99.2327 229.084 99.1144 229.212C98.9961 229.339 98.8527 229.441 98.6932 229.511C98.5338 229.58 98.3616 229.616 98.1876 229.616C98.0136 229.616 97.8415 229.58 97.682 229.511C97.5225 229.441 97.3792 229.339 97.2609 229.212C97.1425 229.084 97.0519 228.933 96.9945 228.769C96.9371 228.605 96.9143 228.431 96.9274 228.257V225.506ZM97.7579 228.315C97.7579 228.69 97.924 228.835 98.184 228.835C98.444 228.835 98.6173 228.69 98.6173 228.315V225.426C98.6173 225.043 98.4512 224.906 98.184 224.906C97.9168 224.906 97.7579 225.043 97.7579 225.426V228.315Z" fill="#263238"/>
<path d="M97.5052 247.589C97.7138 247.615 97.9244 247.561 98.0946 247.437C98.2648 247.314 98.382 247.131 98.4224 246.925H98.9785V252.218H98.1696V248.181H97.5269L97.5052 247.589Z" fill="#263238"/>
<path d="M97.5052 255.157C97.7138 255.183 97.9244 255.129 98.0946 255.006C98.2648 254.882 98.382 254.699 98.4224 254.493H98.9785V259.779H98.1696V255.742H97.5269L97.5052 255.157Z" fill="#263238"/>
<path d="M97.5052 262.718C97.7138 262.744 97.9244 262.69 98.0946 262.567C98.2648 262.444 98.382 262.26 98.4224 262.054H98.9785V267.348H98.1696V263.311H97.5269L97.5052 262.718Z" fill="#263238"/>
<path d="M238.349 5.77947C238.349 5.4443 238.482 5.12285 238.719 4.88584C238.956 4.64883 239.277 4.51569 239.613 4.51569C239.948 4.51569 240.269 4.64883 240.506 4.88584C240.743 5.12285 240.876 5.4443 240.876 5.77947V8.53092C240.876 8.8661 240.743 9.18755 240.506 9.42456C240.269 9.66156 239.948 9.79471 239.613 9.79471C239.277 9.79471 238.956 9.66156 238.719 9.42456C238.482 9.18755 238.349 8.8661 238.349 8.53092V5.77947ZM239.179 8.58148C239.179 8.957 239.345 9.10143 239.613 9.10143C239.88 9.10143 240.039 8.957 240.039 8.58148V5.69282C240.039 5.31729 239.873 5.17286 239.613 5.17286C239.353 5.17286 239.179 5.31729 239.179 5.69282V8.58148Z" fill="#263238"/>
<path d="M238.349 13.3406C238.349 13.0054 238.482 12.6839 238.719 12.4469C238.956 12.2099 239.277 12.0768 239.613 12.0768C239.948 12.0768 240.269 12.2099 240.506 12.4469C240.743 12.6839 240.876 13.0054 240.876 13.3406V16.092C240.876 16.4272 240.743 16.7486 240.506 16.9857C240.269 17.2227 239.948 17.3558 239.613 17.3558C239.277 17.3558 238.956 17.2227 238.719 16.9857C238.482 16.7486 238.349 16.4272 238.349 16.092V13.3406ZM239.179 16.1715C239.179 16.5542 239.345 16.6986 239.613 16.6986C239.88 16.6986 240.039 16.5542 240.039 16.1715V13.2828C240.039 12.9 239.873 12.7556 239.613 12.7556C239.353 12.7556 239.179 12.9 239.179 13.2828V16.1715Z" fill="#263238"/>
<path d="M238.934 35.4244C239.142 35.4501 239.351 35.3957 239.52 35.2722C239.689 35.1488 239.805 34.9657 239.844 34.76H240.436V40.0535H239.605V36.0166H238.963L238.934 35.4244Z" fill="#263238"/>
<path d="M238.934 42.9925C239.142 43.0182 239.351 42.9638 239.52 42.8403C239.689 42.7169 239.805 42.5338 239.844 42.3281H240.436V47.6144H239.605V43.6136H238.963L238.934 42.9925Z" fill="#263238"/>
<path d="M238.349 66.2825C238.349 65.9473 238.482 65.6258 238.719 65.3888C238.956 65.1518 239.277 65.0187 239.613 65.0187C239.948 65.0187 240.269 65.1518 240.506 65.3888C240.743 65.6258 240.876 65.9473 240.876 66.2825V69.0339C240.876 69.3691 240.743 69.6905 240.506 69.9275C240.269 70.1646 239.948 70.2977 239.613 70.2977C239.277 70.2977 238.956 70.1646 238.719 69.9275C238.482 69.6905 238.349 69.3691 238.349 69.0339V66.2825ZM239.179 69.0917C239.179 69.4672 239.345 69.6116 239.613 69.6116C239.88 69.6116 240.039 69.4672 240.039 69.0917V66.203C240.039 65.8275 239.873 65.6831 239.613 65.6831C239.353 65.6831 239.179 65.8275 239.179 66.203V69.0917Z" fill="#263238"/>
<path d="M238.349 81.4119C238.349 81.0767 238.482 80.7552 238.719 80.5182C238.956 80.2812 239.277 80.1481 239.613 80.1481C239.948 80.1481 240.269 80.2812 240.506 80.5182C240.743 80.7552 240.876 81.0767 240.876 81.4119V84.1633C240.876 84.4985 240.743 84.8199 240.506 85.0569C240.269 85.294 239.948 85.4271 239.613 85.4271C239.277 85.4271 238.956 85.294 238.719 85.0569C238.482 84.8199 238.349 84.4985 238.349 84.1633V81.4119ZM239.179 84.2139C239.179 84.5966 239.345 84.741 239.613 84.741C239.88 84.741 240.039 84.5966 240.039 84.2139V81.3613C240.039 80.9786 239.873 80.8414 239.613 80.8414C239.353 80.8414 239.179 80.9786 239.179 81.3613V84.2139Z" fill="#263238"/>
<path d="M224.859 20.9014C224.859 20.5662 224.992 20.2447 225.229 20.0077C225.466 19.7707 225.787 19.6376 226.123 19.6376C226.458 19.6376 226.779 19.7707 227.016 20.0077C227.253 20.2447 227.386 20.5662 227.386 20.9014V23.6528C227.386 23.988 227.253 24.3094 227.016 24.5464C226.779 24.7835 226.458 24.9166 226.123 24.9166C225.787 24.9166 225.466 24.7835 225.229 24.5464C224.992 24.3094 224.859 23.988 224.859 23.6528V20.9014ZM225.689 23.7106C225.689 24.0861 225.855 24.2305 226.123 24.2305C226.39 24.2305 226.549 24.0861 226.549 23.7106V20.8219C226.549 20.4464 226.383 20.302 226.123 20.302C225.863 20.302 225.689 20.4464 225.689 20.8219V23.7106Z" fill="#263238"/>
<path d="M224.859 28.4482C224.859 28.1131 224.992 27.7916 225.229 27.5546C225.466 27.3176 225.787 27.1844 226.123 27.1844C226.458 27.1844 226.779 27.3176 227.016 27.5546C227.253 27.7916 227.386 28.1131 227.386 28.4482V31.1997C227.386 31.5349 227.253 31.8563 227.016 32.0933C226.779 32.3303 226.458 32.4635 226.123 32.4635C225.787 32.4635 225.466 32.3303 225.229 32.0933C224.992 31.8563 224.859 31.5349 224.859 31.1997V28.4482ZM225.689 31.2502C225.689 31.6258 225.855 31.7702 226.123 31.7702C226.39 31.7702 226.549 31.6258 226.549 31.2502V28.4482C226.549 28.0727 226.383 27.9283 226.123 27.9283C225.863 27.9283 225.689 28.0727 225.689 28.4482V31.2502Z" fill="#263238"/>
<path d="M224.859 36.0308C224.859 35.6956 224.992 35.3742 225.229 35.1372C225.466 34.9002 225.787 34.767 226.123 34.767C226.458 34.767 226.779 34.9002 227.016 35.1372C227.253 35.3742 227.386 35.6956 227.386 36.0308V38.7823C227.386 39.1174 227.253 39.4389 227.016 39.6759C226.779 39.9129 226.458 40.0461 226.123 40.0461C225.787 40.0461 225.466 39.9129 225.229 39.6759C224.992 39.4389 224.859 39.1174 224.859 38.7823V36.0308ZM225.689 38.8328C225.689 39.2156 225.855 39.36 226.123 39.36C226.39 39.36 226.549 39.2156 226.549 38.8328V35.9803C226.549 35.5975 226.383 35.4531 226.123 35.4531C225.863 35.4531 225.689 35.5975 225.689 35.9803V38.8328Z" fill="#263238"/>
<path d="M225.444 42.9925C225.652 43.0182 225.861 42.9638 226.03 42.8403C226.199 42.7169 226.315 42.5338 226.354 42.3281H226.917V47.6144H226.087V43.6136H225.444V42.9925Z" fill="#263238"/>
<path d="M225.444 58.1146C225.652 58.1403 225.861 58.0859 226.03 57.9625C226.199 57.8391 226.315 57.6559 226.354 57.4503H226.917V62.7437H226.087V58.7068H225.444V58.1146Z" fill="#263238"/>
<path d="M225.444 65.6831C225.652 65.7087 225.861 65.6543 226.03 65.5309C226.199 65.4075 226.315 65.2243 226.354 65.0187H226.917V70.3338H226.087V66.2969H225.444V65.6831Z" fill="#263238"/>
<path d="M224.859 81.4119C224.859 81.0767 224.992 80.7552 225.229 80.5182C225.466 80.2812 225.787 80.1481 226.123 80.1481C226.458 80.1481 226.779 80.2812 227.016 80.5182C227.253 80.7552 227.386 81.0767 227.386 81.4119V84.1633C227.386 84.4985 227.253 84.8199 227.016 85.0569C226.779 85.294 226.458 85.4271 226.123 85.4271C225.787 85.4271 225.466 85.294 225.229 85.0569C224.992 84.8199 224.859 84.4985 224.859 84.1633V81.4119ZM225.689 84.2139C225.689 84.5966 225.855 84.741 226.123 84.741C226.39 84.741 226.549 84.5966 226.549 84.2139V81.3613C226.549 80.9786 226.383 80.8414 226.123 80.8414C225.863 80.8414 225.689 80.9786 225.689 81.3613V84.2139Z" fill="#263238"/>
<path d="M225.444 88.3879C225.652 88.4136 225.861 88.3591 226.03 88.2357C226.199 88.1123 226.315 87.9292 226.354 87.7235H226.917V93.0098H226.087V88.9729H225.444V88.3879Z" fill="#263238"/>
<path d="M233.85 5.77947C233.85 5.4443 233.983 5.12285 234.22 4.88584C234.457 4.64883 234.778 4.51569 235.114 4.51569C235.449 4.51569 235.77 4.64883 236.007 4.88584C236.244 5.12285 236.377 5.4443 236.377 5.77947V8.53092C236.377 8.8661 236.244 9.18755 236.007 9.42456C235.77 9.66156 235.449 9.79471 235.114 9.79471C234.778 9.79471 234.457 9.66156 234.22 9.42456C233.983 9.18755 233.85 8.8661 233.85 8.53092V5.77947ZM234.659 8.58148C234.659 8.957 234.825 9.10143 235.085 9.10143C235.345 9.10143 235.518 8.957 235.518 8.58148V5.69282C235.518 5.31729 235.352 5.17286 235.085 5.17286C234.817 5.17286 234.659 5.31729 234.659 5.69282V8.58148Z" fill="#263238"/>
<path d="M234.435 12.7339C234.643 12.7597 234.854 12.7055 235.024 12.5822C235.194 12.4589 235.312 12.2757 235.352 12.0695H235.908V17.3629H235.078V13.326H234.435V12.7339Z" fill="#263238"/>
<path d="M233.85 20.9014C233.85 20.5662 233.983 20.2447 234.22 20.0077C234.457 19.7707 234.778 19.6376 235.114 19.6376C235.449 19.6376 235.77 19.7707 236.007 20.0077C236.244 20.2447 236.377 20.5662 236.377 20.9014V23.6528C236.377 23.988 236.244 24.3094 236.007 24.5464C235.77 24.7835 235.449 24.9166 235.114 24.9166C234.778 24.9166 234.457 24.7835 234.22 24.5464C233.983 24.3094 233.85 23.988 233.85 23.6528V20.9014ZM234.659 23.7106C234.659 24.0861 234.825 24.2305 235.085 24.2305C235.345 24.2305 235.518 24.0861 235.518 23.7106V20.8219C235.518 20.4464 235.352 20.302 235.085 20.302C234.817 20.302 234.659 20.4464 234.659 20.8219V23.7106Z" fill="#263238"/>
<path d="M234.435 27.8631C234.643 27.8889 234.854 27.8347 235.024 27.7114C235.194 27.5881 235.312 27.4049 235.352 27.1987H235.908V32.4921H235.078V28.448H234.435V27.8631Z" fill="#263238"/>
<path d="M234.435 35.4244C234.643 35.4503 234.854 35.3961 235.024 35.2728C235.194 35.1495 235.312 34.9662 235.352 34.76H235.908V40.0535H235.078V36.0166H234.435V35.4244Z" fill="#263238"/>
<path d="M234.435 42.9925C234.643 43.0184 234.854 42.9642 235.024 42.8409C235.194 42.7176 235.312 42.5344 235.352 42.3281H235.908V47.6144H235.078V43.6136H234.435V42.9925Z" fill="#263238"/>
<path d="M233.85 51.1603C233.85 50.8251 233.983 50.5036 234.22 50.2666C234.457 50.0296 234.778 49.8965 235.114 49.8965C235.449 49.8965 235.77 50.0296 236.007 50.2666C236.244 50.5036 236.377 50.8251 236.377 51.1603V53.9117C236.377 54.2469 236.244 54.5684 236.007 54.8054C235.77 55.0424 235.449 55.1755 235.114 55.1755C234.778 55.1755 234.457 55.0424 234.22 54.8054C233.983 54.5684 233.85 54.2469 233.85 53.9117V51.1603ZM234.659 53.9623C234.659 54.3378 234.825 54.4822 235.085 54.4822C235.345 54.4822 235.518 54.3378 235.518 53.9623V51.0736C235.518 50.6981 235.352 50.5537 235.085 50.5537C234.817 50.5537 234.659 50.6981 234.659 51.0736V53.9623Z" fill="#263238"/>
<path d="M233.85 58.7214C233.85 58.3862 233.983 58.0647 234.22 57.8277C234.457 57.5907 234.778 57.4576 235.114 57.4576C235.449 57.4576 235.77 57.5907 236.007 57.8277C236.244 58.0647 236.377 58.3862 236.377 58.7214V61.4728C236.377 61.808 236.244 62.1294 236.007 62.3665C235.77 62.6035 235.449 62.7366 235.114 62.7366C234.778 62.7366 234.457 62.6035 234.22 62.3665C233.983 62.1294 233.85 61.808 233.85 61.4728V58.7214ZM234.659 61.5234C234.659 61.9061 234.825 62.0506 235.085 62.0506C235.345 62.0506 235.518 61.9061 235.518 61.5234V58.6347C235.518 58.252 235.352 58.1148 235.085 58.1148C234.817 58.1148 234.659 58.252 234.659 58.6347V61.5234Z" fill="#263238"/>
<path d="M229.936 12.7339C230.144 12.7597 230.355 12.7055 230.525 12.5822C230.696 12.4589 230.813 12.2757 230.853 12.0695H231.409V17.3629H230.579V13.326H229.936V12.7339Z" fill="#263238"/>
<path d="M229.358 20.9015C229.345 20.728 229.368 20.5537 229.425 20.3894C229.483 20.2251 229.573 20.0745 229.692 19.9469C229.81 19.8193 229.953 19.7175 230.113 19.6478C230.272 19.5782 230.444 19.5423 230.618 19.5423C230.792 19.5423 230.964 19.5782 231.124 19.6478C231.283 19.7175 231.427 19.8193 231.545 19.9469C231.663 20.0745 231.754 20.2251 231.811 20.3894C231.869 20.5537 231.892 20.728 231.879 20.9015V23.653C231.892 23.8265 231.869 24.0009 231.811 24.1651C231.754 24.3294 231.663 24.4801 231.545 24.6077C231.427 24.7353 231.283 24.8371 231.124 24.9067C230.964 24.9763 230.792 25.0123 230.618 25.0123C230.444 25.0123 230.272 24.9763 230.113 24.9067C229.953 24.8371 229.81 24.7353 229.692 24.6077C229.573 24.4801 229.483 24.3294 229.425 24.1651C229.368 24.0009 229.345 23.8265 229.358 23.653V20.9015ZM230.189 23.7108C230.189 24.0863 230.355 24.2307 230.615 24.2307C230.875 24.2307 231.048 24.0863 231.048 23.7108V20.8221C231.048 20.4466 230.882 20.3022 230.615 20.3022C230.348 20.3022 230.189 20.4466 230.189 20.8221V23.7108Z" fill="#263238"/>
<path d="M229.358 28.4481C229.345 28.2746 229.368 28.1003 229.425 27.936C229.483 27.7717 229.573 27.621 229.692 27.4934C229.81 27.3658 229.953 27.264 230.113 27.1944C230.272 27.1248 230.444 27.0889 230.618 27.0889C230.792 27.0889 230.964 27.1248 231.124 27.1944C231.283 27.264 231.427 27.3658 231.545 27.4934C231.663 27.621 231.754 27.7717 231.811 27.936C231.869 28.1003 231.892 28.2746 231.879 28.4481V31.1996C231.892 31.3731 231.869 31.5474 231.811 31.7117C231.754 31.876 231.663 32.0266 231.545 32.1543C231.427 32.2819 231.283 32.3837 231.124 32.4533C230.964 32.5229 230.792 32.5588 230.618 32.5588C230.444 32.5588 230.272 32.5229 230.113 32.4533C229.953 32.3837 229.81 32.2819 229.692 32.1543C229.573 32.0266 229.483 31.876 229.425 31.7117C229.368 31.5474 229.345 31.3731 229.358 31.1996V28.4481ZM230.189 31.2501C230.189 31.6256 230.355 31.7701 230.615 31.7701C230.875 31.7701 231.048 31.6256 231.048 31.2501V28.4481C231.048 28.0726 230.882 27.9282 230.615 27.9282C230.348 27.9282 230.189 28.0726 230.189 28.4481V31.2501Z" fill="#263238"/>
<path d="M229.936 35.4244C230.144 35.4503 230.355 35.3961 230.525 35.2728C230.696 35.1495 230.813 34.9662 230.853 34.76H231.409V40.0535H230.579V36.0166H229.936V35.4244Z" fill="#263238"/>
<path d="M229.936 50.5536C230.144 50.5795 230.355 50.5253 230.525 50.402C230.696 50.2787 230.813 50.0955 230.853 49.8892H231.409V55.1682H230.579V51.1458H229.936V50.5536Z" fill="#263238"/>
<path d="M229.936 58.1146C230.144 58.1405 230.355 58.0863 230.525 57.963C230.696 57.8397 230.813 57.6565 230.853 57.4503H231.409V62.7437H230.579V58.7068H229.936V58.1146Z" fill="#263238"/>
<path d="M229.936 65.6831C230.144 65.7089 230.355 65.6547 230.525 65.5315C230.696 65.4082 230.813 65.2249 230.853 65.0187H231.409V70.3338H230.579V66.2969H229.936V65.6831Z" fill="#263238"/>
<path d="M26.6754 89.5217C26.6754 89.1865 26.8085 88.865 27.0455 88.628C27.2825 88.391 27.604 88.2579 27.9391 88.2579C28.2743 88.2579 28.5958 88.391 28.8328 88.628C29.0698 88.865 29.2029 89.1865 29.2029 89.5217V92.2803C29.2029 92.6155 29.0698 92.937 28.8328 93.174C28.5958 93.411 28.2743 93.5441 27.9391 93.5441C27.604 93.5441 27.2825 93.411 27.0455 93.174C26.8085 92.937 26.6754 92.6155 26.6754 92.2803V89.5217ZM27.5058 92.3309C27.5058 92.7064 27.6719 92.8508 27.9391 92.8508C28.2063 92.8508 28.3652 92.7064 28.3652 92.3309V89.4422C28.3652 89.0667 28.1991 88.9223 27.9391 88.9223C27.6792 88.9223 27.5058 89.0667 27.5058 89.4422V92.3309Z" fill="#263238"/>
<path d="M26.6754 97.09C26.6754 96.7548 26.8085 96.4334 27.0455 96.1964C27.2825 95.9594 27.604 95.8262 27.9391 95.8262C28.2743 95.8262 28.5958 95.9594 28.8328 96.1964C29.0698 96.4334 29.2029 96.7548 29.2029 97.09V99.8415C29.2029 100.177 29.0698 100.498 28.8328 100.735C28.5958 100.972 28.2743 101.105 27.9391 101.105C27.604 101.105 27.2825 100.972 27.0455 100.735C26.8085 100.498 26.6754 100.177 26.6754 99.8415V97.09ZM27.5058 99.892C27.5058 100.275 27.6719 100.412 27.9391 100.412C28.2063 100.412 28.3652 100.275 28.3652 99.892V97.0034C28.3652 96.6278 28.1991 96.4834 27.9391 96.4834C27.6792 96.4834 27.5058 96.6278 27.5058 97.0034V99.892Z" fill="#263238"/>
<path d="M27.2529 104.044C27.4606 104.07 27.6703 104.016 27.8393 103.892C28.0083 103.769 28.124 103.586 28.1628 103.38H28.7261V108.674H27.8956V104.637H27.2529V104.044Z" fill="#263238"/>
<path d="M26.6754 112.219C26.6754 111.884 26.8085 111.563 27.0455 111.326C27.2825 111.089 27.604 110.955 27.9391 110.955C28.2743 110.955 28.5958 111.089 28.8328 111.326C29.0698 111.563 29.2029 111.884 29.2029 112.219V114.978C29.2029 115.313 29.0698 115.635 28.8328 115.872C28.5958 116.109 28.2743 116.242 27.9391 116.242C27.604 116.242 27.2825 116.109 27.0455 115.872C26.8085 115.635 26.6754 115.313 26.6754 114.978V112.219ZM27.5058 115.028C27.5058 115.404 27.6719 115.548 27.9391 115.548C28.2063 115.548 28.3652 115.404 28.3652 115.028V112.14C28.3652 111.764 28.1991 111.62 27.9391 111.62C27.6792 111.62 27.5058 111.764 27.5058 112.14V115.028Z" fill="#263238"/>
<path d="M27.2529 119.174C27.4606 119.2 27.6703 119.145 27.8393 119.022C28.0083 118.898 28.124 118.715 28.1628 118.51H28.7261V123.774H27.8956V119.737H27.2529V119.174Z" fill="#263238"/>
<path d="M26.6754 127.341C26.6754 127.006 26.8085 126.685 27.0455 126.448C27.2825 126.211 27.604 126.078 27.9391 126.078C28.2743 126.078 28.5958 126.211 28.8328 126.448C29.0698 126.685 29.2029 127.006 29.2029 127.341V130.093C29.2029 130.428 29.0698 130.75 28.8328 130.987C28.5958 131.224 28.2743 131.357 27.9391 131.357C27.604 131.357 27.2825 131.224 27.0455 130.987C26.8085 130.75 26.6754 130.428 26.6754 130.093V127.341ZM27.5058 130.151C27.5058 130.526 27.6719 130.671 27.9391 130.671C28.2063 130.671 28.3652 130.526 28.3652 130.151V127.262C28.3652 126.879 28.1991 126.742 27.9391 126.742C27.6792 126.742 27.5058 126.879 27.5058 127.262V130.151Z" fill="#263238"/>
<path d="M27.2529 134.303C27.4606 134.329 27.6703 134.274 27.8393 134.151C28.0083 134.027 28.124 133.844 28.1628 133.639H28.7261V138.939H27.8956V134.902H27.2529V134.303Z" fill="#263238"/>
<path d="M26.6754 142.471C26.6754 142.136 26.8085 141.814 27.0455 141.577C27.2825 141.34 27.604 141.207 27.9391 141.207C28.2743 141.207 28.5958 141.34 28.8328 141.577C29.0698 141.814 29.2029 142.136 29.2029 142.471V145.222C29.2029 145.557 29.0698 145.879 28.8328 146.116C28.5958 146.353 28.2743 146.486 27.9391 146.486C27.604 146.486 27.2825 146.353 27.0455 146.116C26.8085 145.879 26.6754 145.557 26.6754 145.222V142.471ZM27.5058 145.273C27.5058 145.656 27.6719 145.793 27.9391 145.793C28.2063 145.793 28.3652 145.656 28.3652 145.273V142.384C28.3652 142.009 28.1991 141.864 27.9391 141.864C27.6792 141.864 27.5058 142.009 27.5058 142.384V145.273Z" fill="#263238"/>
<path d="M26.6754 150.032C26.6754 149.697 26.8085 149.375 27.0455 149.138C27.2825 148.901 27.604 148.768 27.9391 148.768C28.2743 148.768 28.5958 148.901 28.8328 149.138C29.0698 149.375 29.2029 149.697 29.2029 150.032V152.783C29.2029 153.119 29.0698 153.44 28.8328 153.677C28.5958 153.914 28.2743 154.047 27.9391 154.047C27.604 154.047 27.2825 153.914 27.0455 153.677C26.8085 153.44 26.6754 153.119 26.6754 152.783V150.032ZM27.5058 152.841C27.5058 153.217 27.6719 153.361 27.9391 153.361C28.2063 153.361 28.3652 153.217 28.3652 152.841V149.952C28.3652 149.577 28.1991 149.433 27.9391 149.433C27.6792 149.433 27.5058 149.577 27.5058 149.952V152.841Z" fill="#263238"/>
<path d="M26.6754 157.6C26.6754 157.265 26.8085 156.944 27.0455 156.707C27.2825 156.47 27.604 156.336 27.9391 156.336C28.2743 156.336 28.5958 156.47 28.8328 156.707C29.0698 156.944 29.2029 157.265 29.2029 157.6V160.352C29.2029 160.687 29.0698 161.008 28.8328 161.245C28.5958 161.482 28.2743 161.616 27.9391 161.616C27.604 161.616 27.2825 161.482 27.0455 161.245C26.8085 161.008 26.6754 160.687 26.6754 160.352V157.6ZM27.5058 160.402C27.5058 160.778 27.6719 160.922 27.9391 160.922C28.2063 160.922 28.3652 160.778 28.3652 160.402V157.514C28.3652 157.138 28.1991 156.994 27.9391 156.994C27.6792 156.994 27.5058 157.138 27.5058 157.514V160.402Z" fill="#263238"/>
<path d="M27.2529 172.116C27.4609 172.143 27.6715 172.089 27.8409 171.966C28.0104 171.842 28.1256 171.658 28.1628 171.451H28.7261V176.745H27.8956V172.708H27.2529V172.116Z" fill="#263238"/>
<path d="M31.7303 119.174C31.9389 119.2 32.1495 119.146 32.3197 119.022C32.4899 118.899 32.607 118.716 32.6475 118.51H33.2035V123.774H32.3875V119.737H31.7303V119.174Z" fill="#263238"/>
<path d="M31.7303 126.735C31.9389 126.761 32.1495 126.707 32.3197 126.583C32.4899 126.46 32.607 126.277 32.6475 126.071H33.2035V131.364H32.3875V127.327H31.7303V126.735Z" fill="#263238"/>
<path d="M31.1672 134.903C31.154 134.729 31.1769 134.555 31.2342 134.39C31.2916 134.226 31.3823 134.076 31.5006 133.948C31.6189 133.82 31.7623 133.719 31.9217 133.649C32.0812 133.579 32.2534 133.543 32.4274 133.543C32.6014 133.543 32.7735 133.579 32.933 133.649C33.0924 133.719 33.2358 133.82 33.3541 133.948C33.4724 134.076 33.5631 134.226 33.6205 134.39C33.6779 134.555 33.7007 134.729 33.6875 134.903V137.661C33.7007 137.835 33.6779 138.009 33.6205 138.173C33.5631 138.338 33.4724 138.488 33.3541 138.616C33.2358 138.744 33.0924 138.845 32.933 138.915C32.7735 138.985 32.6014 139.021 32.4274 139.021C32.2534 139.021 32.0812 138.985 31.9217 138.915C31.7623 138.845 31.6189 138.744 31.5006 138.616C31.3823 138.488 31.2916 138.338 31.2342 138.173C31.1769 138.009 31.154 137.835 31.1672 137.661V134.903ZM31.9977 137.712C31.9977 138.087 32.1638 138.232 32.4238 138.232C32.6837 138.232 32.8571 138.087 32.8571 137.712V134.823C32.8571 134.448 32.691 134.303 32.4238 134.303C32.1565 134.303 31.9977 134.448 31.9977 134.823V137.712Z" fill="#263238"/>
<path d="M31.1672 142.471C31.154 142.297 31.1769 142.123 31.2342 141.959C31.2916 141.794 31.3823 141.644 31.5006 141.516C31.6189 141.388 31.7623 141.287 31.9217 141.217C32.0812 141.147 32.2534 141.112 32.4274 141.112C32.6014 141.112 32.7735 141.147 32.933 141.217C33.0924 141.287 33.2358 141.388 33.3541 141.516C33.4724 141.644 33.5631 141.794 33.6205 141.959C33.6779 142.123 33.7007 142.297 33.6875 142.471V145.222C33.7007 145.396 33.6779 145.57 33.6205 145.734C33.5631 145.899 33.4724 146.049 33.3541 146.177C33.2358 146.304 33.0924 146.406 32.933 146.476C32.7735 146.546 32.6014 146.581 32.4274 146.581C32.2534 146.581 32.0812 146.546 31.9217 146.476C31.7623 146.406 31.6189 146.304 31.5006 146.177C31.3823 146.049 31.2916 145.899 31.2342 145.734C31.1769 145.57 31.154 145.396 31.1672 145.222V142.471ZM31.9977 145.273C31.9977 145.656 32.1638 145.793 32.4238 145.793C32.6837 145.793 32.8571 145.656 32.8571 145.273V142.384C32.8571 142.009 32.691 141.864 32.4238 141.864C32.1565 141.864 31.9977 142.009 31.9977 142.384V145.273Z" fill="#263238"/>
<path d="M31.7303 149.425C31.9392 149.453 32.1507 149.399 32.3213 149.276C32.4919 149.152 32.6086 148.968 32.6475 148.761H33.2035V154.054H32.3875V150.017H31.7303V149.425Z" fill="#263238"/>
<path d="M31.7303 164.555C31.9389 164.581 32.1495 164.526 32.3197 164.403C32.4899 164.28 32.607 164.096 32.6475 163.89H33.2035V169.184H32.3875V165.147H31.7303V164.555Z" fill="#263238"/>
<path d="M22.1686 112.219C22.1686 111.884 22.3018 111.563 22.5388 111.326C22.7758 111.089 23.0973 110.955 23.4324 110.955C23.7676 110.955 24.0891 111.089 24.3261 111.326C24.5631 111.563 24.6962 111.884 24.6962 112.219V114.978C24.6962 115.313 24.5631 115.635 24.3261 115.872C24.0891 116.109 23.7676 116.242 23.4324 116.242C23.0973 116.242 22.7758 116.109 22.5388 115.872C22.3018 115.635 22.1686 115.313 22.1686 114.978V112.219ZM23.0064 115.028C23.0064 115.404 23.1724 115.548 23.4324 115.548C23.6924 115.548 23.8657 115.404 23.8657 115.028V112.14C23.8657 111.764 23.6996 111.62 23.4324 111.62C23.1652 111.62 23.0064 111.764 23.0064 112.14V115.028Z" fill="#263238"/>
<path d="M22.754 119.174C22.9625 119.2 23.1732 119.146 23.3434 119.022C23.5136 118.899 23.6307 118.716 23.6711 118.51H24.2272V123.774H23.3967V119.737H22.754V119.174Z" fill="#263238"/>
<path d="M22.754 126.735C22.9625 126.761 23.1732 126.707 23.3434 126.583C23.5136 126.46 23.6307 126.277 23.6711 126.071H24.2272V131.364H23.3967V127.327H22.754V126.735Z" fill="#263238"/>
<path d="M22.1686 134.902C22.1686 134.567 22.3018 134.246 22.5388 134.009C22.7758 133.772 23.0973 133.639 23.4324 133.639C23.7676 133.639 24.0891 133.772 24.3261 134.009C24.5631 134.246 24.6962 134.567 24.6962 134.902V137.661C24.6962 137.996 24.5631 138.318 24.3261 138.555C24.0891 138.792 23.7676 138.925 23.4324 138.925C23.0973 138.925 22.7758 138.792 22.5388 138.555C22.3018 138.318 22.1686 137.996 22.1686 137.661V134.902ZM23.0064 137.712C23.0064 138.087 23.1724 138.232 23.4324 138.232C23.6924 138.232 23.8657 138.087 23.8657 137.712V134.823C23.8657 134.447 23.6996 134.303 23.4324 134.303C23.1652 134.303 23.0064 134.447 23.0064 134.823V137.712Z" fill="#263238"/>
<path d="M22.754 141.864C22.9625 141.89 23.1732 141.836 23.3434 141.713C23.5136 141.589 23.6307 141.406 23.6711 141.2H24.2272V146.493H23.3967V142.456H22.754V141.864Z" fill="#263238"/>
<path d="M22.1686 150.032C22.1686 149.697 22.3018 149.375 22.5388 149.138C22.7758 148.901 23.0973 148.768 23.4324 148.768C23.7676 148.768 24.0891 148.901 24.3261 149.138C24.5631 149.375 24.6962 149.697 24.6962 150.032V152.783C24.6962 153.119 24.5631 153.44 24.3261 153.677C24.0891 153.914 23.7676 154.047 23.4324 154.047C23.0973 154.047 22.7758 153.914 22.5388 153.677C22.3018 153.44 22.1686 153.119 22.1686 152.783V150.032ZM23.0064 152.841C23.0064 153.217 23.1724 153.361 23.4324 153.361C23.6924 153.361 23.8657 153.217 23.8657 152.841V149.952C23.8657 149.577 23.6996 149.433 23.4324 149.433C23.1652 149.433 23.0064 149.577 23.0064 149.952V152.841Z" fill="#263238"/>
<path d="M17.677 97.09C17.6638 96.9165 17.6867 96.7421 17.744 96.5778C17.8014 96.4135 17.8921 96.2629 18.0104 96.1353C18.1287 96.0077 18.2721 95.9059 18.4315 95.8363C18.591 95.7667 18.7632 95.7307 18.9372 95.7307C19.1112 95.7307 19.2833 95.7667 19.4428 95.8363C19.6022 95.9059 19.7456 96.0077 19.8639 96.1353C19.9822 96.2629 20.0729 96.4135 20.1303 96.5778C20.1877 96.7421 20.2105 96.9165 20.1973 97.09V99.8414C20.2105 100.015 20.1877 100.189 20.1303 100.354C20.0729 100.518 19.9822 100.669 19.8639 100.796C19.7456 100.924 19.6022 101.026 19.4428 101.095C19.2833 101.165 19.1112 101.201 18.9372 101.201C18.7632 101.201 18.591 101.165 18.4315 101.095C18.2721 101.026 18.1287 100.924 18.0104 100.796C17.8921 100.669 17.8014 100.518 17.744 100.354C17.6867 100.189 17.6638 100.015 17.677 99.8414V97.09ZM18.5075 99.892C18.5075 100.275 18.6736 100.412 18.9335 100.412C19.1935 100.412 19.3668 100.275 19.3668 99.892V97.0033C19.3668 96.6206 19.2007 96.4761 18.9335 96.4761C18.6663 96.4761 18.5075 96.6206 18.5075 97.0033V99.892Z" fill="#263238"/>
<path d="M18.2547 111.613C18.4632 111.638 18.6739 111.584 18.8441 111.461C19.0143 111.338 19.1314 111.154 19.1718 110.948H19.7279V116.234H18.8974V112.219H18.2547V111.613Z" fill="#263238"/>
<path d="M17.677 119.78C17.6638 119.607 17.6867 119.432 17.744 119.268C17.8014 119.104 17.8921 118.953 18.0104 118.826C18.1287 118.698 18.2721 118.596 18.4315 118.527C18.591 118.457 18.7632 118.421 18.9372 118.421C19.1112 118.421 19.2833 118.457 19.4428 118.527C19.6022 118.596 19.7456 118.698 19.8639 118.826C19.9822 118.953 20.0729 119.104 20.1303 119.268C20.1877 119.432 20.2105 119.607 20.1973 119.78V122.532C20.2105 122.705 20.1877 122.88 20.1303 123.044C20.0729 123.208 19.9822 123.359 19.8639 123.486C19.7456 123.614 19.6022 123.716 19.4428 123.785C19.2833 123.855 19.1112 123.891 18.9372 123.891C18.7632 123.891 18.591 123.855 18.4315 123.785C18.2721 123.716 18.1287 123.614 18.0104 123.486C17.8921 123.359 17.8014 123.208 17.744 123.044C17.6867 122.88 17.6638 122.705 17.677 122.532V119.78ZM18.5075 122.582C18.5075 122.965 18.6736 123.102 18.9335 123.102C19.1935 123.102 19.3668 122.965 19.3668 122.582V119.73C19.3668 119.347 19.2007 119.202 18.9335 119.202C18.6663 119.202 18.5075 119.347 18.5075 119.73V122.582Z" fill="#263238"/>
<path d="M17.677 134.91C17.6638 134.736 17.6867 134.562 17.744 134.398C17.8014 134.233 17.8921 134.083 18.0104 133.955C18.1287 133.827 18.2721 133.726 18.4315 133.656C18.591 133.586 18.7632 133.55 18.9372 133.55C19.1112 133.55 19.2833 133.586 19.4428 133.656C19.6022 133.726 19.7456 133.827 19.8639 133.955C19.9822 134.083 20.0729 134.233 20.1303 134.398C20.1877 134.562 20.2105 134.736 20.1973 134.91V137.661C20.2105 137.835 20.1877 138.009 20.1303 138.173C20.0729 138.338 19.9822 138.488 19.8639 138.616C19.7456 138.743 19.6022 138.845 19.4428 138.915C19.2833 138.984 19.1112 139.02 18.9372 139.02C18.7632 139.02 18.591 138.984 18.4315 138.915C18.2721 138.845 18.1287 138.743 18.0104 138.616C17.8921 138.488 17.8014 138.338 17.744 138.173C17.6867 138.009 17.6638 137.835 17.677 137.661V134.91ZM18.5075 137.712C18.5075 138.087 18.6736 138.232 18.9335 138.232C19.1935 138.232 19.3668 138.087 19.3668 137.712V134.823C19.3668 134.447 19.2007 134.303 18.9335 134.303C18.6663 134.303 18.5075 134.447 18.5075 134.823V137.712Z" fill="#263238"/>
<path d="M17.677 142.471C17.6638 142.297 17.6867 142.123 17.744 141.959C17.8014 141.794 17.8921 141.644 18.0104 141.516C18.1287 141.388 18.2721 141.287 18.4315 141.217C18.591 141.147 18.7632 141.112 18.9372 141.112C19.1112 141.112 19.2833 141.147 19.4428 141.217C19.6022 141.287 19.7456 141.388 19.8639 141.516C19.9822 141.644 20.0729 141.794 20.1303 141.959C20.1877 142.123 20.2105 142.297 20.1973 142.471V145.222C20.2105 145.396 20.1877 145.57 20.1303 145.734C20.0729 145.899 19.9822 146.049 19.8639 146.177C19.7456 146.304 19.6022 146.406 19.4428 146.476C19.2833 146.546 19.1112 146.581 18.9372 146.581C18.7632 146.581 18.591 146.546 18.4315 146.476C18.2721 146.406 18.1287 146.304 18.0104 146.177C17.8921 146.049 17.8014 145.899 17.744 145.734C17.6867 145.57 17.6638 145.396 17.677 145.222V142.471ZM18.5075 145.273C18.5075 145.656 18.6736 145.8 18.9335 145.8C19.1935 145.8 19.3668 145.656 19.3668 145.273V142.384C19.3668 142.001 19.2007 141.857 18.9335 141.857C18.6663 141.857 18.5075 142.001 18.5075 142.384V145.273Z" fill="#263238"/>
<path d="M17.677 150.032C17.6638 149.859 17.6867 149.684 17.744 149.52C17.8014 149.356 17.8921 149.205 18.0104 149.077C18.1287 148.95 18.2721 148.848 18.4315 148.778C18.591 148.709 18.7632 148.673 18.9372 148.673C19.1112 148.673 19.2833 148.709 19.4428 148.778C19.6022 148.848 19.7456 148.95 19.8639 149.077C19.9822 149.205 20.0729 149.356 20.1303 149.52C20.1877 149.684 20.2105 149.859 20.1973 150.032V152.783C20.2105 152.957 20.1877 153.131 20.1303 153.296C20.0729 153.46 19.9822 153.611 19.8639 153.738C19.7456 153.866 19.6022 153.968 19.4428 154.037C19.2833 154.107 19.1112 154.143 18.9372 154.143C18.7632 154.143 18.591 154.107 18.4315 154.037C18.2721 153.968 18.1287 153.866 18.0104 153.738C17.8921 153.611 17.8014 153.46 17.744 153.296C17.6867 153.131 17.6638 152.957 17.677 152.783V150.032ZM18.5075 152.841C18.5075 153.217 18.6736 153.361 18.9335 153.361C19.1935 153.361 19.3668 153.217 19.3668 152.841V149.953C19.3668 149.577 19.2007 149.433 18.9335 149.433C18.6663 149.433 18.5075 149.577 18.5075 149.953V152.841Z" fill="#263238"/>
<path d="M18.2547 172.159C18.4643 172.185 18.6758 172.13 18.8462 172.005C19.0165 171.88 19.133 171.695 19.1718 171.488H19.7279V176.781H18.8974V172.744H18.2547V172.159Z" fill="#263238"/>
<path d="M271.583 167.544C247.983 157.99 246.271 125.132 246.271 125.132H251.327V121.203C263.307 121.203 271.583 113.772 271.583 113.772C271.583 113.772 279.859 121.203 291.84 121.203V125.132H296.895C296.895 125.132 295.176 157.99 271.583 167.544Z" stroke="#263238" stroke-width="1.45313" stroke-linecap="round" stroke-linejoin="round"/>
<path d="M271.584 163.204C256.122 155.982 251.645 136.802 250.41 128.54H255.032V124.409C260.974 123.676 266.651 121.521 271.584 118.127C276.519 121.52 282.199 123.675 288.143 124.409V128.54H292.75C291.501 136.773 286.995 155.982 271.584 163.204Z" stroke="#263238" stroke-width="1.45313" stroke-linecap="round" stroke-linejoin="round"/>
<path d="M279.918 136.029H263.243C262.704 136.029 262.268 136.466 262.268 137.004V147.02C262.268 147.559 262.704 147.995 263.243 147.995H279.918C280.456 147.995 280.893 147.559 280.893 147.02V137.004C280.893 136.466 280.456 136.029 279.918 136.029Z" fill="#263238"/>
<path d="M271.916 125.94C271.01 125.896 270.105 126.037 269.255 126.353C268.405 126.669 267.628 127.154 266.971 127.78C266.314 128.405 265.791 129.157 265.433 129.99C265.075 130.823 264.89 131.721 264.889 132.628V133.35C264.889 133.411 264.901 133.472 264.925 133.529C264.949 133.586 264.983 133.638 265.027 133.682C265.07 133.725 265.122 133.76 265.179 133.783C265.236 133.807 265.297 133.819 265.359 133.819H267.049C267.11 133.819 267.171 133.807 267.228 133.783C267.285 133.76 267.337 133.725 267.38 133.682C267.424 133.638 267.459 133.586 267.482 133.529C267.506 133.472 267.518 133.411 267.518 133.35V132.794C267.505 131.747 267.887 130.734 268.589 129.958C269.291 129.181 270.26 128.698 271.302 128.605C271.857 128.569 272.413 128.646 272.937 128.833C273.46 129.02 273.94 129.313 274.346 129.692C274.752 130.072 275.076 130.531 275.298 131.041C275.52 131.551 275.634 132.101 275.635 132.657V133.379C275.635 133.503 275.685 133.623 275.773 133.711C275.861 133.799 275.98 133.848 276.105 133.848H277.794C277.919 133.848 278.038 133.799 278.126 133.711C278.214 133.623 278.264 133.503 278.264 133.379V132.873C278.296 131.124 277.655 129.43 276.474 128.14C275.292 126.85 273.661 126.062 271.916 125.94Z" fill="#263238"/>
<path d="M273.332 140.673C273.332 140.36 273.249 140.054 273.091 139.785C272.934 139.515 272.706 139.293 272.434 139.141C272.161 138.99 271.852 138.914 271.54 138.922C271.228 138.929 270.924 139.02 270.659 139.186C270.394 139.351 270.179 139.584 270.034 139.861C269.89 140.137 269.822 140.448 269.839 140.76C269.855 141.071 269.954 141.373 270.127 141.633C270.299 141.894 270.538 142.103 270.818 142.24L270.183 145.049H272.978L272.342 142.24C272.637 142.097 272.886 141.874 273.061 141.597C273.235 141.32 273.329 141 273.332 140.673Z" fill="white" stroke="#263238" stroke-width="1.45313" stroke-linecap="round" stroke-linejoin="round"/>
<path d="M197.02 16.98H139.998C138.673 16.98 137.6 18.0535 137.6 19.3776V51.4851C137.6 52.8092 138.673 53.8827 139.998 53.8827H197.02C198.344 53.8827 199.417 52.8092 199.417 51.4851V19.3776C199.417 18.0535 198.344 16.98 197.02 16.98Z" stroke="#263238" stroke-width="1.45313" stroke-linecap="round" stroke-linejoin="round"/>
<path d="M143.355 48.7266H161.243C161.702 48.7266 162.074 48.3547 162.074 47.8961V22.9742C162.074 22.5155 161.702 22.1437 161.243 22.1437L143.355 22.1437C142.897 22.1437 142.525 22.5155 142.525 22.9742V47.8961C142.525 48.3547 142.897 48.7266 143.355 48.7266Z" stroke="#263238" stroke-width="1.45313" stroke-linecap="round" stroke-linejoin="round"/>
<path d="M152.332 48.7192H143.406C143.172 48.7192 142.948 48.6264 142.783 48.4612C142.617 48.296 142.525 48.0719 142.525 47.8382V41.6998C142.525 41.6998 147.515 41.4832 148.352 40.4216C149.19 39.36 148.266 37.699 148.266 37.699C147.962 37.3235 147.89 34.6587 147.89 34.6587L147.587 34.5793C147.291 34.507 146.865 32.2972 146.865 31.4667C146.864 31.2275 146.932 30.9931 147.06 30.791C147.188 30.5888 147.37 30.4274 147.587 30.3257C147.587 30.3257 146.865 24.9384 152.303 24.9384C157.741 24.9384 157.011 30.3257 157.011 30.3257C157.228 30.4274 157.411 30.5888 157.539 30.791C157.667 30.9931 157.734 31.2275 157.733 31.4667C157.733 32.2972 157.343 34.507 157.011 34.5793L156.708 34.6587C156.708 34.6587 156.636 37.3235 156.332 37.699C156.332 37.699 155.401 39.36 156.246 40.4216C157.091 41.4832 162.074 41.6998 162.074 41.6998V47.8382C162.075 47.9542 162.052 48.0692 162.008 48.1765C161.965 48.2838 161.9 48.3813 161.818 48.4633C161.736 48.5453 161.638 48.6102 161.531 48.6541C161.424 48.6981 161.309 48.7202 161.193 48.7192H152.332Z" fill="#263238"/>
<path d="M193.221 48.8494H181.074C180.832 48.8494 180.601 48.755 180.428 48.5863C180.255 48.4176 180.155 48.188 180.15 47.9466C180.15 47.7015 180.247 47.4664 180.42 47.293C180.594 47.1197 180.829 47.0223 181.074 47.0223H193.221C193.466 47.0223 193.701 47.1197 193.874 47.293C194.048 47.4664 194.145 47.7015 194.145 47.9466C194.139 48.188 194.04 48.4176 193.867 48.5863C193.694 48.755 193.462 48.8494 193.221 48.8494Z" fill="#263238"/>
<path d="M193.221 23.8624H168.039C167.794 23.8624 167.559 23.765 167.385 23.5917C167.212 23.4183 167.115 23.1832 167.115 22.938C167.115 22.6929 167.212 22.4578 167.385 22.2844C167.559 22.1111 167.794 22.0137 168.039 22.0137H193.221C193.466 22.0137 193.701 22.1111 193.874 22.2844C194.048 22.4578 194.145 22.6929 194.145 22.938C194.145 23.1832 194.048 23.4183 193.874 23.5917C193.701 23.765 193.466 23.8624 193.221 23.8624Z" fill="#263238"/>
<path d="M182.482 30.109H168.039C167.916 30.1091 167.795 30.0847 167.682 30.0373C167.569 29.99 167.466 29.9206 167.38 29.8332C167.294 29.7458 167.226 29.6422 167.181 29.5284C167.135 29.4146 167.113 29.2928 167.114 29.1702C167.114 28.9251 167.212 28.6899 167.385 28.5166C167.559 28.3432 167.794 28.2458 168.039 28.2458H182.482C182.723 28.2515 182.953 28.3514 183.122 28.5241C183.29 28.6969 183.385 28.9288 183.385 29.1702C183.389 29.4142 183.296 29.6497 183.127 29.8256C182.958 30.0015 182.726 30.1033 182.482 30.109Z" fill="#263238"/>
<path d="M177.882 36.3918H168.039C167.794 36.3918 167.559 36.2944 167.385 36.121C167.212 35.9477 167.115 35.7126 167.115 35.4674C167.115 35.2222 167.212 34.9871 167.385 34.8138C167.559 34.6404 167.794 34.543 168.039 34.543H177.882C178.127 34.543 178.362 34.6404 178.536 34.8138C178.709 34.9871 178.806 35.2222 178.806 35.4674C178.806 35.7126 178.709 35.9477 178.536 36.121C178.362 36.2944 178.127 36.3918 177.882 36.3918Z" fill="#263238"/>
<path d="M182.482 42.6026H168.039C167.794 42.6026 167.559 42.5052 167.385 42.3319C167.212 42.1585 167.115 41.9234 167.115 41.6782C167.111 41.5544 167.132 41.4311 167.176 41.3156C167.221 41.2001 167.289 41.0948 167.375 41.0058C167.461 40.9169 167.564 40.8462 167.678 40.798C167.792 40.7497 167.915 40.7249 168.039 40.725H182.482C182.604 40.7278 182.725 40.7547 182.836 40.8042C182.948 40.8538 183.048 40.9249 183.132 41.0135C183.216 41.1021 183.282 41.2065 183.325 41.3206C183.368 41.4347 183.389 41.5562 183.385 41.6782C183.385 41.9197 183.291 42.1516 183.122 42.3243C182.953 42.4971 182.724 42.5969 182.482 42.6026Z" fill="#263238"/>
<path d="M79.5092 115.238V150.768L69.9478 160.33H44.5565V115.238H79.5092Z" stroke="#263238" stroke-width="1.45313" stroke-linecap="round" stroke-linejoin="round"/>
<path d="M79.5097 150.769L69.9482 160.33V150.769H79.5097Z" fill="#263238" stroke="#263238" stroke-width="1.45313" stroke-linecap="round" stroke-linejoin="round"/>
<path d="M53.071 120.987H74.1655" stroke="#263238" stroke-width="1.45313" stroke-linecap="round" stroke-linejoin="round"/>
<path d="M49.8936 124.958H74.1656" stroke="#263238" stroke-width="1.45313" stroke-linecap="round" stroke-linejoin="round"/>
<path d="M49.8936 128.93H74.1656" stroke="#263238" stroke-width="1.45313" stroke-linecap="round" stroke-linejoin="round"/>
<path d="M49.8936 132.902H74.1656" stroke="#263238" stroke-width="1.45313" stroke-linecap="round" stroke-linejoin="round"/>
<path d="M49.8936 136.874H74.1656" stroke="#263238" stroke-width="1.45313" stroke-linecap="round" stroke-linejoin="round"/>
<path d="M49.8936 140.846H74.1656" stroke="#263238" stroke-width="1.45313" stroke-linecap="round" stroke-linejoin="round"/>
<path d="M49.8936 144.811H74.1656" stroke="#263238" stroke-width="1.45313" stroke-linecap="round" stroke-linejoin="round"/>
<path d="M49.8936 148.782H70.9953" stroke="#263238" stroke-width="1.45313" stroke-linecap="round" stroke-linejoin="round"/>
<path d="M81.1706 120.987H85.2508V156.517L75.6966 166.078H50.3053V161.875" stroke="#263238" stroke-width="1.45313" stroke-linecap="round" stroke-linejoin="round"/>
<path d="M85.2505 156.517L75.6962 166.078V156.517H85.2505Z" fill="#263238" stroke="#263238" stroke-width="1.45313" stroke-linecap="round" stroke-linejoin="round"/>
<path d="M210.813 90.5327H126.205C124.513 90.5327 123.143 91.9036 123.143 93.5947V187.722C123.143 189.413 124.513 190.784 126.205 190.784H210.813C212.504 190.784 213.875 189.413 213.875 187.722V93.5947C213.875 91.9036 212.504 90.5327 210.813 90.5327Z" fill="#77B629" stroke="#263238" stroke-width="1.45313" stroke-linecap="round" stroke-linejoin="round"/>
<g opacity="0.5">
<path d="M212.048 123.954H124.97" stroke="white" stroke-width="1.45313" stroke-linecap="round" stroke-linejoin="round"/>
<path d="M212.048 135.09H124.97" stroke="white" stroke-width="1.45313" stroke-linecap="round" stroke-linejoin="round"/>
<path d="M212.048 146.226H124.97" stroke="white" stroke-width="1.45313" stroke-linecap="round" stroke-linejoin="round"/>
<path d="M212.048 157.362H124.97" stroke="white" stroke-width="1.45313" stroke-linecap="round" stroke-linejoin="round"/>
<path d="M212.048 168.497H124.97" stroke="white" stroke-width="1.45313" stroke-linecap="round" stroke-linejoin="round"/>
<path d="M212.048 179.64H124.97" stroke="white" stroke-width="1.45313" stroke-linecap="round" stroke-linejoin="round"/>
<path d="M212.048 112.811H124.97" stroke="white" stroke-width="1.45313" stroke-linecap="round" stroke-linejoin="round"/>
<path d="M212.048 101.675H124.97" stroke="white" stroke-width="1.45313" stroke-linecap="round" stroke-linejoin="round"/>
<path d="M191.243 188.992V92.3161" stroke="white" stroke-width="1.45313" stroke-linecap="round" stroke-linejoin="round"/>
<path d="M179.876 188.992V92.3161" stroke="white" stroke-width="1.45313" stroke-linecap="round" stroke-linejoin="round"/>
<path d="M168.509 188.992V92.3161" stroke="white" stroke-width="1.45313" stroke-linecap="round" stroke-linejoin="round"/>
<path d="M157.142 188.992V92.3161" stroke="white" stroke-width="1.45313" stroke-linecap="round" stroke-linejoin="round"/>
<path d="M145.775 188.992V92.3161" stroke="white" stroke-width="1.45313" stroke-linecap="round" stroke-linejoin="round"/>
<path d="M134.416 188.992V92.3161" stroke="white" stroke-width="1.45313" stroke-linecap="round" stroke-linejoin="round"/>
<path d="M202.609 188.992V92.3161" stroke="white" stroke-width="1.45313" stroke-linecap="round" stroke-linejoin="round"/>
</g>
<path d="M165.332 171.198C166.304 166.173 167.634 161.223 169.311 156.387C169.65 155.412 170.033 154.43 170.452 153.383C171.441 150.855 173.47 145.692 172.705 144.153C172.629 143.99 172.51 143.849 172.362 143.746C172.213 143.644 172.04 143.582 171.86 143.568C171.822 143.567 171.783 143.573 171.747 143.586C171.711 143.6 171.678 143.621 171.651 143.648C169.397 145.489 167.946 150.595 166.892 154.321L166.538 155.578C165.139 160.588 164.149 165.703 163.577 170.873" stroke="#263238" stroke-width="1.45313" stroke-linecap="round" stroke-linejoin="round"/>
<path d="M168.675 171.437C169.609 166.706 170.871 162.047 172.452 157.492C172.77 156.56 173.174 155.585 173.557 154.56C175.139 150.537 177.103 145.554 175.688 142.702C175.336 141.991 174.796 141.39 174.126 140.964C173.456 140.539 172.682 140.306 171.889 140.29C171.051 140.282 170.238 140.571 169.593 141.106C166.538 143.597 164.992 149.05 163.75 153.426L163.396 154.675C161.998 159.643 161.001 164.714 160.414 169.841" stroke="#263238" stroke-width="1.45313" stroke-linecap="round" stroke-linejoin="round"/>
<path d="M172.099 171.112C172.979 166.858 174.134 162.665 175.558 158.561C177.276 153.657 181.147 146.284 178.634 141.229C176.576 137.091 171.189 135.552 167.513 138.557C163.31 141.98 161.642 148.847 160.226 153.765C158.891 158.5 157.908 163.328 157.287 168.209" stroke="#263238" stroke-width="1.45313" stroke-linecap="round" stroke-linejoin="round"/>
<path d="M175.695 170.115C176.48 166.572 177.474 163.078 178.67 159.651C178.952 158.835 179.313 157.925 179.696 156.95C181.747 151.729 184.303 145.222 181.581 139.748C180.682 137.942 179.301 136.419 177.59 135.349C175.88 134.278 173.907 133.701 171.889 133.682C169.534 133.675 167.251 134.49 165.433 135.986C160.768 139.792 158.933 146.356 157.41 151.621L157.063 152.841C155.846 157.128 154.922 161.493 154.297 165.905" stroke="#263238" stroke-width="1.45313" stroke-linecap="round" stroke-linejoin="round"/>
<path d="M179.537 168.216C180.208 165.573 180.945 163.125 181.775 160.741C182.05 159.969 182.389 159.095 182.75 158.178C184.917 152.632 187.899 145.063 184.527 138.289C183.356 135.933 181.556 133.947 179.325 132.553C177.094 131.158 174.52 130.409 171.889 130.389C168.775 130.378 165.756 131.456 163.353 133.436C157.879 137.899 155.864 144.991 154.239 150.725L153.893 151.938C152.874 155.517 152.057 159.151 151.445 162.821" stroke="#263238" stroke-width="1.45313" stroke-linecap="round" stroke-linejoin="round"/>
<path d="M183.501 165.002C184.224 159.716 188.484 153.448 188.903 146.118C189.286 139.401 187.076 135.097 185.509 132.938C185.137 132.406 184.9 131.791 184.819 131.147C184.739 130.502 184.817 129.848 185.047 129.241C186.094 126.163 186.059 122.82 184.946 119.766" stroke="#263238" stroke-width="1.45313" stroke-linecap="round" stroke-linejoin="round"/>
<path d="M173.492 109.894C179.053 113.375 182.664 118.856 182.946 125.94C183.039 128.482 180.974 129.356 178.389 128.569C172.98 126.922 160.089 122.705 152.232 144.796C150.727 149.38 149.615 154.084 148.91 158.857" stroke="#263238" stroke-width="1.45313" stroke-linecap="round" stroke-linejoin="round"/>
<path d="M162.443 110.255C165.913 110.208 169.342 111.011 172.431 112.595C177.71 115.433 181.032 122.106 179.335 123.803C177.45 125.688 173.947 121.138 163.237 125.529C158.088 127.637 154.434 131.934 151.95 136.816C150.83 139.046 149.883 141.359 149.119 143.734C148.123 146.79 147.303 149.901 146.664 153.05" stroke="#263238" stroke-width="1.45313" stroke-linecap="round" stroke-linejoin="round"/>
<path d="M156.355 114.328C158.242 113.831 160.182 113.571 162.133 113.555C171.586 113.339 175.132 118.379 174.092 119.657C173.218 120.733 171.275 120.127 168.611 120.452C160.92 121.398 154.839 125.774 150.744 132.245C148.725 135.521 147.114 139.033 145.949 142.702C145.732 143.359 145.523 144.023 145.321 144.688" stroke="#263238" stroke-width="1.45313" stroke-linecap="round" stroke-linejoin="round"/>
<path d="M151.9 119.766C155.05 117.221 159.018 115.907 163.064 116.068C164.263 116.068 167.224 116.458 167.621 117.592C168.148 119.08 163.339 117.058 156.37 121.701C147.437 127.659 146.353 133.307 146.353 133.307" stroke="#263238" stroke-width="1.45313" stroke-linecap="round" stroke-linejoin="round"/>
<path d="M187.293 161.002C187.293 161.002 192.138 150.537 191.626 142.449C191.308 137.242 188.737 133.978 188.333 131.66C187.928 129.342 189.055 128.771 188.751 126.648" stroke="#263238" stroke-width="1.45313" stroke-linecap="round" stroke-linejoin="round"/>
<path d="M129.252 111.743V96.967H144.028" stroke="#263238" stroke-width="1.45313" stroke-linecap="round" stroke-linejoin="round"/>
<path d="M144.028 184.349H129.252V169.574" stroke="#263238" stroke-width="1.45313" stroke-linecap="round" stroke-linejoin="round"/>
<path d="M207.774 111.743V96.967H192.998" stroke="#263238" stroke-width="1.45313" stroke-linecap="round" stroke-linejoin="round"/>
<path d="M192.998 184.349H207.774V169.574" stroke="#263238" stroke-width="1.45313" stroke-linecap="round" stroke-linejoin="round"/>
<path d="M270.536 320.203C266.68 314.426 262.636 308.331 259.314 303.283C255.067 296.848 252.005 292.147 252.005 292.147C250.381 284.542 248.077 281.56 245.759 275.313C243.441 269.066 245.354 263.499 246.315 255.764C247.275 248.03 245.759 240.823 244.95 235.934C244.141 231.044 245.087 226.43 244.95 225.347C244.813 224.263 240.198 218.558 238.45 214.348C237.659 212.47 236.552 210.741 235.179 209.235C233.662 207.499 231.764 206.137 229.633 205.256C228.745 204.907 227.819 204.664 226.874 204.534C224.708 204.223 222.96 204.57 221.212 204.57C218.764 204.57 213.608 200.367 210.214 199.695C209.584 199.57 208.947 199.481 208.307 199.428C205.498 199.161 202.53 199.428 199.244 199.688C195.958 199.948 192.138 196.836 189.062 195.861H189.011C188.33 195.623 187.604 195.544 186.888 195.63C183.631 196.171 177.5 196.713 177.5 196.713C177.5 196.713 176.958 192.51 176.684 186.805C176.633 185.815 176.561 184.862 176.474 183.916C176.156 180.392 175.651 177.243 175.571 174.362C175.571 173.64 175.571 172.867 175.571 172.145C175.839 168.086 175.716 164.923 175.571 158.684C175.571 158.474 175.571 158.25 175.571 158.026C175.571 156.084 175.571 154.228 175.456 152.552C175.232 148.487 174.329 145.482 170.285 144.861C166.754 144.32 164.313 146.082 162.818 151.924C161.323 157.766 160.24 157.355 159.835 165.905C159.431 174.456 157.517 179.901 157.792 184.241C158.066 188.581 157.113 197.002 157.113 197.002C155.488 196.186 153.993 196.864 153.712 197.543C153.43 198.222 152.231 204.88 151.271 209.632C150.433 213.857 146.584 217.764 145.168 220.674V220.739C145.017 221.053 144.891 221.379 144.793 221.714C143.977 224.704 144.388 231.102 144.388 239.234C144.388 247.365 142.352 255.8 144.388 261.224C144.822 262.329 145.429 263.357 146.187 264.271C149.314 268.135 155.055 271.493 160.276 277.653C166.776 285.395 171.412 291.1 175.752 293.685C178.865 295.519 180.229 297.021 180.807 299C181.034 299.858 181.153 300.741 181.161 301.629C181.219 303.362 182.158 304.684 183.746 306.879C186.225 310.237 188.4 313.809 190.246 317.553C191.986 321.041 194.651 327.663 197.468 335L270.536 320.203Z" fill="white"/>
<path opacity="0.4" d="M175.55 172.108C175.506 172.831 175.499 173.553 175.55 174.326C170.357 173.343 160.334 175.907 160.182 178.969C160.009 182.703 159.554 191.528 161.453 193.586C163.352 195.644 167.425 196.958 167.425 196.958C167.125 196.981 166.826 197.02 166.53 197.074H166.429C165.129 197.348 163.945 198.013 163.035 198.98C159.063 203.053 158.897 212.08 160.196 216.428C165.634 234.482 156.831 248.766 153.697 247.033C150.563 245.3 150.31 229.781 151.256 226.148C151.828 224.03 152.107 221.843 152.087 219.649C150.7 219.186 147.79 219.858 145.118 220.689V220.624C146.562 217.735 150.382 213.806 151.22 209.582C152.18 204.83 153.386 198.171 153.661 197.493C153.935 196.814 155.437 196.135 157.062 196.951C157.062 196.951 158.016 188.538 157.741 184.19C157.467 179.843 159.373 174.412 159.785 165.855C160.196 157.297 161.273 157.716 162.767 151.873C164.262 146.031 166.703 144.269 170.235 144.811C174.279 145.432 175.181 148.421 175.405 152.502C174.951 152.071 174.468 151.67 173.961 151.303C172.682 150.31 171.075 149.835 169.462 149.974C167.591 150.234 165.952 152.141 164.912 154.105C163.417 156.994 163.172 160.092 165.273 159.03C167.656 157.838 172.574 158.236 175.571 158.633C175.694 164.865 175.817 168.05 175.55 172.108Z" fill="#77B629"/>
<path opacity="0.4" d="M181.096 301.607C181.088 300.72 180.969 299.837 180.742 298.978C180.172 297 178.807 295.498 175.687 293.663C171.354 291.078 166.725 285.373 160.211 277.631C154.99 271.442 149.249 268.113 146.122 264.25C150.057 266.38 155.401 265.282 157.084 268.655C159.532 273.522 171.029 280.932 171.029 280.932C182.252 292.038 181.096 301.607 181.096 301.607Z" fill="#77B629"/>
<path opacity="0.4" d="M188.946 195.831C187.624 195.564 184.043 204.396 183.703 207.531C182.8 215.655 186.967 240.7 181.609 240.136C179.392 239.905 176.792 228.206 176.64 222.754C176.156 206.195 176.821 199.312 176.821 199.312C176.821 199.312 175.636 190.141 176.431 183.894C176.518 184.833 176.59 185.786 176.64 186.783C176.915 192.488 177.456 196.691 177.456 196.691C177.456 196.691 183.566 196.149 186.845 195.608C187.553 195.523 188.271 195.6 188.946 195.831Z" fill="#77B629"/>
<path opacity="0.4" d="M208.242 199.421C205.354 199.681 202.465 202.504 200.089 203.031C197.2 203.645 191.892 197.139 188.997 195.868C192.073 196.842 195.929 199.904 199.179 199.695C202.429 199.486 205.433 199.153 208.242 199.421Z" fill="#77B629"/>
<path opacity="0.4" d="M226.838 204.527C225.407 206.319 224.255 208.318 223.422 210.455C221.097 217.973 223.292 246.419 219.544 241.761C214.662 235.71 219.761 214.716 216.201 206.7C215.074 204.137 211.052 200.035 210.178 199.688C213.572 200.36 218.728 204.563 221.176 204.563C222.924 204.563 224.679 204.216 226.838 204.527Z" fill="#77B629"/>
<path opacity="0.4" d="M259.299 303.275C255.493 298.986 251.507 294.898 248.9 293.367C242.552 289.626 240.732 285.756 240.184 279.307C239.635 272.858 241.274 272.995 243.173 266.618C245.073 260.241 241.541 252.355 241.816 254.06C242.09 255.764 239.093 267.564 236.891 268.149C234.688 268.734 233.944 260.776 233.67 254.291C233.395 247.806 236.927 217.605 235.937 211.683C235.803 210.823 235.535 209.99 235.143 209.213C236.516 210.719 237.622 212.448 238.414 214.326C240.184 218.536 244.798 224.242 244.914 225.325C245.029 226.408 244.098 231.03 244.914 235.912C245.73 240.794 247.225 247.994 246.279 255.742C245.333 263.491 243.39 269.045 245.723 275.291C248.055 281.538 250.344 284.521 251.969 292.125C251.991 292.14 255.053 296.841 259.299 303.275Z" fill="#77B629"/>
<path opacity="0.4" d="M201.981 215.489C203.425 217.006 204.335 236.88 205.151 241.769C205.967 246.658 203.433 258.378 201.981 254.811C200.529 251.243 196.103 209.307 201.981 215.489Z" fill="#77B629"/>
<path d="M196.384 332.191C193.987 325.995 191.77 320.571 190.253 317.531C188.408 313.787 186.233 310.215 183.754 306.857C182.165 304.691 181.226 303.34 181.168 301.607C181.16 300.72 181.041 299.836 180.815 298.978V298.978C180.244 297 178.879 295.498 175.759 293.663C171.426 291.078 166.797 285.373 160.283 277.631C155.062 271.442 149.321 268.113 146.194 264.249C145.436 263.336 144.829 262.307 144.396 261.202C142.359 255.778 144.396 247.351 144.396 239.212C144.396 231.073 143.984 224.682 144.8 221.692C144.898 221.358 145.024 221.031 145.176 220.717V220.652C146.62 217.764 150.44 213.835 151.278 209.61C152.238 204.859 153.444 198.2 153.719 197.521C153.993 196.843 155.495 196.164 157.12 196.98C157.12 196.98 158.074 188.567 157.799 184.219C157.525 179.872 159.431 174.441 159.843 165.883C160.254 157.326 161.33 157.745 162.825 151.902C164.32 146.06 166.761 144.298 170.293 144.839C174.337 145.461 175.239 148.45 175.463 152.531C175.557 154.206 175.543 156.062 175.579 158.005C175.579 158.228 175.579 158.452 175.579 158.662C175.709 164.88 175.832 168.05 175.579 172.123C175.535 172.845 175.528 173.567 175.579 174.34C175.658 177.229 176.164 180.37 176.482 183.894C176.568 184.833 176.64 185.786 176.691 186.783C176.965 192.488 177.507 196.691 177.507 196.691C177.507 196.691 183.616 196.149 186.895 195.608C187.611 195.522 188.337 195.601 189.018 195.839H189.069C192.145 196.814 196.002 199.876 199.251 199.666C202.501 199.457 205.505 199.139 208.315 199.406C208.955 199.459 209.591 199.549 210.221 199.673C213.615 200.345 218.772 204.548 221.22 204.548C222.967 204.548 224.722 204.201 226.881 204.512C227.826 204.643 228.752 204.885 229.64 205.234C231.771 206.115 233.669 207.477 235.186 209.213C236.56 210.719 237.666 212.448 238.458 214.326C240.227 218.536 244.842 224.241 244.957 225.325C245.073 226.408 244.141 231.03 244.957 235.912C245.773 240.794 247.268 247.994 246.322 255.742C245.376 263.491 243.433 269.045 245.766 275.291C248.099 281.538 250.388 284.521 252.013 292.125C252.013 292.125 255.075 296.826 259.321 303.261C262.267 307.731 265.777 313.046 269.229 318.21" stroke="#263238" stroke-width="1.45313" stroke-linecap="round" stroke-linejoin="round"/>
<path d="M157.084 196.958C157.084 202.938 156.542 210.354 155.64 213.438C154.737 216.522 155.344 226.834 153.683 231.174" stroke="#263238" stroke-width="1.45313" stroke-linecap="round" stroke-linejoin="round"/>
<path d="M160.168 201.667C160.168 201.667 164.328 196.958 167.39 196.958C170.452 196.958 173.55 198.951 176.778 199.312C180.006 199.673 183.429 197.269 186.556 196.691" stroke="#263238" stroke-width="1.45313" stroke-linecap="round" stroke-linejoin="round"/>
<path d="M162.515 179.879C162.515 179.879 168.133 177.828 171.029 179.879" stroke="#263238" stroke-width="1.45313" stroke-linecap="round" stroke-linejoin="round"/>
<path d="M166.776 177.214C166.776 177.214 168.494 176.745 171.029 177.972" stroke="#263238" stroke-width="1.45313" stroke-linecap="round" stroke-linejoin="round"/>
<path d="M165.273 162.771C167.176 162.347 169.148 162.347 171.051 162.771" stroke="#263238" stroke-width="1.45313" stroke-linecap="round" stroke-linejoin="round"/>
<path d="M145.111 220.624C145.111 220.624 148.721 218.869 150.166 218.688" stroke="#263238" stroke-width="1.45313" stroke-linecap="round" stroke-linejoin="round"/>
<path d="M154.65 226.184C154.65 226.184 152.484 229.549 152.08 231.174" stroke="#263238" stroke-width="1.45313" stroke-linecap="round" stroke-linejoin="round"/>
<path d="M165.273 148.082C165.273 148.082 164.407 154.993 165.273 155.607C166.14 156.221 172.835 156.806 173.383 155.607C173.932 154.408 174.026 149.346 174.026 149.346C174.026 149.346 170.018 142.463 165.273 148.082Z" stroke="#263238" stroke-width="1.45313" stroke-linecap="round" stroke-linejoin="round"/>
<path d="M151.249 209.589C151.249 209.589 156.803 206.787 156.933 202.779C157.063 198.771 155.43 198.814 153.365 198.793" stroke="#263238" stroke-width="1.45313" stroke-linecap="round" stroke-linejoin="round"/>
<path d="M237.83 218.688C238.01 225.022 236.205 243.487 236.017 246.203C235.829 248.918 236.017 255.858 236.017 255.858" stroke="#263238" stroke-width="1.45313" stroke-linecap="round" stroke-linejoin="round"/>
<path d="M198.182 204.187C204.155 212.853 198.182 209.589 201.981 251.092" stroke="#263238" stroke-width="1.45313" stroke-linecap="round" stroke-linejoin="round"/>
<path d="M251.991 292.14C251.991 292.14 246.698 288.023 245.788 285.64" stroke="#263238" stroke-width="1.45313" stroke-linecap="round" stroke-linejoin="round"/>
<path d="M178.085 290.19C179.674 292.826 180.677 298.603 180.735 298.957" stroke="#263238" stroke-width="1.45313" stroke-linecap="round" stroke-linejoin="round"/>
</svg>
