<svg width="198" height="198" viewBox="0 0 198 198" fill="none" xmlns="http://www.w3.org/2000/svg">
<path d="M158.812 183.975L142.312 167.475L150.975 158.812L167.475 175.312C169.95 177.788 169.95 181.5 167.475 183.975C165.412 186.037 161.287 186.037 158.812 183.975ZM39.1874 183.975L55.6874 167.475L47.0249 158.812L30.525 175.312C28.05 177.788 28.05 181.5 30.525 183.975C32.5875 186.037 36.7125 186.037 39.1874 183.975Z" fill="#AECF49"/>
<path d="M99 181.5C144.563 181.5 181.5 144.563 181.5 99C181.5 53.4365 144.563 16.5 99 16.5C53.4365 16.5 16.5 53.4365 16.5 99C16.5 144.563 53.4365 181.5 99 181.5Z" fill="#77B629"/>
<path d="M99 165C135.451 165 165 135.451 165 99C165 62.5492 135.451 33 99 33C62.5492 33 33 62.5492 33 99C33 135.451 62.5492 165 99 165Z" fill="#EEEEEE"/>
<path d="M62.271 138.105L59.9363 135.77L97.8492 97.8575L100.184 100.188L62.271 138.105Z" fill="#77B629"/>
<path d="M94.875 45.375H103.125V99H94.875V45.375Z" fill="#AECF49"/>
<path d="M129.051 122.323L122.348 129.03L95.5186 102.201L102.226 95.4898L129.051 122.323Z" fill="#AECF49"/>
<path d="M99 107.25C103.556 107.25 107.25 103.556 107.25 99C107.25 94.4437 103.556 90.75 99 90.75C94.4437 90.75 90.75 94.4437 90.75 99C90.75 103.556 94.4437 107.25 99 107.25Z" fill="#AECF49"/>
<path d="M99 103.125C101.278 103.125 103.125 101.278 103.125 99C103.125 96.7218 101.278 94.875 99 94.875C96.7218 94.875 94.875 96.7218 94.875 99C94.875 101.278 96.7218 103.125 99 103.125Z" fill="#77B629"/>
<path d="M90.7499 4.125H107.25V16.5H90.7499V4.125ZM183.15 66.825C193.462 52.3875 191.812 32.175 179.025 19.3875C166.237 6.6 146.025 4.95 131.587 15.2625L183.15 66.825ZM14.8499 66.825C4.5374 52.3875 6.1874 32.175 18.9749 19.3875C31.7624 6.6 51.9749 4.95 66.4124 15.2625L14.8499 66.825Z" fill="#AECF49"/>
</svg>
