<svg id="svg" version="1.1" xmlns="http://www.w3.org/2000/svg" xmlns:xlink="http://www.w3.org/1999/xlink" width="400" height="290.90909090909093" viewBox="0, 0, 400,290.90909090909093"><g id="svgg"><path id="path0" d="M180.417 117.772 L 180.417 119.179 181.653 119.131 C 183.355 119.065,183.323 118.872,181.317 117.077 C 180.407 116.263,180.417 116.255,180.417 117.772 M155.863 118.251 C 155.391 118.794,155.396 119.167,155.875 119.166 C 156.201 119.166,156.250 119.079,156.253 118.500 C 156.255 118.133,156.250 117.833,156.242 117.833 C 156.233 117.833,156.063 118.021,155.863 118.251 M180.937 124.864 C 180.042 125.875,180.056 126.011,181.001 125.479 C 181.381 125.266,181.611 125.065,181.512 125.032 C 181.254 124.946,181.292 124.655,181.609 124.305 C 181.761 124.137,181.844 124.000,181.793 124.000 C 181.743 124.000,181.357 124.389,180.937 124.864 M156.238 125.177 C 156.238 125.442,156.315 125.499,156.577 125.425 C 156.764 125.372,157.235 125.282,157.625 125.225 C 158.684 125.070,158.479 124.833,157.286 124.833 C 156.339 124.833,156.238 124.866,156.238 125.177 M180.399 129.597 C 180.454 129.742,180.500 132.517,180.500 135.764 L 180.500 141.667 180.917 141.667 C 181.427 141.667,181.456 141.198,181.082 138.918 C 180.779 137.067,180.796 137.013,181.874 136.500 C 183.275 135.834,183.500 135.350,183.500 133.005 L 183.500 131.060 182.930 130.394 C 182.181 129.520,180.120 128.871,180.399 129.597 M155.718 130.167 C 154.362 131.493,154.706 136.332,156.156 136.333 C 156.208 136.333,156.250 134.833,156.250 133.000 C 156.250 131.167,156.245 129.667,156.240 129.667 C 156.234 129.667,156.000 129.892,155.718 130.167 M182.333 164.089 L 182.333 170.511 184.125 170.464 L 185.917 170.417 185.883 169.083 C 185.849 167.772,185.547 164.944,185.073 161.500 C 184.940 160.537,184.832 159.479,184.832 159.147 C 184.834 158.142,184.322 157.667,183.238 157.667 L 182.333 157.667 182.333 164.089 M153.631 159.833 C 152.992 164.126,152.892 164.997,152.563 169.125 L 152.453 170.500 153.148 170.500 C 154.065 170.500,154.010 170.936,153.960 163.999 L 153.917 157.917 153.631 159.833 M167.370 176.093 C 166.954 176.384,166.848 177.448,167.200 177.800 C 167.566 178.166,168.465 178.042,168.765 177.585 C 169.432 176.566,168.349 175.407,167.370 176.093 M232.526 176.145 C 231.792 176.781,232.206 178.000,233.155 178.000 C 233.849 178.000,234.167 177.666,234.167 176.938 C 234.167 175.971,233.241 175.524,232.526 176.145 M253.195 176.277 C 251.851 176.565,251.002 178.752,251.776 179.933 C 252.096 180.422,253.309 181.071,254.204 181.234 C 255.865 181.536,256.449 182.167,255.589 182.731 C 254.905 183.179,253.278 182.820,252.668 182.085 C 252.327 181.674,251.523 182.153,251.506 182.778 C 251.502 182.885,251.415 183.001,251.311 183.035 C 251.063 183.118,251.493 183.833,251.790 183.833 C 251.906 183.833,252.000 183.901,252.000 183.984 C 252.000 184.919,256.325 184.829,257.383 183.872 C 259.291 182.145,258.077 179.977,254.757 179.181 C 253.440 178.865,253.077 178.321,253.958 177.983 C 254.543 177.758,255.490 177.907,256.219 178.337 C 256.765 178.659,257.333 178.642,257.333 178.304 C 257.333 178.215,257.446 178.030,257.583 177.893 C 258.605 176.871,255.596 175.762,253.195 176.277 M151.333 180.417 L 151.333 184.500 152.333 184.500 L 153.333 184.500 153.333 180.417 L 153.333 176.333 152.333 176.333 L 151.333 176.333 151.333 180.417 M173.997 177.708 C 173.996 178.602,173.942 178.999,173.843 178.843 C 173.347 178.060,171.136 178.144,170.353 178.976 C 167.971 181.507,170.614 186.069,173.458 184.335 C 173.900 184.066,174.000 184.050,174.000 184.252 C 174.000 184.438,174.207 184.500,174.833 184.500 L 175.667 184.500 175.667 180.417 L 175.667 176.333 174.833 176.333 L 174.000 176.333 173.997 177.708 M196.833 180.417 L 196.833 184.500 197.833 184.500 L 198.833 184.500 198.833 183.083 L 198.833 181.667 199.386 181.667 C 199.968 181.667,200.022 181.733,201.089 183.750 C 201.442 184.416,201.444 184.417,202.554 184.466 C 203.881 184.525,203.867 184.602,202.851 182.833 L 202.037 181.417 202.518 181.163 C 203.340 180.728,203.584 180.215,203.582 178.917 C 203.579 176.673,203.032 176.333,199.425 176.333 L 196.833 176.333 196.833 180.417 M190.500 177.583 L 190.500 178.500 189.917 178.500 C 189.336 178.500,189.333 178.504,189.333 179.250 C 189.333 179.996,189.336 180.000,189.917 180.000 L 190.500 180.000 190.500 181.925 C 190.500 183.792,190.513 183.861,190.941 184.258 C 191.452 184.732,192.858 184.827,193.390 184.424 C 193.872 184.058,193.447 183.000,192.818 183.000 C 192.251 183.000,192.167 182.772,192.167 181.236 L 192.167 180.000 192.750 180.000 C 193.330 180.000,193.333 179.996,193.333 179.250 C 193.333 178.504,193.330 178.500,192.750 178.500 L 192.167 178.500 192.167 177.583 L 192.167 176.667 191.333 176.667 L 190.500 176.667 190.500 177.583 M228.833 177.568 L 228.833 178.469 227.769 178.443 C 226.931 178.422,226.629 178.484,226.352 178.734 C 226.041 179.014,226.000 179.019,226.000 178.776 C 226.000 178.556,225.831 178.500,225.167 178.500 L 224.333 178.500 224.333 181.500 L 224.333 184.500 225.167 184.500 L 226.000 184.500 226.003 182.625 C 226.004 181.594,226.060 180.673,226.128 180.580 C 226.362 180.255,227.187 180.000,228.008 180.000 L 228.833 180.000 228.833 181.988 C 228.833 183.937,228.842 183.983,229.272 184.321 C 229.793 184.731,231.238 184.791,231.724 184.424 C 232.206 184.058,231.780 183.000,231.151 183.000 C 230.584 183.000,230.500 182.772,230.500 181.236 L 230.500 180.000 231.083 180.000 C 231.664 180.000,231.667 179.996,231.667 179.250 C 231.667 178.504,231.664 178.500,231.083 178.500 L 230.500 178.500 230.500 177.583 L 230.500 176.667 229.667 176.667 L 228.833 176.667 228.833 177.568 M270.667 177.583 L 270.667 178.500 270.083 178.500 C 269.503 178.500,269.500 178.504,269.500 179.250 C 269.500 179.996,269.503 180.000,270.083 180.000 L 270.667 180.000 270.667 181.988 C 270.667 183.937,270.675 183.983,271.106 184.321 C 271.617 184.723,273.069 184.794,273.535 184.440 C 274.006 184.081,273.597 183.000,272.990 183.000 C 272.417 183.000,272.333 182.776,272.333 181.236 L 272.333 180.000 272.917 180.000 C 273.497 180.000,273.500 179.996,273.500 179.250 C 273.500 178.504,273.497 178.500,272.917 178.500 L 272.333 178.500 272.333 177.583 L 272.333 176.667 271.500 176.667 L 270.667 176.667 270.667 177.583 M201.362 178.276 C 202.214 179.047,201.514 179.833,199.974 179.833 L 198.833 179.833 198.833 178.917 L 198.833 178.000 199.945 178.000 C 200.746 178.000,201.142 178.077,201.362 178.276 M157.230 178.391 C 156.852 178.497,156.421 178.686,156.271 178.812 C 156.038 179.009,156.000 179.003,156.000 178.770 C 156.000 178.557,155.824 178.500,155.167 178.500 L 154.333 178.500 154.333 181.500 L 154.333 184.500 155.167 184.500 L 156.000 184.500 156.000 182.590 C 156.000 180.523,156.162 180.133,157.121 179.892 C 158.086 179.650,158.333 180.218,158.333 182.678 L 158.333 184.500 159.167 184.500 L 160.000 184.500 160.000 181.833 C 160.000 179.419,159.970 179.136,159.677 178.844 C 159.407 178.574,158.283 178.132,158.000 178.184 C 157.954 178.192,157.608 178.286,157.230 178.391 M163.167 178.351 C 160.710 179.028,159.884 182.109,161.684 183.879 C 163.177 185.347,167.455 184.496,166.038 183.013 C 165.497 182.447,165.148 182.371,164.833 182.750 C 164.477 183.180,163.412 183.069,163.012 182.561 C 161.889 181.133,163.424 179.163,164.862 180.187 L 165.359 180.541 165.929 179.988 L 166.500 179.435 166.067 178.983 C 165.829 178.734,165.360 178.481,165.025 178.421 C 164.691 178.360,164.267 178.283,164.083 178.250 C 163.900 178.217,163.487 178.262,163.167 178.351 M186.230 178.391 C 185.852 178.497,185.421 178.686,185.271 178.812 C 185.038 179.009,185.000 179.003,185.000 178.770 C 185.000 178.557,184.824 178.500,184.167 178.500 L 183.333 178.500 183.333 181.500 L 183.333 184.500 184.167 184.500 L 185.000 184.500 185.000 182.595 C 185.000 180.594,185.059 180.414,185.862 179.985 C 186.919 179.419,187.333 180.177,187.333 182.678 L 187.333 184.500 188.167 184.500 L 189.000 184.500 189.000 181.984 C 189.000 179.002,188.871 178.633,187.731 178.346 C 187.339 178.247,186.996 178.174,186.968 178.183 C 186.940 178.192,186.608 178.286,186.230 178.391 M213.282 178.399 C 212.933 178.507,212.578 178.705,212.493 178.839 C 212.364 179.043,212.338 179.035,212.336 178.792 C 212.334 178.553,212.182 178.500,211.500 178.500 L 210.667 178.500 210.667 182.667 L 210.667 186.833 211.500 186.833 L 212.333 186.833 212.336 185.375 C 212.337 184.573,212.395 184.006,212.464 184.115 C 212.994 184.947,215.394 184.774,216.128 183.849 C 218.101 181.363,216.098 177.527,213.282 178.399 M219.436 178.377 C 216.617 178.956,216.272 183.301,218.957 184.423 C 219.832 184.789,221.132 184.733,222.005 184.292 C 224.387 183.088,223.956 178.885,221.403 178.432 C 221.044 178.368,220.637 178.292,220.500 178.263 C 220.362 178.234,219.884 178.285,219.436 178.377 M238.115 178.351 C 237.766 178.433,237.335 178.577,237.157 178.672 C 236.934 178.791,236.833 178.791,236.833 178.673 C 236.833 178.577,236.463 178.500,236.000 178.500 L 235.167 178.500 235.167 181.500 L 235.167 184.500 236.000 184.500 L 236.833 184.500 236.833 182.436 L 236.833 180.371 237.400 180.102 C 238.767 179.454,239.167 180.021,239.167 182.606 L 239.167 184.500 240.000 184.500 L 240.833 184.500 240.833 181.939 C 240.833 179.106,240.691 178.661,239.711 178.427 C 239.457 178.367,239.137 178.292,239.000 178.261 C 238.862 178.229,238.464 178.270,238.115 178.351 M243.402 178.356 C 241.298 178.829,240.745 182.718,242.592 184.054 C 243.227 184.513,244.617 184.594,245.341 184.214 L 245.932 183.904 245.861 184.384 C 245.696 185.508,243.375 185.845,242.752 184.836 C 242.494 184.420,241.833 185.231,241.833 185.962 C 241.833 186.858,244.815 187.358,246.132 186.683 C 247.564 185.949,247.577 185.908,247.637 181.987 L 247.691 178.500 246.845 178.500 C 246.152 178.500,246.000 178.553,245.997 178.792 C 245.995 179.032,245.968 179.041,245.843 178.843 C 245.715 178.641,244.431 178.138,244.167 178.187 C 244.121 178.195,243.777 178.271,243.402 178.356 M283.425 178.354 C 283.063 178.439,282.632 178.631,282.467 178.780 C 282.189 179.031,282.167 179.031,282.167 178.776 C 282.167 178.556,281.998 178.500,281.333 178.500 L 280.500 178.500 280.500 181.500 L 280.500 184.500 281.333 184.500 L 282.167 184.500 282.167 182.595 C 282.167 180.599,282.227 180.414,283.019 179.990 C 283.932 179.501,284.161 180.030,284.164 182.625 L 284.167 184.500 285.000 184.500 L 285.833 184.500 285.833 182.590 C 285.833 180.722,285.843 180.671,286.290 180.257 C 287.417 179.212,288.000 180.013,288.000 182.606 L 288.000 184.500 288.833 184.500 L 289.667 184.500 289.667 181.992 C 289.667 179.022,289.543 178.636,288.507 178.373 C 287.745 178.180,286.607 178.383,286.125 178.800 C 285.865 179.025,285.802 179.025,285.542 178.799 C 285.310 178.599,284.171 178.112,284.100 178.183 C 284.091 178.193,283.787 178.270,283.425 178.354 M178.084 178.596 C 175.881 179.745,175.827 183.196,177.995 184.292 C 179.347 184.975,182.174 184.585,182.163 183.716 C 182.153 182.947,181.593 182.584,180.913 182.907 C 180.046 183.319,179.077 183.174,178.544 182.554 L 178.139 182.083 180.403 182.037 L 182.667 181.991 182.667 181.334 C 182.667 180.064,181.659 178.640,180.612 178.431 C 179.736 178.256,178.593 178.330,178.084 178.596 M205.417 178.559 C 203.015 179.677,203.055 183.411,205.479 184.430 C 206.582 184.894,209.153 184.542,209.402 183.894 C 209.619 183.329,208.823 182.496,208.401 182.846 C 207.857 183.298,206.355 183.142,205.874 182.583 L 205.444 182.083 207.638 182.037 L 209.833 181.990 209.833 181.104 C 209.833 180.210,209.384 179.325,208.605 178.683 C 208.198 178.348,206.049 178.264,205.417 178.559 M265.336 178.615 C 263.557 179.539,264.124 181.644,266.287 182.145 C 267.861 182.510,268.181 182.788,267.424 183.133 C 266.973 183.338,265.333 182.967,265.333 182.660 C 265.333 182.376,264.660 182.490,264.553 182.792 C 264.496 182.952,264.336 183.216,264.196 183.378 C 263.443 184.254,267.065 185.093,268.498 184.375 C 270.153 183.545,269.718 181.052,267.863 180.741 C 266.816 180.566,266.167 180.317,266.167 180.090 C 266.167 179.624,267.796 179.636,268.184 180.105 C 268.530 180.521,269.314 179.977,269.328 179.311 C 269.344 178.491,266.522 177.999,265.336 178.615 M275.417 178.596 C 273.214 179.745,273.160 183.196,275.328 184.292 C 276.680 184.975,279.507 184.585,279.496 183.716 C 279.487 182.947,278.926 182.584,278.246 182.907 C 277.379 183.319,276.411 183.174,275.877 182.554 L 275.472 182.083 277.736 182.037 L 280.000 181.991 280.000 181.334 C 280.000 180.064,278.992 178.640,277.945 178.431 C 277.069 178.256,275.927 178.330,275.417 178.596 M167.167 181.500 L 167.167 184.500 168.000 184.500 L 168.833 184.500 168.833 181.500 L 168.833 178.500 168.000 178.500 L 167.167 178.500 167.167 181.500 M232.333 181.500 L 232.333 184.500 233.167 184.500 L 234.000 184.500 234.000 181.500 L 234.000 178.500 233.167 178.500 L 232.333 178.500 232.333 181.500 M257.836 178.708 C 257.839 178.959,258.270 180.222,258.491 180.627 C 258.578 180.786,258.844 181.442,259.082 182.083 C 259.321 182.725,259.633 183.523,259.775 183.857 C 260.169 184.780,259.565 185.702,258.854 185.263 C 258.628 185.123,258.552 185.288,258.414 186.208 L 258.295 187.000 259.156 187.000 C 260.614 187.000,261.297 186.442,261.908 184.750 C 262.215 183.899,262.520 183.141,262.911 182.250 C 263.032 181.975,263.222 181.487,263.333 181.167 C 263.530 180.601,263.900 179.719,264.191 179.127 C 264.457 178.587,264.340 178.500,263.349 178.500 L 262.364 178.500 261.995 179.542 C 261.793 180.115,261.514 180.902,261.377 181.292 C 261.131 181.990,260.833 182.239,260.833 181.748 C 260.833 181.609,260.766 181.365,260.684 181.206 C 260.547 180.941,260.409 180.592,259.829 179.042 C 259.612 178.463,257.829 178.165,257.836 178.708 M173.458 180.165 C 174.170 180.599,174.282 182.283,173.630 182.741 C 172.586 183.472,171.417 182.787,171.417 181.444 C 171.417 180.094,172.366 179.499,173.458 180.165 M180.546 180.169 C 181.037 180.742,180.891 180.833,179.490 180.833 C 178.087 180.833,178.052 180.804,178.635 180.125 C 178.996 179.704,180.172 179.731,180.546 180.169 M207.838 180.292 L 208.200 180.750 207.517 180.801 C 207.141 180.829,206.526 180.829,206.150 180.801 L 205.467 180.750 205.829 180.292 C 206.112 179.934,206.331 179.833,206.833 179.833 C 207.335 179.833,207.555 179.934,207.838 180.292 M214.386 180.236 C 215.474 181.245,214.946 183.000,213.554 183.000 C 212.668 183.000,212.333 182.585,212.333 181.489 C 212.333 180.006,213.421 179.342,214.386 180.236 M221.267 180.400 C 221.971 181.104,222.013 181.760,221.402 182.487 C 220.461 183.605,219.086 182.986,219.084 181.444 C 219.083 179.950,220.256 179.389,221.267 180.400 M245.458 180.165 C 246.296 180.676,246.252 182.186,245.386 182.642 C 244.576 183.068,243.599 182.662,243.414 181.821 C 243.090 180.345,244.234 179.418,245.458 180.165 M277.880 180.169 C 278.370 180.742,278.225 180.833,276.823 180.833 C 275.420 180.833,275.385 180.804,275.968 180.125 C 276.329 179.704,277.505 179.731,277.880 180.169 " stroke="none" fill="#ffffff" fill-rule="evenodd"></path><path id="path1" d="M168.324 107.211 C 167.906 107.599,167.081 108.341,166.491 108.860 C 165.900 109.379,165.098 110.104,164.708 110.472 L 164.000 111.141 164.000 115.148 L 164.000 119.156 165.875 119.203 L 167.750 119.250 167.750 124.250 L 167.750 129.250 165.875 129.297 L 164.000 129.344 164.000 135.505 L 164.000 141.667 168.500 141.667 L 173.000 141.667 173.000 135.508 L 173.000 129.349 171.875 129.299 L 170.750 129.250 170.750 124.250 L 170.750 119.250 171.872 119.201 L 172.995 119.152 173.039 114.544 L 173.083 109.937 171.833 108.771 C 171.146 108.129,170.327 107.356,170.014 107.052 C 169.294 106.354,169.241 106.359,168.324 107.211 M193.288 112.000 C 193.055 112.183,192.670 112.333,192.432 112.333 C 192.060 112.333,192.000 112.405,192.000 112.849 C 192.000 113.272,191.734 113.639,190.522 114.891 C 189.708 115.730,188.827 116.650,188.563 116.934 C 188.299 117.219,187.876 117.674,187.624 117.945 L 187.164 118.438 187.930 119.427 C 188.892 120.671,188.668 120.657,190.419 119.586 L 191.917 118.671 192.000 139.461 C 192.073 157.582,192.115 160.295,192.333 160.601 C 192.597 160.972,193.904 162.520,194.341 162.979 C 194.483 163.128,194.933 163.662,195.341 164.165 C 195.749 164.668,196.252 165.239,196.458 165.434 C 196.665 165.629,196.833 165.832,196.833 165.887 C 196.833 165.941,197.002 166.160,197.208 166.374 C 197.415 166.588,197.921 167.164,198.333 167.655 C 198.746 168.146,199.325 168.818,199.621 169.149 C 199.917 169.479,200.161 169.806,200.163 169.875 C 200.165 169.944,201.692 170.000,203.557 170.000 L 206.948 170.000 207.057 167.125 C 207.117 165.544,207.166 161.231,207.166 157.542 L 207.167 150.833 210.824 150.833 L 214.481 150.833 219.272 160.417 L 224.063 170.000 232.698 170.000 C 237.448 170.000,241.333 169.972,241.333 169.937 C 241.333 169.902,240.984 169.246,240.558 168.479 C 240.131 167.711,239.530 166.611,239.221 166.034 C 238.913 165.456,238.485 164.706,238.271 164.367 C 238.057 164.028,237.829 163.581,237.763 163.375 C 237.698 163.169,237.574 163.000,237.489 163.000 C 237.403 163.000,237.333 162.919,237.333 162.821 C 237.333 162.722,237.042 162.141,236.686 161.529 C 236.329 160.917,235.779 159.929,235.462 159.333 C 234.962 158.393,234.026 156.701,232.883 154.667 C 232.702 154.346,232.307 153.633,232.005 153.083 C 231.703 152.533,231.400 152.008,231.331 151.917 C 231.263 151.825,230.858 151.096,230.432 150.296 L 229.657 148.842 230.120 148.731 C 233.708 147.866,238.954 142.409,240.018 138.435 C 240.094 138.150,240.317 137.354,240.513 136.667 C 240.823 135.580,240.872 134.948,240.893 131.833 C 240.919 127.911,240.650 126.155,239.679 123.917 C 236.841 117.372,232.256 113.885,224.871 112.655 C 222.805 112.311,222.383 112.303,208.556 112.359 L 194.362 112.417 194.036 112.042 L 193.711 111.667 193.288 112.000 M254.928 114.115 C 254.871 114.261,254.777 114.333,254.718 114.273 C 254.658 114.214,254.435 114.280,254.222 114.420 C 254.008 114.560,253.833 114.632,253.833 114.579 C 253.833 114.527,253.501 114.713,253.095 114.992 C 252.689 115.271,252.311 115.500,252.255 115.500 C 251.433 115.500,247.944 119.075,246.561 121.333 C 244.010 125.502,243.473 131.158,245.175 135.935 C 247.450 142.323,253.465 145.973,265.750 148.422 C 267.432 148.757,269.201 149.173,272.417 149.990 C 273.133 150.172,274.704 150.850,275.013 151.111 C 275.158 151.233,275.327 151.333,275.388 151.333 C 275.784 151.333,276.832 152.891,276.833 153.481 C 276.842 159.146,264.375 159.806,255.583 154.607 C 254.895 154.200,253.747 153.446,253.667 153.349 C 253.621 153.294,253.133 152.916,252.583 152.511 C 252.033 152.105,251.345 151.524,251.053 151.220 C 250.291 150.425,250.421 150.338,248.754 152.750 C 248.120 153.667,247.204 154.948,246.718 155.598 C 246.231 156.248,245.833 156.867,245.833 156.973 C 245.833 157.080,245.776 157.167,245.706 157.167 C 245.636 157.167,245.393 157.467,245.167 157.833 C 244.940 158.200,244.697 158.500,244.627 158.500 C 244.557 158.500,244.500 158.574,244.500 158.664 C 244.500 158.754,244.001 159.509,243.391 160.343 L 242.283 161.859 243.016 162.561 C 243.420 162.946,244.200 163.596,244.750 164.005 C 245.300 164.414,245.787 164.786,245.833 164.833 C 245.879 164.879,246.254 165.135,246.667 165.402 C 247.079 165.668,247.604 166.011,247.833 166.165 C 248.566 166.655,252.040 168.286,253.333 168.746 C 254.021 168.990,254.743 169.254,254.938 169.332 C 255.712 169.642,259.169 170.389,261.583 170.768 C 264.179 171.175,271.758 171.173,273.917 170.765 C 275.556 170.455,277.211 170.086,278.250 169.798 C 279.115 169.557,282.177 168.331,282.500 168.095 C 282.637 167.995,283.012 167.772,283.333 167.600 C 285.919 166.211,288.541 163.531,289.999 160.787 C 290.735 159.402,291.409 157.438,291.271 157.079 C 291.219 156.944,291.252 156.833,291.343 156.833 C 291.434 156.833,291.392 156.608,291.250 156.333 C 291.108 156.058,290.918 155.833,290.829 155.833 C 290.740 155.833,290.667 155.764,290.667 155.679 C 290.667 155.595,290.460 155.314,290.207 155.054 C 289.954 154.795,289.485 154.253,289.165 153.849 C 288.845 153.445,288.471 152.993,288.333 152.844 C 288.196 152.695,287.610 152.013,287.032 151.328 C 286.455 150.644,285.780 149.856,285.532 149.579 C 285.285 149.302,284.709 148.627,284.252 148.079 C 283.795 147.531,283.345 147.000,283.252 146.898 C 283.159 146.796,282.708 146.275,282.250 145.740 C 281.792 145.205,281.285 144.632,281.125 144.467 C 280.965 144.302,280.833 144.119,280.833 144.061 C 280.833 144.003,280.702 143.834,280.542 143.686 C 280.381 143.538,279.877 142.967,279.422 142.417 C 278.563 141.379,278.099 140.839,277.659 140.362 C 277.517 140.209,277.067 139.673,276.659 139.171 C 276.251 138.670,275.804 138.137,275.667 137.988 C 275.529 137.838,275.229 137.492,275.000 137.218 C 274.771 136.945,274.232 136.315,273.803 135.819 C 273.373 135.323,272.868 134.738,272.681 134.520 C 272.494 134.302,272.381 134.058,272.430 133.978 C 272.479 133.899,272.440 133.833,272.343 133.833 C 272.246 133.833,272.167 133.901,272.167 133.984 C 272.167 134.067,272.018 134.096,271.835 134.049 C 271.653 134.001,271.537 133.909,271.577 133.843 C 271.618 133.778,271.148 133.621,270.534 133.495 C 269.919 133.368,269.379 133.256,269.333 133.244 C 269.287 133.232,269.063 133.174,268.833 133.115 C 268.604 133.056,267.667 132.824,266.750 132.599 C 265.833 132.373,264.671 132.067,264.167 131.919 C 263.662 131.770,263.084 131.607,262.880 131.556 C 262.677 131.505,262.424 131.359,262.318 131.232 C 262.212 131.104,262.017 131.000,261.885 131.000 C 260.867 131.000,259.399 129.055,259.610 127.986 C 259.859 126.721,261.035 125.167,261.743 125.167 C 261.884 125.167,262.000 125.095,262.000 125.008 C 262.000 124.920,262.263 124.799,262.585 124.739 C 262.907 124.678,263.216 124.554,263.273 124.463 C 263.340 124.354,263.410 124.354,263.479 124.464 C 263.545 124.568,263.656 124.552,263.779 124.419 C 263.931 124.254,263.831 124.054,263.321 123.507 C 262.961 123.121,262.667 122.778,262.667 122.744 C 262.667 122.710,262.498 122.507,262.292 122.294 C 262.085 122.081,261.617 121.540,261.250 121.092 C 260.883 120.645,260.457 120.145,260.302 119.983 C 260.147 119.820,259.695 119.289,259.297 118.802 C 258.187 117.444,257.938 117.148,257.658 116.855 C 257.515 116.705,257.028 116.135,256.574 115.587 C 255.239 113.972,255.048 113.802,254.928 114.115 M127.464 126.163 L 127.417 130.192 128.118 130.105 C 128.504 130.058,129.254 129.944,129.785 129.851 C 130.922 129.652,133.502 129.225,134.917 129.003 C 135.467 128.916,136.554 128.736,137.333 128.603 C 138.112 128.469,139.500 128.232,140.417 128.076 C 141.333 127.920,142.180 127.765,142.299 127.732 C 142.463 127.686,142.509 127.168,142.490 125.586 L 142.464 123.500 142.024 123.503 C 141.782 123.504,140.383 123.389,138.917 123.245 C 133.212 122.689,131.195 122.505,129.750 122.411 C 128.925 122.358,128.084 122.273,127.881 122.224 L 127.512 122.133 127.464 126.163 M221.875 126.146 C 222.585 126.449,223.167 126.747,223.168 126.807 C 223.168 126.867,223.388 127.042,223.657 127.194 C 226.063 128.563,226.374 133.457,224.186 135.501 C 222.047 137.499,221.210 137.667,213.351 137.667 L 207.167 137.667 207.167 131.568 L 207.167 125.468 213.875 125.531 L 220.583 125.594 221.875 126.146 M156.259 143.704 C 156.100 143.932,156.000 144.432,156.000 145.006 C 156.000 145.519,155.930 146.346,155.845 146.844 C 155.760 147.342,155.647 148.200,155.595 148.750 C 155.500 149.752,155.286 151.445,154.991 153.532 C 154.762 155.150,154.792 155.682,155.125 155.935 C 155.610 156.303,183.042 156.268,183.411 155.899 C 183.694 155.615,183.676 154.918,183.323 152.500 C 183.236 151.904,183.088 150.742,182.994 149.917 C 182.831 148.478,182.334 143.949,182.334 143.887 C 182.328 143.346,182.017 143.333,169.164 143.333 L 156.519 143.333 156.259 143.704 M163.083 164.083 L 163.083 170.500 168.375 170.500 L 173.667 170.500 173.667 164.083 L 173.667 157.667 168.375 157.667 L 163.083 157.667 163.083 164.083 " stroke="none" fill="#ffffff" fill-rule="evenodd"></path><path id="path2" d="M199.317 105.677 C 194.960 110.210,193.186 112.095,193.566 111.792 C 193.649 111.726,193.861 111.840,194.038 112.044 C 194.349 112.403,194.480 112.417,197.972 112.472 C 201.979 112.536,201.882 112.554,203.579 111.417 C 204.357 110.895,204.726 110.681,205.042 110.567 C 205.202 110.509,205.333 110.404,205.333 110.333 C 205.333 110.263,205.465 110.160,205.625 110.105 C 206.519 109.796,207.443 108.833,206.846 108.833 C 206.747 108.833,206.667 108.721,206.667 108.583 C 206.667 108.446,206.608 108.333,206.536 108.333 C 206.464 108.333,205.892 107.617,205.266 106.742 C 204.640 105.867,204.040 105.061,203.933 104.951 C 203.826 104.840,203.555 104.487,203.330 104.167 C 202.142 102.471,202.546 102.319,199.317 105.677 M107.944 123.364 C 107.884 124.951,107.834 127.852,107.834 129.811 L 107.833 133.372 108.792 133.261 C 109.319 133.199,110.162 133.083,110.667 133.001 C 112.490 132.706,114.777 132.322,116.083 132.093 C 116.817 131.965,117.904 131.782,118.500 131.688 C 121.244 131.252,122.990 130.962,123.833 130.802 C 124.337 130.707,125.218 130.565,125.790 130.488 C 127.628 130.238,127.500 130.567,127.500 126.105 L 127.500 122.221 126.792 122.199 C 126.402 122.187,124.996 122.064,123.667 121.926 C 119.961 121.542,114.345 121.053,110.083 120.745 C 109.350 120.692,108.593 120.610,108.402 120.563 C 108.061 120.479,108.051 120.545,107.944 123.364 " stroke="none" fill="#ffffff" fill-rule="evenodd"></path><path id="path3" d="M175.548 112.106 C 175.818 112.423,175.842 112.787,175.798 115.805 L 175.750 119.152 176.127 119.246 L 176.505 119.341 176.461 124.295 L 176.417 129.250 176.029 129.305 C 175.763 129.343,175.671 129.439,175.737 129.610 C 175.790 129.748,175.833 132.517,175.833 135.764 L 175.833 141.667 178.167 141.667 L 180.500 141.667 180.500 135.764 C 180.500 129.745,180.472 129.333,180.066 129.333 C 179.938 129.333,179.828 129.277,179.822 129.208 C 179.816 129.140,179.797 126.881,179.780 124.188 L 179.750 119.293 180.143 119.144 C 180.891 118.860,180.618 116.526,179.749 115.779 C 179.383 115.465,178.813 114.954,178.483 114.645 C 176.934 113.197,175.200 111.696,175.548 112.106 M158.917 115.578 C 156.493 117.761,156.250 118.030,156.250 118.531 L 156.250 119.083 157.417 119.167 L 158.583 119.250 158.583 124.250 L 158.583 129.250 157.738 129.353 C 156.106 129.552,156.167 129.417,156.167 132.850 C 156.167 136.101,156.227 136.372,157.015 136.647 L 157.536 136.829 157.400 138.539 C 157.325 139.480,157.260 140.550,157.257 140.917 L 157.250 141.583 159.167 141.583 L 161.083 141.583 161.126 127.679 C 161.165 115.031,161.193 113.747,161.443 113.470 C 162.067 112.782,161.446 113.300,158.917 115.578 M184.662 120.958 C 184.355 121.302,183.480 122.243,182.718 123.050 C 180.332 125.577,180.766 125.633,184.538 123.284 L 186.159 122.275 185.564 121.548 C 185.078 120.956,185.006 120.777,185.171 120.578 C 185.602 120.059,185.192 120.365,184.662 120.958 M147.292 123.955 C 147.574 124.049,147.588 126.833,147.306 126.833 C 147.199 126.833,147.150 126.872,147.197 126.920 C 147.245 126.967,147.801 126.902,148.433 126.775 C 149.066 126.648,150.258 126.448,151.083 126.330 C 153.676 125.959,156.226 125.406,156.294 125.200 C 156.429 124.798,155.625 124.667,149.917 124.164 C 148.817 124.067,147.729 123.964,147.500 123.936 C 147.271 123.908,147.177 123.916,147.292 123.955 M154.296 157.896 C 154.034 158.095,154.004 158.670,153.962 164.307 L 153.917 170.500 156.833 170.500 L 159.750 170.500 159.704 164.083 L 159.659 157.667 157.121 157.672 C 155.293 157.676,154.503 157.738,154.296 157.896 M176.833 164.083 L 176.833 170.500 179.583 170.500 L 182.333 170.500 182.333 164.083 L 182.333 157.667 179.583 157.667 L 176.833 157.667 176.833 164.083 " stroke="none" fill="#ffffff" fill-rule="evenodd"></path><path id="path4" d="M173.000 114.590 L 173.000 119.180 174.375 119.132 L 175.750 119.083 175.795 115.736 L 175.840 112.390 174.579 111.195 C 173.885 110.538,173.246 110.000,173.159 110.000 C 173.062 110.000,173.000 111.793,173.000 114.590 M162.581 112.355 L 161.170 113.709 161.127 127.688 L 161.083 141.667 162.542 141.667 L 164.000 141.667 164.000 135.500 L 164.000 129.333 163.018 129.333 C 161.797 129.333,161.901 129.819,161.929 124.231 C 161.955 118.899,161.894 119.167,163.087 119.167 L 163.989 119.167 164.036 115.083 C 164.062 112.837,164.063 111.000,164.038 111.000 C 164.013 111.000,163.357 111.610,162.581 112.355 M263.333 111.683 C 260.963 111.993,258.871 112.468,257.250 113.063 C 256.975 113.164,256.712 113.253,256.667 113.262 C 256.621 113.271,256.372 113.365,256.114 113.472 C 255.856 113.579,255.537 113.667,255.406 113.667 C 255.079 113.667,255.105 113.987,255.458 114.314 C 255.619 114.462,256.121 115.033,256.574 115.583 C 257.028 116.133,257.515 116.705,257.658 116.855 C 257.938 117.148,258.187 117.444,259.297 118.802 C 259.695 119.289,260.147 119.820,260.302 119.983 C 260.457 120.145,260.883 120.645,261.250 121.092 C 261.617 121.540,262.085 122.081,262.292 122.294 C 262.498 122.507,262.667 122.710,262.667 122.744 C 262.667 122.778,262.966 123.126,263.332 123.519 C 263.811 124.033,263.939 124.270,263.790 124.366 C 263.676 124.440,264.221 124.454,265.000 124.398 C 268.923 124.117,276.110 126.009,279.333 128.171 C 279.563 128.325,280.199 128.743,280.747 129.100 C 281.296 129.458,281.891 129.881,282.070 130.042 C 282.250 130.202,282.446 130.333,282.508 130.333 C 282.599 130.333,285.191 126.967,290.064 120.519 L 290.742 119.622 290.079 119.044 C 289.480 118.520,285.700 115.935,285.500 115.910 C 285.454 115.905,284.854 115.604,284.167 115.243 C 283.479 114.882,282.842 114.560,282.750 114.529 C 282.658 114.497,281.921 114.209,281.111 113.889 C 279.190 113.130,275.183 112.105,273.333 111.901 C 272.921 111.855,271.985 111.746,271.254 111.659 C 269.667 111.469,264.855 111.484,263.333 111.683 M186.020 119.601 C 184.830 120.886,184.864 120.743,185.562 121.559 L 186.112 122.201 186.764 121.842 C 188.948 120.639,188.907 120.721,187.965 119.462 C 187.089 118.291,187.244 118.280,186.020 119.601 M142.495 123.542 C 142.315 124.960,142.461 127.817,142.708 127.748 C 143.406 127.553,143.625 127.511,144.350 127.431 C 145.021 127.357,145.836 127.205,147.113 126.915 C 147.447 126.840,147.481 126.715,147.530 125.368 L 147.583 123.903 147.167 123.930 C 146.938 123.945,145.925 123.859,144.917 123.738 C 143.021 123.512,142.504 123.470,142.495 123.542 M173.000 135.500 L 173.000 141.667 174.417 141.667 L 175.833 141.667 175.833 135.764 C 175.833 128.722,175.978 129.333,174.316 129.333 L 173.000 129.333 173.000 135.500 M271.600 133.806 C 271.547 133.892,271.657 134.002,271.845 134.051 C 272.052 134.106,272.162 134.068,272.124 133.956 C 272.041 133.705,271.720 133.613,271.600 133.806 M272.424 133.988 C 272.378 134.063,272.494 134.302,272.681 134.520 C 272.868 134.738,273.373 135.323,273.803 135.819 C 274.232 136.315,274.771 136.945,275.000 137.218 C 275.229 137.492,275.529 137.838,275.667 137.988 C 275.804 138.137,276.251 138.670,276.659 139.171 C 277.067 139.673,277.517 140.209,277.659 140.362 C 278.099 140.839,278.563 141.379,279.422 142.417 C 279.877 142.967,280.381 143.538,280.542 143.686 C 280.702 143.834,280.833 144.003,280.833 144.061 C 280.833 144.119,280.965 144.302,281.125 144.467 C 281.285 144.632,281.792 145.205,282.250 145.740 C 282.708 146.275,283.159 146.796,283.252 146.898 C 283.345 147.000,283.795 147.531,284.252 148.079 C 284.709 148.627,285.285 149.302,285.532 149.579 C 285.780 149.856,286.455 150.644,287.032 151.328 C 287.610 152.013,288.196 152.695,288.333 152.844 C 288.471 152.993,288.845 153.445,289.165 153.849 C 289.485 154.253,289.954 154.795,290.207 155.054 C 290.460 155.314,290.667 155.595,290.667 155.679 C 290.667 155.764,290.739 155.833,290.828 155.833 C 290.917 155.833,291.098 156.040,291.232 156.292 C 291.411 156.631,291.497 156.685,291.562 156.500 C 292.224 154.620,292.242 149.864,291.597 147.417 C 290.384 142.812,287.380 139.491,282.250 137.082 C 279.986 136.019,279.800 135.944,278.083 135.410 C 275.678 134.662,275.301 134.554,274.333 134.334 C 273.829 134.219,273.212 134.064,272.962 133.989 C 272.712 133.914,272.470 133.914,272.424 133.988 M159.706 164.036 L 159.750 170.417 161.417 170.417 L 163.083 170.417 163.083 164.083 L 163.083 157.750 161.373 157.702 L 159.663 157.655 159.706 164.036 M173.667 164.083 L 173.667 170.500 175.250 170.500 L 176.833 170.500 176.833 164.083 L 176.833 157.667 175.250 157.667 L 173.667 157.667 173.667 164.083 M192.027 164.625 L 192.000 170.000 196.083 170.000 C 198.329 170.000,200.165 169.944,200.163 169.875 C 200.161 169.806,199.917 169.479,199.621 169.149 C 199.325 168.818,198.746 168.146,198.333 167.655 C 197.921 167.164,197.415 166.588,197.208 166.374 C 197.002 166.160,196.833 165.941,196.833 165.887 C 196.833 165.832,196.665 165.629,196.458 165.434 C 196.252 165.239,195.749 164.668,195.341 164.165 C 194.933 163.662,194.483 163.128,194.341 162.979 C 193.936 162.554,192.604 160.982,192.388 160.675 C 192.280 160.522,192.161 160.139,192.123 159.824 C 192.085 159.508,192.041 161.669,192.027 164.625 M207.064 168.083 C 207.064 169.183,207.091 169.612,207.124 169.035 C 207.156 168.459,207.156 167.559,207.123 167.035 C 207.090 166.512,207.063 166.983,207.064 168.083 " stroke="none" fill="#ffffff" fill-rule="evenodd"></path></g></svg>