<svg width="155" height="69" viewBox="0 0 155 69" fill="none" xmlns="http://www.w3.org/2000/svg">
<path d="M61.8025 23.1604C61.3874 22.2887 60.5573 21.8322 59.5611 21.8737C58.9801 21.8737 58.814 21.7907 58.8555 21.1266C58.9386 18.8022 58.8971 16.4779 58.8555 14.1535C58.8555 13.3649 58.814 13.3234 59.6442 13.3234C60.2252 13.3234 60.8478 13.3234 61.4289 13.3234C61.4704 13.2404 61.4704 13.1574 61.5119 13.1159C61.2629 12.8668 61.0554 12.6178 60.7648 12.3688C57.5689 9.54636 54.3729 6.72395 51.1769 3.86003C51.0939 3.77701 50.9694 3.694 50.8864 3.56948C50.6373 3.32044 50.4713 3.15442 50.3053 3.11292C50.1393 3.15442 49.9732 3.32044 49.7242 3.56948C49.6412 3.65249 49.5582 3.73551 49.4337 3.86003C46.2377 6.68244 43.0417 9.50485 39.8458 12.3688C39.5967 12.6178 39.3477 12.8668 39.0986 13.1159C39.1402 13.1989 39.1402 13.2819 39.1817 13.3234C39.7628 13.3234 40.3853 13.3234 40.9664 13.3234C41.7965 13.3234 41.755 13.3649 41.755 14.1535C41.7135 16.4779 41.672 18.8022 41.755 21.1266C41.7965 21.7907 41.589 21.8737 41.0494 21.8737C40.0533 21.8737 39.2232 22.3302 38.8081 23.1604C38.5176 23.7414 38.6006 24.4885 38.5591 25.1942C38.5176 26.5639 39.1402 27.311 40.4268 27.726C40.5929 27.7675 40.8004 28.0166 40.8004 28.1826C40.7589 29.0542 40.6759 29.9674 40.5099 30.839C40.3438 31.7936 40.3438 31.7936 41.34 31.7936C44.3284 31.7936 47.3169 31.7936 50.3053 31.7936C53.2937 31.7936 56.2822 31.7936 59.2706 31.7936C60.2668 31.7936 60.2668 31.7521 60.1007 30.839C59.9762 29.9674 59.8932 29.0957 59.8102 28.1826C59.8102 28.0166 60.0177 27.7675 60.1837 27.726C61.4704 27.311 62.093 26.5639 62.0515 25.1942C62.0515 24.4885 62.093 23.7414 61.8025 23.1604ZM49.2676 21.2926C49.2676 21.7491 49.1016 21.8322 48.6866 21.8322C47.3584 21.8322 46.0302 21.8322 44.702 21.8322C44.2869 21.8322 44.2039 21.6661 44.2039 21.2926C44.2039 18.8022 44.2039 16.3534 44.2039 13.863C44.2039 13.4064 44.3284 13.2404 44.785 13.2404C46.0717 13.2819 47.3999 13.2819 48.6866 13.2404C49.1431 13.2404 49.2261 13.4479 49.2261 13.8215C49.2261 15.0667 49.2261 16.3118 49.2261 17.5155C49.2676 18.8022 49.2261 20.0474 49.2676 21.2926ZM55.9086 21.8322C54.5804 21.8322 53.2522 21.8322 51.924 21.8322C51.509 21.8322 51.3429 21.7491 51.3429 21.2926C51.3845 20.0474 51.3429 18.8022 51.3429 17.5985C51.3429 16.3534 51.3429 15.1082 51.3429 13.9045C51.3429 13.5309 51.426 13.3234 51.8825 13.3234C53.1692 13.3649 54.4974 13.3649 55.7841 13.3234C56.2407 13.3234 56.3652 13.4894 56.3652 13.946C56.3652 16.4364 56.3652 18.8852 56.3652 21.3756C56.4482 21.7076 56.3237 21.8322 55.9086 21.8322Z" fill="white"/>
<path d="M63.9608 54.4144C63.7948 53.5013 63.7533 52.5467 63.6288 51.6335C63.4212 49.6413 63.1722 47.649 62.9232 45.6567C62.8817 45.4491 62.5081 45.2416 62.3006 45.0756C62.2176 45.0341 62.093 45.0756 61.9685 45.0756C58.067 45.0756 54.2069 45.0756 50.3053 45.0756C46.4037 45.0756 42.5437 45.0756 38.6421 45.0756C38.5176 45.0756 38.3931 45.0341 38.3101 45.0756C38.061 45.2416 37.6875 45.4491 37.6875 45.6567C37.3969 47.649 37.1894 49.6413 36.9819 51.6335C36.8573 52.5467 36.8573 53.5013 36.6498 54.4144C36.4838 55.3276 36.5253 55.4521 37.4384 55.4521C41.7136 55.4521 45.9887 55.4521 50.3053 55.4521C54.5804 55.4521 58.8556 55.4521 63.1722 55.4521C64.1268 55.4936 64.1683 55.3691 63.9608 54.4144Z" fill="white"/>
<path d="M61.2213 35.9857C61.1382 35.3216 61.0967 34.6575 61.0552 33.9935C61.0137 33.4124 60.6817 33.2878 60.1421 33.2878C56.8631 33.2878 53.6256 33.2878 50.3467 33.2878C47.0677 33.2878 43.8302 33.2878 40.5512 33.2878C40.0116 33.2878 39.6796 33.4124 39.6381 33.9935C39.5966 34.6575 39.5551 35.3216 39.4721 35.9857C39.1815 38.2686 38.891 40.5929 38.6004 42.8757C38.5174 43.4568 38.808 43.6644 39.3476 43.6644C43.0416 43.6644 46.6941 43.6644 50.3882 43.6644C54.0822 43.6644 57.7347 43.6644 61.4288 43.6644C61.9684 43.6644 62.2589 43.4983 62.1759 42.8757C61.8023 40.5929 61.5118 38.2686 61.2213 35.9857Z" fill="white"/>
<path d="M0 24.9866L41.2985 18.1796L0 14.6101V24.9866Z" fill="url(#paint0_linear_85_8)"/>
<path d="M77.4086 0L59.478 18.7607L81.2687 5.14675L77.4086 0Z" fill="url(#paint1_linear_85_8)"/>
<path d="M37.1371 65.9471V59.2458H35.7105V65.9471H37.1371ZM42.9887 65.9471V62.5211C42.9887 61.5767 42.4763 60.9739 41.4113 60.9739C40.6176 60.9739 40.0248 61.3557 39.7133 61.7274V61.0944H38.4374V65.9471H39.7133V62.6819C39.9243 62.3905 40.3162 62.1092 40.8185 62.1092C41.361 62.1092 41.7127 62.3403 41.7127 63.0134V65.9471H42.9887ZM46.5162 66.0677C47.5108 66.0677 48.1137 65.6357 48.4352 65.1836L47.6013 64.41C47.3702 64.7315 47.0185 64.9324 46.5765 64.9324C45.8028 64.9324 45.2603 64.3597 45.2603 63.5158C45.2603 62.6718 45.8028 62.1092 46.5765 62.1092C47.0185 62.1092 47.3702 62.29 47.6013 62.6316L48.4352 61.848C48.1137 61.4059 47.5108 60.9739 46.5162 60.9739C45.0192 60.9739 43.9441 62.0288 43.9441 63.5158C43.9441 65.0128 45.0192 66.0677 46.5162 66.0677ZM49.9023 60.572C50.3242 60.572 50.6658 60.2304 50.6658 59.8084C50.6658 59.3864 50.3242 59.0549 49.9023 59.0549C49.4903 59.0549 49.1387 59.3864 49.1387 59.8084C49.1387 60.2304 49.4903 60.572 49.9023 60.572ZM50.5453 65.9471V61.0944H49.2693V65.9471H50.5453ZM56.4321 65.9471V59.2458H55.1461V61.7174C54.7643 61.2251 54.2218 60.9739 53.6491 60.9739C52.4133 60.9739 51.499 61.9384 51.499 63.5258C51.499 65.1434 52.4233 66.0677 53.6491 66.0677C54.2318 66.0677 54.7643 65.8065 55.1461 65.3242V65.9471H56.4321ZM54.0409 64.9324C53.3175 64.9324 52.8152 64.3597 52.8152 63.5258C52.8152 62.6819 53.3175 62.1092 54.0409 62.1092C54.4729 62.1092 54.9351 62.3403 55.1461 62.6618V64.3798C54.9351 64.7013 54.4729 64.9324 54.0409 64.9324ZM59.9781 66.0677C60.7316 66.0677 61.4952 65.8366 61.9774 65.3946L61.4148 64.5707C61.1033 64.8721 60.5307 65.053 60.1187 65.053C59.2949 65.053 58.8026 64.5406 58.7222 63.9277H62.3291V63.6464C62.3291 62.059 61.3445 60.9739 59.8977 60.9739C58.4208 60.9739 57.3859 62.1092 57.3859 63.5158C57.3859 65.0731 58.5012 66.0677 59.9781 66.0677ZM61.0933 63.0637H58.7021C58.7624 62.5814 59.104 61.9886 59.8977 61.9886C60.7416 61.9886 61.0631 62.6015 61.0933 63.0637ZM67.802 65.9471V62.5211C67.802 61.5767 67.2896 60.9739 66.2246 60.9739C65.4309 60.9739 64.8381 61.3557 64.5267 61.7274V61.0944H63.2507V65.9471H64.5267V62.6819C64.7377 62.3905 65.1295 62.1092 65.6319 62.1092C66.1744 62.1092 66.526 62.3403 66.526 63.0134V65.9471H67.802ZM70.6966 66.0677C71.2291 66.0677 71.5707 65.927 71.7616 65.7563L71.4903 64.7917C71.42 64.8621 71.2391 64.9324 71.0482 64.9324C70.7669 64.9324 70.6062 64.7013 70.6062 64.3999V62.2097H71.5908V61.0944H70.6062V59.7682H69.3201V61.0944H68.5164V62.2097H69.3201V64.7415C69.3201 65.6055 69.8024 66.0677 70.6966 66.0677ZM80.4899 65.9471L78.9828 63.3952C79.7062 63.2244 80.4497 62.5914 80.4497 61.4059C80.4497 60.1601 79.5957 59.2458 78.1992 59.2458H75.0645V65.9471H76.4912V63.566H77.5361L78.8522 65.9471H80.4899ZM77.9882 62.3101H76.4912V60.5017H77.9882C78.5609 60.5017 78.9929 60.8433 78.9929 61.4059C78.9929 61.9685 78.5609 62.3101 77.9882 62.3101ZM83.4669 66.0677C84.2204 66.0677 84.984 65.8366 85.4662 65.3946L84.9036 64.5707C84.5921 64.8721 84.0195 65.053 83.6075 65.053C82.7837 65.053 82.2914 64.5406 82.211 63.9277H85.8179V63.6464C85.8179 62.059 84.8333 60.9739 83.3865 60.9739C81.9096 60.9739 80.8747 62.1092 80.8747 63.5158C80.8747 65.0731 81.99 66.0677 83.4669 66.0677ZM84.5821 63.0637H82.1909C82.2512 62.5814 82.5928 61.9886 83.3865 61.9886C84.2304 61.9886 84.5519 62.6015 84.5821 63.0637ZM89.5125 66.0677C90.7583 66.0677 91.6626 65.1333 91.6626 63.5158C91.6626 61.8982 90.7583 60.9739 89.5125 60.9739C88.9197 60.9739 88.3872 61.2351 88.0155 61.7073V61.0944H86.7395V67.7958H88.0155V65.3242C88.4073 65.8266 88.9398 66.0677 89.5125 66.0677ZM89.1106 64.9324C88.6987 64.9324 88.2265 64.6812 88.0155 64.3798V62.6618C88.2265 62.3503 88.6987 62.1092 89.1106 62.1092C89.844 62.1092 90.3363 62.6819 90.3363 63.5158C90.3363 64.3597 89.844 64.9324 89.1106 64.9324ZM94.8475 66.0677C96.4551 66.0677 97.4196 64.9023 97.4196 63.5158C97.4196 62.1393 96.4551 60.9739 94.8475 60.9739C93.2501 60.9739 92.2855 62.1393 92.2855 63.5158C92.2855 64.9023 93.2501 66.0677 94.8475 66.0677ZM94.8475 64.9324C94.0538 64.9324 93.6118 64.2793 93.6118 63.5158C93.6118 62.7622 94.0538 62.1092 94.8475 62.1092C95.6412 62.1092 96.0934 62.7622 96.0934 63.5158C96.0934 64.2793 95.6412 64.9324 94.8475 64.9324ZM99.6422 65.9471V62.7421C99.8531 62.4307 100.416 62.1896 100.838 62.1896C100.978 62.1896 101.099 62.1996 101.189 62.2197V60.9739C100.587 60.9739 99.9838 61.3255 99.6422 61.7575V61.0944H98.3662V65.9471H99.6422ZM103.614 66.0677C104.147 66.0677 104.488 65.927 104.679 65.7563L104.408 64.7917C104.338 64.8621 104.157 64.9324 103.966 64.9324C103.685 64.9324 103.524 64.7013 103.524 64.3999V62.2097H104.508V61.0944H103.524V59.7682H102.238V61.0944H101.434V62.2097H102.238V64.7415C102.238 65.6055 102.72 66.0677 103.614 66.0677ZM106.014 60.572C106.436 60.572 106.778 60.2304 106.778 59.8084C106.778 59.3864 106.436 59.0549 106.014 59.0549C105.602 59.0549 105.251 59.3864 105.251 59.8084C105.251 60.2304 105.602 60.572 106.014 60.572ZM106.657 65.9471V61.0944H105.381V65.9471H106.657ZM112.474 65.9471V62.5211C112.474 61.5767 111.962 60.9739 110.897 60.9739C110.103 60.9739 109.51 61.3557 109.199 61.7274V61.0944H107.923V65.9471H109.199V62.6819C109.41 62.3905 109.801 62.1092 110.304 62.1092C110.846 62.1092 111.198 62.3403 111.198 63.0134V65.9471H112.474ZM115.73 67.9164C116.926 67.9164 118.352 67.4642 118.352 65.6156V61.0944H117.066V61.7174C116.675 61.2251 116.152 60.9739 115.569 60.9739C114.344 60.9739 113.429 61.858 113.429 63.4454C113.429 65.063 114.354 65.917 115.569 65.917C116.162 65.917 116.685 65.6357 117.066 65.1534V65.6457C117.066 66.6002 116.343 66.8715 115.73 66.8715C115.117 66.8715 114.605 66.7007 114.213 66.2686L113.64 67.193C114.253 67.7255 114.896 67.9164 115.73 67.9164ZM115.971 64.7817C115.248 64.7817 114.746 64.2793 114.746 63.4454C114.746 62.6115 115.248 62.1092 115.971 62.1092C116.393 62.1092 116.855 62.3403 117.066 62.6618V64.2291C116.855 64.5406 116.393 64.7817 115.971 64.7817ZM124.6 66.0677C126.408 66.0677 127.282 65.1434 127.282 63.9176C127.282 61.4159 123.434 62.1293 123.434 61.0643C123.434 60.6624 123.776 60.3911 124.389 60.3911C125.072 60.3911 125.795 60.6222 126.338 61.1246L127.132 60.0797C126.469 59.4668 125.584 59.1453 124.519 59.1453C122.942 59.1453 121.978 60.0696 121.978 61.1849C121.978 63.7067 125.836 62.8929 125.836 64.0784C125.836 64.4602 125.454 64.8219 124.67 64.8219C123.746 64.8219 123.012 64.41 122.54 63.9176L121.767 65.0027C122.39 65.6357 123.314 66.0677 124.6 66.0677ZM127.915 67.846C128.075 67.8862 128.397 67.9164 128.547 67.9164C129.381 67.8963 130.024 67.6551 130.386 66.7409L132.667 61.0944H131.29L130.024 64.4702L128.758 61.0944H127.392L129.361 66.0175L129.18 66.4294C129.06 66.6906 128.839 66.781 128.507 66.781C128.387 66.781 128.216 66.7509 128.105 66.7007L127.915 67.846ZM134.985 66.0677C136.331 66.0677 137.084 65.3946 137.084 64.5104C137.084 62.5513 134.211 63.1541 134.211 62.4307C134.211 62.1594 134.512 61.9484 134.974 61.9484C135.567 61.9484 136.12 62.1996 136.411 62.5111L136.924 61.637C136.441 61.2552 135.788 60.9739 134.964 60.9739C133.688 60.9739 132.975 61.6872 132.975 62.501C132.975 64.41 135.859 63.7569 135.859 64.5607C135.859 64.8621 135.597 65.0831 135.045 65.0831C134.442 65.0831 133.719 64.7515 133.367 64.42L132.814 65.3142C133.327 65.7864 134.141 66.0677 134.985 66.0677ZM139.652 66.0677C140.184 66.0677 140.526 65.927 140.717 65.7563L140.446 64.7917C140.375 64.8621 140.195 64.9324 140.004 64.9324C139.722 64.9324 139.562 64.7013 139.562 64.3999V62.2097H140.546V61.0944H139.562V59.7682H138.276V61.0944H137.472V62.2097H138.276V64.7415C138.276 65.6055 138.758 66.0677 139.652 66.0677ZM143.7 66.0677C144.453 66.0677 145.217 65.8366 145.699 65.3946L145.137 64.5707C144.825 64.8721 144.252 65.053 143.84 65.053C143.017 65.053 142.524 64.5406 142.444 63.9277H146.051V63.6464C146.051 62.059 145.066 60.9739 143.619 60.9739C142.143 60.9739 141.108 62.1092 141.108 63.5158C141.108 65.0731 142.223 66.0677 143.7 66.0677ZM144.815 63.0637H142.424C142.484 62.5814 142.826 61.9886 143.619 61.9886C144.463 61.9886 144.785 62.6015 144.815 63.0637ZM154.277 65.9471V62.4407C154.277 61.4461 153.744 60.9739 152.85 60.9739C152.107 60.9739 151.464 61.4159 151.182 61.858C151.001 61.3054 150.549 60.9739 149.836 60.9739C149.092 60.9739 148.449 61.436 148.248 61.7274V61.0944H146.972V65.9471H148.248V62.6819C148.439 62.4106 148.811 62.1092 149.253 62.1092C149.776 62.1092 149.977 62.4307 149.977 62.8828V65.9471H151.263V62.6718C151.443 62.4106 151.815 62.1092 152.267 62.1092C152.79 62.1092 152.991 62.4307 152.991 62.8828V65.9471H154.277Z" fill="white"/>
<path d="M95.5053 55.1615L87.5776 39.3062H81.3517V55.1615H69.1489V7.88611H92.8074C103.308 7.88611 109.244 14.8176 109.244 23.6169C109.244 31.8351 104.222 36.2348 99.8219 37.812L109.451 55.1615H95.5053ZM96.875 23.5339C96.875 20.3379 94.1771 18.5117 90.9811 18.5117H81.3517V28.6391H90.9811C94.1771 28.6391 96.875 26.8544 96.875 23.5339Z" fill="white"/>
<path d="M110.531 48.4791L116.964 39.3478C120.368 42.7513 125.597 45.5737 132.072 45.5737C136.265 45.5737 138.796 43.9549 138.796 41.6721C138.796 35.2387 112.025 40.3854 112.025 22.1642C112.025 14.2366 118.749 7.13904 130.869 7.13904C138.464 7.13904 145.064 9.42187 150.086 13.7385L143.404 22.4548C139.419 19.1758 134.272 17.5571 129.582 17.5571C126.054 17.5571 124.477 18.9683 124.477 20.9606C124.477 26.9789 151.207 22.5793 151.207 40.1779C151.207 49.6828 144.192 55.9917 131.491 55.9917C121.945 55.9917 115.304 53.0033 110.531 48.4791Z" fill="white"/>
<defs>
<linearGradient id="paint0_linear_85_8" x1="41.3097" y1="19.8153" x2="0.0113196" y2="19.789" gradientUnits="userSpaceOnUse">
<stop stop-color="#006218"/>
<stop offset="0.4765" stop-color="#9DE644"/>
<stop offset="0.9285" stop-color="#7EB638"/>
</linearGradient>
<linearGradient id="paint1_linear_85_8" x1="58.8632" y1="17.9496" x2="79.3456" y2="2.58781" gradientUnits="userSpaceOnUse">
<stop stop-color="#006218"/>
<stop offset="0.4765" stop-color="#96DB41"/>
<stop offset="0.9285" stop-color="#80B939"/>
</linearGradient>
</defs>
</svg>
