<?xml version="1.0" standalone="no"?>
<!DOCTYPE svg PUBLIC "-//W3C//DTD SVG 20010904//EN"
 "http://www.w3.org/TR/2001/REC-SVG-20010904/DTD/svg10.dtd">
<svg version="1.0" xmlns="http://www.w3.org/2000/svg"
 width="3300.000000pt" height="2400.000000pt" viewBox="0 0 3300.000000 2400.000000"
 preserveAspectRatio="xMidYMid meet">

<g transform="translate(0.000000,2400.000000) scale(0.100000,-0.100000)"
fill="#ffffff" stroke="none">
<path d="M14470 14461 l0 -281 35 0 c22 0 43 -8 55 -20 19 -19 20 -33 20 -413
0 -445 1 -437 -71 -437 l-39 0 0 -495 0 -495 228 0 c125 0 233 4 241 9 11 7
11 29 -3 137 -17 138 -20 222 -8 240 4 6 38 25 75 43 109 52 144 127 135 294
-6 101 -24 156 -66 200 -40 43 -77 58 -166 71 l-81 11 0 420 0 420 125 5 c105
4 125 8 128 21 2 11 -45 60 -130 135 -143 128 -432 381 -460 403 -17 13 -18
-1 -18 -268z"/>
<path d="M13267 14583 c-126 -107 -366 -320 -394 -352 -18 -20 -31 -40 -29
-46 1 -6 52 -10 125 -10 87 0 124 -4 129 -13 5 -7 8 -195 7 -418 -2 -460 3
-434 -83 -434 -105 0 -196 -62 -221 -151 -20 -72 -18 -245 3 -297 22 -51 81
-104 136 -122 72 -24 75 -32 59 -172 -7 -68 -13 -150 -14 -183 l0 -60 168 -3
167 -2 0 1150 c0 632 -2 1150 -4 1150 -2 0 -24 -17 -49 -37z"/>
<path d="M23625 14369 c10 -15 276 -329 280 -329 1 0 16 20 34 45 l32 44 -78
62 c-42 34 -116 87 -163 118 -113 76 -115 77 -105 60z"/>
<path d="M15118 13875 c-91 -93 -179 -186 -195 -205 l-28 -35 30 19 c17 11 89
57 160 102 72 45 165 104 207 131 l78 50 -40 53 c-21 29 -40 53 -42 54 -2 0
-78 -75 -170 -169z"/>
<path d="M12130 13646 c0 -104 2 -114 18 -110 9 2 210 35 446 73 235 39 430
72 432 74 3 2 -42 8 -98 11 -57 4 -255 21 -442 37 -186 16 -343 29 -347 29 -5
0 -9 -51 -9 -114z"/>
<path d="M12724 10957 c-31 -27 -37 -64 -88 -533 -30 -276 -45 -400 -52 -430
-3 -12 1 -28 11 -38 15 -14 51 -16 316 -16 l299 0 0 520 0 520 -229 0 c-227 0
-230 0 -257 -23z"/>
<path d="M14560 10460 l0 -520 373 0 c298 0 377 3 392 14 17 12 17 19 7 87 -6
41 -16 121 -22 179 -25 252 -77 683 -85 710 -3 9 -18 23 -34 33 -26 15 -64 17
-330 17 l-301 0 0 -520z"/>
<path d="M13802 9447 c-28 -29 -28 -67 -1 -101 42 -54 129 -19 129 52 0 67
-82 98 -128 49z"/>
<path d="M19182 9447 c-28 -29 -28 -67 -1 -101 42 -54 129 -19 129 52 0 67
-82 98 -128 49z"/>
<path d="M20911 9449 c-153 -45 -208 -219 -100 -321 39 -37 58 -45 230 -92 76
-21 104 -45 95 -79 -19 -78 -185 -76 -296 3 -15 11 -30 20 -33 20 -4 0 -43
-54 -70 -97 -11 -18 85 -78 157 -98 81 -23 215 -17 272 13 52 27 100 81 113
129 13 47 13 59 0 106 -22 82 -87 124 -252 166 -123 30 -155 64 -105 111 43
40 189 19 249 -36 16 -14 21 -11 59 37 l42 54 -33 28 c-67 55 -231 83 -328 56z"/>
<path d="M12500 9115 l0 -335 70 0 70 0 0 335 0 335 -70 0 -70 0 0 -335z"/>
<path d="M14360 9330 l0 -121 -27 26 c-38 34 -85 48 -149 43 -113 -9 -186 -99
-192 -234 -9 -164 75 -273 210 -274 58 0 95 13 131 48 l27 26 0 -32 0 -32 65
0 65 0 0 335 0 335 -65 0 -65 0 0 -120z m-40 -187 c38 -25 40 -32 40 -118 0
-44 -4 -85 -8 -91 -18 -26 -60 -44 -104 -44 -87 0 -140 79 -118 175 13 59 58
95 118 95 28 0 58 -7 72 -17z"/>
<path d="M16260 9115 l0 -335 70 0 70 0 0 121 0 120 53 -3 52 -3 64 -117 65
-118 83 0 c77 0 83 1 74 18 -5 9 -37 64 -70 120 -34 57 -61 107 -61 111 0 4
15 15 34 24 110 52 137 224 51 325 -54 62 -96 72 -307 72 l-178 0 0 -335z
m361 176 c31 -31 36 -55 18 -94 -17 -37 -50 -47 -149 -47 l-90 0 0 85 0 85 96
0 c92 0 97 -1 125 -29z"/>
<path d="M15720 9340 l0 -70 -40 0 -40 0 0 -55 0 -55 40 0 40 0 0 -150 c0
-168 8 -198 60 -225 54 -28 180 -12 180 22 0 9 -5 32 -11 52 -10 34 -14 37
-40 33 -53 -8 -59 7 -59 144 l0 124 50 0 50 0 0 55 0 55 -50 0 -49 0 -3 68 -3
67 -62 3 -63 3 0 -71z"/>
<path d="M18880 9339 l0 -72 -61 6 c-66 7 -116 -7 -156 -45 l-23 -21 0 31 0
32 -65 0 -65 0 0 -245 0 -245 65 0 65 0 0 164 0 164 34 22 c26 15 58 22 120
26 l86 6 0 -152 c0 -168 8 -198 60 -225 54 -28 180 -12 180 22 0 9 -5 32 -11
52 -10 34 -14 37 -40 33 -53 -8 -59 7 -59 144 l0 124 50 0 50 0 0 55 0 55 -50
0 -49 0 -3 68 -3 67 -62 3 -63 3 0 -72z"/>
<path d="M22330 9340 l0 -70 -40 0 -40 0 0 -55 0 -55 40 0 40 0 0 -150 c0
-168 8 -198 60 -225 54 -28 180 -12 180 22 0 9 -5 32 -11 52 -10 34 -14 37
-40 33 -53 -8 -59 7 -59 144 l0 124 50 0 50 0 0 55 0 55 -50 0 -49 0 -3 68 -3
67 -62 3 -63 3 0 -71z"/>
<path d="M12950 9264 c-19 -8 -45 -25 -57 -36 l-23 -21 0 31 0 32 -65 0 -65 0
0 -245 0 -245 65 0 65 0 0 164 0 164 31 26 c41 35 118 37 149 4 18 -20 20 -35
20 -190 l0 -168 65 0 65 0 0 198 c0 222 -7 249 -71 284 -42 22 -130 23 -179 2z"/>
<path d="M13414 9256 c-150 -70 -194 -271 -85 -397 88 -104 266 -121 359 -34
l37 34 -45 40 c-25 21 -47 35 -48 30 -7 -19 -62 -39 -107 -39 -38 0 -52 5 -75
28 -88 88 -39 242 76 242 44 0 99 -20 106 -39 1 -5 23 9 48 31 l45 40 -37 33
c-65 60 -183 73 -274 31z"/>
<path d="M14721 9266 c-158 -57 -214 -277 -103 -406 46 -55 103 -82 183 -88
73 -5 161 15 200 47 l23 19 -27 41 c-26 39 -29 40 -50 27 -68 -45 -173 -38
-219 14 -53 58 -48 60 153 60 l182 0 -5 63 c-8 101 -60 180 -143 218 -46 21
-142 24 -194 5z m131 -96 c40 -11 78 -51 78 -81 0 -17 -9 -19 -115 -19 -106 0
-115 2 -115 19 0 39 50 80 110 90 3 1 22 -4 42 -9z"/>
<path d="M15340 9264 c-19 -8 -45 -25 -57 -36 l-23 -21 0 31 0 32 -65 0 -65 0
0 -245 0 -245 65 0 65 0 0 164 0 164 31 26 c41 35 118 37 149 4 18 -20 20 -35
20 -190 l0 -168 65 0 65 0 0 198 c0 222 -7 249 -71 284 -42 22 -130 23 -179 2z"/>
<path d="M16971 9266 c-158 -57 -214 -277 -103 -406 46 -55 103 -82 183 -88
73 -5 161 15 200 47 l23 19 -27 41 c-26 39 -29 40 -50 27 -68 -45 -173 -38
-219 14 -53 58 -48 60 153 60 l182 0 -5 63 c-8 101 -60 180 -143 218 -46 21
-142 24 -194 5z m131 -96 c40 -11 78 -51 78 -81 0 -17 -9 -19 -115 -19 -106 0
-115 2 -115 19 0 39 50 80 110 90 3 1 22 -4 42 -9z"/>
<path d="M17591 9269 c-13 -5 -36 -18 -52 -30 l-29 -20 0 25 c0 25 -2 26 -65
26 l-65 0 0 -340 0 -340 65 0 65 0 0 127 0 127 28 -26 c35 -34 72 -48 128 -48
129 0 214 101 214 255 0 117 -48 204 -132 239 -41 18 -120 20 -157 5z m109
-136 c59 -53 59 -164 0 -216 -30 -26 -38 -29 -86 -25 -39 3 -61 11 -79 28 -23
21 -25 31 -25 104 0 45 4 86 8 92 18 26 60 44 104 44 38 0 54 -6 78 -27z"/>
<path d="M18080 9267 c-49 -16 -133 -102 -148 -153 -31 -104 -9 -198 63 -269
56 -56 102 -75 185 -75 73 0 123 17 171 59 78 66 108 179 77 285 -16 55 -99
138 -154 154 -50 15 -146 14 -194 -1z m180 -135 c34 -35 51 -89 41 -134 -18
-78 -53 -108 -123 -108 -87 0 -140 79 -118 175 14 60 57 95 121 95 42 0 55 -5
79 -28z"/>
<path d="M19610 9264 c-19 -8 -45 -25 -57 -36 l-23 -21 0 31 0 32 -65 0 -65 0
0 -245 0 -245 65 0 65 0 0 164 0 164 31 26 c41 35 118 37 149 4 18 -20 20 -35
20 -190 l0 -168 65 0 65 0 0 198 c0 222 -7 249 -71 284 -42 22 -130 23 -179 2z"/>
<path d="M20060 9264 c-46 -20 -77 -50 -103 -99 -32 -60 -31 -201 2 -269 56
-113 206 -147 309 -70 l32 25 0 -31 c0 -49 -25 -97 -61 -115 -48 -25 -145 -17
-196 17 l-39 26 -27 -48 -27 -48 25 -21 c48 -37 120 -54 210 -49 109 6 168 34
210 103 l30 48 3 269 3 268 -65 0 -66 0 0 -32 0 -32 -27 26 c-16 15 -41 32
-56 37 -40 15 -116 13 -157 -5z m200 -121 c37 -25 40 -32 40 -115 0 -74 -1
-77 -30 -98 -60 -43 -149 -32 -185 24 -35 54 -16 164 34 191 36 20 111 19 141
-2z"/>
<path d="M21915 9261 c-85 -38 -123 -119 -89 -188 26 -52 72 -79 166 -100 97
-21 126 -39 109 -71 -22 -42 -130 -38 -209 9 -18 10 -35 19 -37 19 -3 0 -17
-19 -31 -42 l-27 -42 28 -22 c44 -35 133 -57 211 -52 131 7 199 67 192 166 -4
41 -11 59 -34 83 -27 28 -51 38 -202 78 -52 15 -64 37 -33 63 33 26 97 23 156
-7 27 -13 51 -22 54 -20 3 2 15 19 25 39 24 45 15 58 -60 86 -70 26 -164 26
-219 1z"/>
<path d="M22751 9266 c-158 -57 -214 -277 -103 -406 46 -55 103 -82 183 -88
73 -5 161 15 200 47 l23 19 -27 41 c-26 39 -29 40 -50 27 -68 -45 -173 -38
-219 14 -53 58 -48 60 153 60 l182 0 -5 63 c-8 101 -60 180 -143 218 -46 21
-142 24 -194 5z m131 -96 c40 -11 78 -51 78 -81 0 -17 -9 -19 -115 -19 -106 0
-115 2 -115 19 0 39 50 80 110 90 3 1 22 -4 42 -9z"/>
<path d="M23360 9265 c-19 -9 -45 -26 -57 -37 l-23 -21 0 31 0 32 -65 0 -65 0
0 -245 0 -245 65 0 65 0 0 164 0 164 31 26 c21 18 42 26 69 26 64 0 70 -17 70
-212 l0 -168 65 0 65 0 0 164 0 164 31 26 c23 19 42 26 74 26 70 0 75 -14 75
-212 l0 -168 65 0 65 0 0 195 c0 220 -7 251 -62 285 -62 38 -182 18 -232 -39
l-19 -21 -32 37 c-29 33 -37 37 -91 40 -39 2 -71 -2 -94 -12z"/>
<path d="M13790 9025 l0 -245 65 0 65 0 0 245 0 245 -65 0 -65 0 0 -245z"/>
<path d="M19170 9025 l0 -245 65 0 65 0 0 245 0 245 -65 0 -65 0 0 -245z"/>
<path d="M21273 9258 c123 -302 188 -481 183 -502 -9 -38 -34 -56 -76 -56 -35
0 -39 -3 -44 -30 -3 -16 -9 -43 -12 -60 l-6 -30 63 0 c77 0 140 28 168 73 15
25 122 287 248 605 4 10 -11 12 -67 10 l-72 -3 -60 -160 c-33 -88 -61 -161
-62 -163 -2 -1 -18 37 -36 85 -18 49 -46 123 -62 166 l-30 77 -70 0 c-52 0
-69 -3 -65 -12z"/>
</g>
</svg>
