<svg width="344" height="254" viewBox="0 0 344 254" fill="none" xmlns="http://www.w3.org/2000/svg">
<g clip-path="url(#clip0_114_11)">
<path opacity="0.1" d="M3.70264 121.655C9.13461 142.648 20.624 160.795 38.7806 169.592C76.5261 187.874 161.652 178.445 225.185 167.622C258.048 162.024 286.935 146.576 307.918 124.835L3.70264 121.655Z" fill="#77B629"/>
<path opacity="0.1" d="M336.864 22.838H302.005C300.35 22.838 298.993 21.6121 298.993 20.1142C298.993 18.6163 300.35 17.3873 302.005 17.3873H308.034C306.376 17.3873 305.022 16.1614 305.022 14.6603C305.022 13.1593 306.376 11.9365 308.034 11.9365H303.731C302.073 11.9365 300.716 10.7107 300.716 9.20959C300.716 7.70853 302.073 6.48579 303.731 6.48579H321.925C317.888 4.78771 313.169 3.5806 307.731 2.94578C258.117 -2.81768 240.405 0.994394 234.157 4.9128C226.368 9.85769 217.717 13.2888 208.657 15.0262C178.048 20.7396 120.804 27.6133 68.9207 12.8372C43.1337 5.47882 23.967 17.897 12.4807 38.6555H342.918C342.486 32.6231 341.195 27.0504 338.824 22.175C338.263 22.6085 337.573 22.8418 336.864 22.838Z" fill="#77B629"/>
<path opacity="0.1" d="M0.747509 77.8364C-0.591422 90.0456 -0.13628 102.385 2.09847 114.462L308.153 124.591C316.578 115.854 323.736 105.978 329.418 95.2519L0.747509 77.8364ZM121.796 103.964H115.77C117.427 103.964 118.784 105.193 118.784 106.691C118.784 108.189 117.427 109.415 115.77 109.415H80.9106C79.2563 109.415 77.899 108.189 77.899 106.691C77.899 105.193 79.2563 103.964 80.9106 103.964H86.9398C85.2824 103.964 83.9283 102.738 83.9283 101.241C83.9283 99.7426 85.2824 98.5136 86.9398 98.5136H82.6337C80.9762 98.5136 79.619 97.2877 79.619 95.7898C79.619 94.2918 80.9762 93.0628 82.6337 93.0628H117.493C119.15 93.0628 120.504 94.2887 120.504 95.7898C120.504 97.2908 119.15 98.5136 117.493 98.5136H121.796C123.453 98.5136 124.807 99.7394 124.807 101.241C124.807 102.742 123.453 103.964 121.796 103.964Z" fill="#77B629"/>
<path opacity="0.1" d="M342.931 38.8431L8.79381 46.1921C4.72842 55.6457 2.03276 66.3345 0.79126 77.4111H337.076C339.265 70.9306 340.889 64.273 341.93 57.5126C342.934 51.0049 343.334 44.7098 342.931 38.8431ZM68.6331 62.9383H62.6069C64.2644 62.9383 65.6216 64.1673 65.6216 65.6653C65.6216 67.1632 64.2644 68.3922 62.6069 68.3922H27.7479C26.0936 68.3922 24.7363 67.1632 24.7363 65.6653C24.7363 64.1673 26.0936 62.9383 27.7479 62.9383H33.7771C32.1197 62.9383 30.7656 61.7125 30.7656 60.2145C30.7656 58.7166 32.1197 57.4876 33.7771 57.4876H29.471C27.8135 57.4876 26.4563 56.2617 26.4563 54.7638C26.4563 53.2659 27.8135 52.0369 29.471 52.0369H64.33C65.9874 52.0369 67.3415 53.2627 67.3415 54.7638C67.3415 56.2649 65.9874 57.4876 64.33 57.4876H68.6331C70.2905 57.4876 71.6446 58.7166 71.6446 60.2145C71.6446 61.7125 70.2905 62.9383 68.6331 62.9383Z" fill="#77B629"/>
<path opacity="0.1" d="M170.458 244.261C247.657 244.261 310.239 238.503 310.239 231.401C310.239 224.3 247.657 218.542 170.458 218.542C93.2598 218.542 30.678 224.3 30.678 231.401C30.678 238.503 93.2598 244.261 170.458 244.261Z" fill="#77B629"/>
<path d="M254.039 134.42C255.594 134.42 256.854 133.566 256.854 132.513C256.854 131.459 255.594 130.605 254.039 130.605C252.485 130.605 251.225 131.459 251.225 132.513C251.225 133.566 252.485 134.42 254.039 134.42Z" fill="#575A89"/>
<path d="M162.299 238.697C215.581 238.697 258.774 195.504 258.774 142.223C258.774 88.9412 215.581 45.748 162.299 45.748C109.018 45.748 65.8248 88.9412 65.8248 142.223C65.8248 195.504 109.018 238.697 162.299 238.697Z" fill="#77B629"/>
<path d="M212.92 190.704C212.92 205.933 188.978 192.005 163.309 192.005C137.641 192.005 111.679 205.358 111.679 190.128C111.679 181.444 119.954 169.367 131.825 160.595C140.768 153.984 151.751 149.25 162.784 149.25C174.13 149.25 185.244 154.375 194.109 161.411C205.299 170.283 212.92 182.204 212.92 190.704Z" fill="#006218"/>
<path d="M194.106 161.405C180.462 159.35 155.785 156.846 131.825 160.589C140.769 153.978 151.751 149.243 162.784 149.243C174.127 149.243 185.241 154.369 194.106 161.405Z" fill="#F6F8FB"/>
<path opacity="0.05" d="M111.679 74.1213C111.679 74.1213 82.6179 92.7001 82.8556 121.761C83.0932 150.822 111.679 74.1213 111.679 74.1213Z" fill="black"/>
<path d="M258.736 21.6498C258.736 21.6498 232.405 20.0643 235.511 38.5148C235.511 38.5148 234.885 41.7734 237.85 43.2557C237.85 43.2557 237.897 41.8891 240.549 42.3519C241.494 42.51 242.454 42.5562 243.41 42.4895C244.702 42.4017 245.929 41.8944 246.906 41.0448C246.906 41.0448 254.308 37.9895 257.189 25.8903C257.189 25.8903 259.318 23.2509 259.234 22.5754L254.79 24.4705C254.79 24.4705 256.307 27.6759 255.103 30.3403C255.103 30.3403 254.959 24.5893 254.105 24.7113C253.933 24.7395 251.797 25.8215 251.797 25.8215C251.797 25.8215 254.408 31.4067 252.423 35.4627C252.423 35.4627 253.17 28.5828 250.965 26.2249L247.838 28.0512C247.838 28.0512 250.89 33.8178 248.82 38.5242C248.82 38.5242 249.352 31.3066 247.181 28.4952L244.345 30.7062C244.345 30.7062 247.213 36.3915 245.465 40.2942C245.465 40.2942 245.236 31.8914 243.732 31.2566C243.732 31.2566 241.252 33.4456 240.874 34.3431C240.874 34.3431 242.838 38.4679 241.621 40.6445C241.621 40.6445 240.874 35.0468 240.261 35.0155C240.261 35.0155 237.79 38.7244 237.531 41.2699C237.531 41.2699 237.64 37.486 239.66 34.6621C239.66 34.6621 237.271 35.0718 235.88 36.6229C235.88 36.6229 236.264 33.9991 240.258 33.7709C240.258 33.7709 242.3 30.9564 242.847 30.7875C242.847 30.7875 238.86 30.4529 236.443 31.5255C236.443 31.5255 238.569 29.0519 243.576 30.1746L246.39 27.8917C246.39 27.8917 241.143 27.1724 238.916 27.9667C238.916 27.9667 241.477 25.7777 247.144 27.3726L250.193 25.5494C250.193 25.5494 245.718 24.5862 243.05 24.924C243.05 24.924 245.865 23.4073 251.084 25.0522L253.273 24.0734C253.273 24.0734 249.993 23.4292 249.033 23.3291C248.073 23.229 248.023 22.9601 248.023 22.9601C250.106 22.6213 252.242 22.8693 254.193 23.6762C254.193 23.6762 258.815 21.9406 258.736 21.6498Z" fill="#006218"/>
<path d="M231.73 13.4471C231.73 13.4471 219.846 12.7278 221.235 21.065C221.235 21.065 220.957 22.5379 222.292 23.2071C222.292 23.2071 222.311 22.5817 223.512 22.8006C223.938 22.8708 224.372 22.8918 224.803 22.8631C225.387 22.8215 225.942 22.5922 226.385 22.2095C226.385 22.2095 229.728 20.8273 231.029 15.361C231.029 15.361 231.993 14.1695 231.968 13.863L229.96 14.7199C229.96 14.7199 230.648 16.1678 230.107 17.3717C230.107 17.3717 230.041 14.773 229.657 14.8356C229.578 14.8356 228.612 15.3359 228.612 15.3359C228.612 15.3359 229.794 17.8596 228.903 19.6921C228.903 19.6921 229.241 16.5837 228.246 15.5173L226.833 16.3429C226.833 16.3429 228.212 18.951 227.277 21.0775C227.277 21.0775 227.514 17.8158 226.536 16.5462L225.253 17.5437C225.253 17.5437 226.548 20.1112 225.76 21.8749C225.76 21.8749 225.657 18.0785 224.975 17.7908C224.975 17.7908 223.856 18.779 223.684 19.1855C223.684 19.1855 224.572 21.0619 224.021 22.0344C224.021 22.0344 223.684 19.5045 223.396 19.4951C223.396 19.4951 222.279 21.1682 222.164 22.3096C222.218 21.2474 222.549 20.2177 223.124 19.3231C222.48 19.4449 221.887 19.7526 221.416 20.2081C221.416 20.2081 221.588 19.0229 223.399 18.9197C223.399 18.9197 224.321 17.6501 224.569 17.5719C224.569 17.5719 222.767 17.4218 221.676 17.9065C221.676 17.9065 222.636 16.787 224.9 17.2811L226.151 16.2522C226.151 16.2522 223.78 15.9395 222.773 16.2835C222.773 16.2835 223.931 15.2953 226.492 16.0177L227.868 15.1921C227.868 15.1921 225.848 14.7574 224.64 14.9138C224.64 14.9138 225.913 14.2289 228.271 14.9732L229.256 14.5291C229.256 14.5291 227.774 14.2383 227.342 14.1945C226.911 14.1507 226.883 14.0288 226.883 14.0288C227.821 13.8726 228.785 13.9809 229.666 14.3415C229.666 14.3415 231.764 13.5784 231.73 13.4471Z" fill="#006218"/>
<path opacity="0.1" d="M335.578 228.29C340.23 228.29 344 227.653 344 226.867C344 226.081 340.23 225.444 335.578 225.444C330.927 225.444 327.157 226.081 327.157 226.867C327.157 227.653 330.927 228.29 335.578 228.29Z" fill="#77B629"/>
<path opacity="0.1" d="M14.6261 251.96C19.2772 251.96 23.0477 251.323 23.0477 250.537C23.0477 249.751 19.2772 249.114 14.6261 249.114C9.97494 249.114 6.20447 249.751 6.20447 250.537C6.20447 251.323 9.97494 251.96 14.6261 251.96Z" fill="#77B629"/>
<path opacity="0.1" d="M63.5138 253.745C68.1649 253.745 71.9353 253.108 71.9353 252.323C71.9353 251.537 68.1649 250.9 63.5138 250.9C58.8626 250.9 55.0922 251.537 55.0922 252.323C55.0922 253.108 58.8626 253.745 63.5138 253.745Z" fill="#77B629"/>
<path d="M317.147 244.242C324.091 244.242 329.721 243.29 329.721 242.115C329.721 240.941 324.091 239.989 317.147 239.989C310.202 239.989 304.572 240.941 304.572 242.115C304.572 243.29 310.202 244.242 317.147 244.242Z" fill="#006218"/>
<path d="M322.344 238.641C322.918 238.173 323.337 237.541 323.545 236.83C323.698 236.114 323.392 235.251 322.707 234.988C321.938 234.694 321.115 235.229 320.493 235.767C319.871 236.305 319.154 236.918 318.338 236.805C318.758 236.425 319.072 235.943 319.25 235.405C319.427 234.867 319.462 234.293 319.351 233.738C319.316 233.507 319.219 233.291 319.07 233.112C318.642 232.656 317.869 232.849 317.356 233.209C315.73 234.354 315.277 236.561 315.267 238.55C315.105 237.834 315.242 237.087 315.239 236.361C315.236 235.636 315.033 234.798 314.414 234.413C314.029 234.208 313.598 234.106 313.163 234.119C312.431 234.091 311.618 234.163 311.117 234.698C310.492 235.364 310.658 236.477 311.199 237.199C311.74 237.922 312.559 238.391 313.313 238.894C313.919 239.255 314.437 239.748 314.826 240.336C314.872 240.419 314.91 240.506 314.939 240.596H319.52C320.545 240.074 321.495 239.417 322.344 238.641Z" fill="#006218"/>
<path d="M18.5569 212.419C18.5569 212.419 20.2738 214.665 17.7626 218.048C15.2514 221.432 13.1812 224.303 14.0099 226.417C14.0099 226.417 17.797 220.118 20.8898 220.028C23.9826 219.937 21.9468 216.206 18.5569 212.419Z" fill="#77B629"/>
<path opacity="0.1" d="M18.5568 212.419C18.7059 212.636 18.8238 212.873 18.9071 213.123C21.9155 216.657 23.5166 219.956 20.627 220.037C17.9314 220.115 14.6853 224.931 13.9254 226.148C13.952 226.242 13.9833 226.335 14.0192 226.426C14.0192 226.426 17.8063 220.128 20.8991 220.037C23.9919 219.946 21.9467 216.206 18.5568 212.419Z" fill="black"/>
<path d="M21.7496 215.281C21.7496 216.072 21.6589 216.713 21.5494 216.713C21.44 216.713 21.3524 216.088 21.3524 215.281C21.3524 214.474 21.4619 214.862 21.5745 214.862C21.687 214.862 21.7496 214.49 21.7496 215.281Z" fill="#006218"/>
<path d="M22.8319 216.225C22.1376 216.603 21.5341 216.832 21.4809 216.735C21.4277 216.638 21.95 216.256 22.6442 215.878C23.3385 215.5 23.0633 215.775 23.1164 215.878C23.1696 215.981 23.5386 215.847 22.8319 216.225Z" fill="#006218"/>
<path d="M9.48171 212.419C9.48171 212.419 7.76486 214.665 10.2729 218.048C12.7809 221.432 14.8543 224.303 14.0256 226.417C14.0256 226.417 10.2354 220.118 7.14568 220.028C4.05599 219.937 6.08868 216.206 9.48171 212.419Z" fill="#77B629"/>
<path opacity="0.1" d="M9.48172 212.419C9.33126 212.635 9.21326 212.872 9.13148 213.123C6.12309 216.657 4.51883 219.956 7.41151 220.037C10.104 220.115 13.3532 224.931 14.11 226.148C14.0845 226.242 14.0542 226.335 14.0193 226.426C14.0193 226.426 10.2291 220.128 7.13944 220.037C4.04975 219.946 6.08869 216.206 9.48172 212.419Z" fill="black"/>
<path d="M6.28882 215.281C6.28882 216.072 6.37638 216.713 6.48583 216.713C6.59529 216.713 6.68285 216.088 6.68285 215.281C6.68285 214.474 6.5734 214.862 6.46394 214.862C6.35449 214.862 6.28882 214.49 6.28882 215.281Z" fill="#006218"/>
<path d="M5.19126 216.225C5.88551 216.603 6.49219 216.832 6.54535 216.735C6.59851 216.638 6.07627 216.256 5.38202 215.878C4.68778 215.5 4.95985 215.775 4.90982 215.878C4.85978 215.981 4.49702 215.847 5.19126 216.225Z" fill="#006218"/>
<path d="M6.83618 226.132C6.83618 226.132 11.6396 225.985 13.0906 224.953C14.5416 223.921 20.4802 222.692 20.8399 224.328C21.1995 225.963 28.0575 232.552 22.6349 232.596C17.2123 232.64 10.0353 231.749 8.59055 230.87C7.14578 229.991 6.83618 226.132 6.83618 226.132Z" fill="#006218"/>
<path opacity="0.2" d="M22.7256 232.036C17.303 232.08 10.126 231.189 8.68124 230.31C7.58046 229.641 7.14265 227.236 6.99567 226.126H6.83618C6.83618 226.126 7.1489 230.001 8.5843 230.879C10.0197 231.758 17.206 232.649 22.6286 232.605C24.1922 232.605 24.7332 232.033 24.7051 231.211C24.4862 231.714 23.892 232.027 22.7256 232.036Z" fill="black"/>
<path d="M128 129.573C129.836 129.47 138.476 128.819 143.965 125.689C144.846 125.17 145.842 124.877 146.864 124.835C148.609 124.785 150.616 125.514 149.331 129.592C147.248 136.262 135.155 143.767 127.65 143.352C120.432 142.951 111.87 140.043 106.216 129.817C105.674 128.833 105.408 127.722 105.444 126.599C105.509 124.535 106.26 121.949 110.134 124.832C115.369 128.726 125.301 129.464 127.294 129.573C127.529 129.586 127.765 129.586 128 129.573Z" fill="#006218"/>
<path d="M197.424 129.573C199.26 129.47 207.9 128.819 213.389 125.689C214.27 125.17 215.266 124.877 216.288 124.835C218.033 124.785 220.04 125.514 218.755 129.592C216.672 136.262 204.579 143.767 197.074 143.352C189.856 142.951 181.294 140.043 175.64 129.817C175.098 128.833 174.831 127.722 174.868 126.599C174.933 124.535 175.684 121.949 179.558 124.832C184.793 128.726 194.725 129.464 196.717 129.573C196.953 129.586 197.189 129.586 197.424 129.573Z" fill="#006218"/>
</g>
<defs>
<clipPath id="clip0_114_11">
<rect width="344" height="253.745" fill="white"/>
</clipPath>
</defs>
</svg>
