<svg width="204" height="234" viewBox="0 0 204 234" fill="none" xmlns="http://www.w3.org/2000/svg">
<path d="M147.504 4.78713C147.436 4.78713 147.371 4.76028 147.323 4.71247C147.276 4.66467 147.249 4.59983 147.249 4.53223V0.254906C147.249 0.187301 147.276 0.122464 147.323 0.07466C147.371 0.0268559 147.436 0 147.504 0C147.571 0.00130516 147.635 0.0285799 147.682 0.076104C147.73 0.123628 147.757 0.187709 147.758 0.254906V4.51693C147.76 4.5515 147.754 4.58599 147.742 4.61839C147.73 4.65078 147.712 4.68043 147.688 4.7056C147.664 4.73076 147.636 4.75093 147.604 4.76493C147.572 4.77894 147.538 4.78648 147.504 4.78713Z" fill="#263238"/>
<path d="M147.504 60.739C147.436 60.739 147.371 60.7122 147.323 60.6643C147.276 60.6165 147.249 60.5517 147.249 60.4841V56.9562C147.249 56.8886 147.276 56.8238 147.323 56.776C147.371 56.7281 147.436 56.7013 147.504 56.7013C147.571 56.7026 147.635 56.7299 147.682 56.7774C147.73 56.8249 147.757 56.889 147.758 56.9562V60.4841C147.758 60.5517 147.732 60.6165 147.684 60.6643C147.636 60.7122 147.571 60.739 147.504 60.739Z" fill="#263238"/>
<path d="M177.603 30.9966H173.713C173.645 30.9966 173.58 30.9697 173.533 30.9219C173.485 30.8741 173.458 30.8093 173.458 30.7417C173.459 30.6745 173.486 30.6104 173.534 30.5629C173.582 30.5153 173.646 30.4881 173.713 30.4868H177.603C177.67 30.4868 177.735 30.5136 177.783 30.5614C177.831 30.6092 177.858 30.6741 177.858 30.7417C177.858 30.8093 177.831 30.8741 177.783 30.9219C177.735 30.9697 177.67 30.9966 177.603 30.9966Z" fill="#263238"/>
<path d="M121.289 30.9966H117.399C117.332 30.9966 117.267 30.9697 117.219 30.9219C117.171 30.8741 117.144 30.8093 117.144 30.7417C117.144 30.6741 117.171 30.6092 117.219 30.5614C117.267 30.5136 117.332 30.4868 117.399 30.4868H121.289C121.356 30.4881 121.42 30.5153 121.468 30.5629C121.515 30.6104 121.543 30.6745 121.544 30.7417C121.544 30.8093 121.517 30.8741 121.469 30.9219C121.421 30.9697 121.357 30.9966 121.289 30.9966Z" fill="#263238"/>
<path d="M166.035 12.4905C165.968 12.4895 165.904 12.462 165.857 12.414C165.81 12.3655 165.784 12.3006 165.784 12.233C165.784 12.1655 165.81 12.1005 165.857 12.052L168.788 9.12062C168.812 9.09685 168.84 9.078 168.871 9.06514C168.902 9.05227 168.936 9.04565 168.969 9.04565C169.003 9.04565 169.036 9.05227 169.067 9.06514C169.098 9.078 169.127 9.09685 169.15 9.12062C169.174 9.14439 169.193 9.1726 169.206 9.20366C169.219 9.23471 169.225 9.26799 169.225 9.3016C169.225 9.33521 169.219 9.3685 169.206 9.39955C169.193 9.4306 169.174 9.45882 169.15 9.48259L166.219 12.414C166.17 12.4628 166.104 12.4903 166.035 12.4905Z" fill="#263238"/>
<path d="M126.397 52.1079C126.364 52.1077 126.331 52.1008 126.3 52.0877C126.27 52.0746 126.242 52.0554 126.219 52.0314C126.195 52.0077 126.176 51.9795 126.163 51.9485C126.15 51.9174 126.144 51.8841 126.144 51.8504C126.144 51.8168 126.15 51.7835 126.163 51.7524C126.176 51.7213 126.195 51.6931 126.219 51.6694L128.768 49.1204C128.792 49.0965 128.82 49.0775 128.851 49.0646C128.882 49.0516 128.915 49.045 128.949 49.045C128.983 49.045 129.016 49.0516 129.047 49.0646C129.078 49.0775 129.106 49.0965 129.13 49.1204C129.154 49.1433 129.174 49.1709 129.187 49.2016C129.2 49.2323 129.207 49.2654 129.207 49.2988C129.207 49.3323 129.2 49.3653 129.187 49.396C129.174 49.4267 129.154 49.4544 129.13 49.4773L126.581 52.0263C126.557 52.0514 126.529 52.0715 126.497 52.0855C126.466 52.0995 126.432 52.1071 126.397 52.1079Z" fill="#263238"/>
<path d="M128.967 12.4905C128.898 12.4903 128.832 12.4628 128.783 12.414L125.852 9.48259C125.804 9.43459 125.777 9.36948 125.777 9.3016C125.777 9.23372 125.804 9.16862 125.852 9.12062C125.9 9.07262 125.965 9.04565 126.033 9.04565C126.101 9.04565 126.166 9.07262 126.214 9.12062L129.145 12.052C129.169 12.0757 129.188 12.1039 129.201 12.135C129.214 12.1661 129.221 12.1994 129.221 12.233C129.221 12.2667 129.214 12.3 129.201 12.3311C129.188 12.3621 129.169 12.3903 129.145 12.414C129.122 12.438 129.094 12.4571 129.064 12.4703C129.033 12.4834 129 12.4903 128.967 12.4905Z" fill="#263238"/>
<path d="M168.605 52.1078C168.571 52.1082 168.538 52.1016 168.507 52.0884C168.477 52.0753 168.449 52.0558 168.426 52.0313L165.877 49.4823C165.831 49.4346 165.804 49.3705 165.804 49.3038C165.804 49.2371 165.831 49.173 165.877 49.1254C165.901 49.1015 165.929 49.0825 165.96 49.0696C165.991 49.0567 166.025 49.05 166.058 49.05C166.092 49.05 166.125 49.0567 166.156 49.0696C166.187 49.0825 166.216 49.1015 166.239 49.1254L168.788 51.6745C168.812 51.6981 168.831 51.7263 168.844 51.7574C168.857 51.7885 168.864 51.8218 168.864 51.8554C168.864 51.8891 168.857 51.9224 168.844 51.9535C168.831 51.9845 168.812 52.0127 168.788 52.0364C168.765 52.0606 168.736 52.0795 168.704 52.0918C168.673 52.1041 168.639 52.1096 168.605 52.1078Z" fill="#263238"/>
<path d="M147.504 40.943C153.338 40.943 158.067 36.2137 158.067 30.3797C158.067 24.5458 153.338 19.8164 147.504 19.8164C141.67 19.8164 136.94 24.5458 136.94 30.3797C136.94 36.2137 141.67 40.943 147.504 40.943Z" fill="#77B629"/>
<path d="M147.504 41.1979C145.364 41.1979 143.272 40.5635 141.493 39.3748C139.714 38.186 138.328 36.4965 137.509 34.5197C136.69 32.5429 136.476 30.3677 136.893 28.2692C137.311 26.1707 138.341 24.2431 139.854 22.7301C141.367 21.2172 143.294 20.1868 145.393 19.7694C147.492 19.352 149.667 19.5662 151.643 20.385C153.62 21.2038 155.31 22.5904 156.499 24.3695C157.687 26.1485 158.322 28.2401 158.322 30.3797C158.319 33.2481 157.178 35.9982 155.15 38.0264C153.122 40.0546 150.372 41.1952 147.504 41.1979ZM147.504 20.0713C145.465 20.0713 143.472 20.6759 141.776 21.8086C140.081 22.9413 138.76 24.5513 137.98 26.4349C137.2 28.3185 136.995 30.3912 137.393 32.3908C137.791 34.3904 138.773 36.2272 140.214 37.6689C141.656 39.1105 143.493 40.0923 145.492 40.4901C147.492 40.8878 149.565 40.6837 151.448 39.9035C153.332 39.1232 154.942 37.802 156.075 36.1068C157.207 34.4116 157.812 32.4185 157.812 30.3797C157.809 27.6466 156.722 25.0262 154.79 23.0936C152.857 21.161 150.237 20.074 147.504 20.0713Z" fill="#263238"/>
<path d="M147.504 17.6446C147.436 17.6446 147.371 17.6178 147.323 17.57C147.276 17.5222 147.249 17.4573 147.249 17.3897V9.6202C147.249 9.5526 147.276 9.48776 147.323 9.43996C147.371 9.39215 147.436 9.3653 147.504 9.3653C147.571 9.3653 147.636 9.39215 147.684 9.43996C147.732 9.48776 147.758 9.5526 147.758 9.6202V17.3897C147.757 17.4569 147.73 17.521 147.682 17.5685C147.635 17.6161 147.571 17.6433 147.504 17.6446Z" fill="#263238"/>
<path d="M147.504 52.1282C147.436 52.1282 147.371 52.1013 147.323 52.0535C147.276 52.0057 147.249 51.9409 147.249 51.8733V44.0987C147.249 44.0311 147.276 43.9662 147.323 43.9184C147.371 43.8706 147.436 43.8438 147.504 43.8438C147.571 43.8451 147.635 43.8723 147.682 43.9199C147.73 43.9674 147.757 44.0315 147.758 44.0987V51.8733C147.757 51.9405 147.73 52.0046 147.682 52.0521C147.635 52.0996 147.571 52.1269 147.504 52.1282Z" fill="#263238"/>
<path d="M168.63 31.0017H160.855C160.788 31.0004 160.724 30.9731 160.677 30.9256C160.629 30.8781 160.602 30.814 160.601 30.7468C160.601 30.6792 160.627 30.6143 160.675 30.5665C160.723 30.5187 160.788 30.4919 160.855 30.4919H168.63C168.698 30.4919 168.763 30.5187 168.81 30.5665C168.858 30.6143 168.885 30.6792 168.885 30.7468C168.884 30.814 168.856 30.8781 168.809 30.9256C168.761 30.9731 168.697 31.0004 168.63 31.0017Z" fill="#263238"/>
<path d="M134.146 31.0017H126.377C126.309 31.0017 126.244 30.9748 126.197 30.927C126.149 30.8792 126.122 30.8144 126.122 30.7468C126.122 30.6792 126.149 30.6143 126.197 30.5665C126.244 30.5187 126.309 30.4919 126.377 30.4919H134.146C134.214 30.4919 134.279 30.5187 134.327 30.5665C134.374 30.6143 134.401 30.6792 134.401 30.7468C134.4 30.814 134.373 30.8781 134.325 30.9256C134.278 30.9731 134.214 31.0004 134.146 31.0017Z" fill="#263238"/>
<path d="M156.945 21.5549C156.895 21.5542 156.847 21.5389 156.805 21.5108C156.764 21.4827 156.732 21.4432 156.713 21.3971C156.694 21.3509 156.689 21.3002 156.699 21.2512C156.708 21.2023 156.732 21.1572 156.767 21.1215L162.263 15.6258C162.285 15.6014 162.313 15.5819 162.344 15.5687C162.374 15.5554 162.408 15.5485 162.441 15.5485C162.474 15.5485 162.507 15.5554 162.538 15.5687C162.569 15.5819 162.597 15.6014 162.619 15.6258C162.643 15.6495 162.662 15.6777 162.675 15.7087C162.688 15.7398 162.695 15.7731 162.695 15.8068C162.695 15.8404 162.688 15.8737 162.675 15.9048C162.662 15.9358 162.643 15.964 162.619 15.9877L157.134 21.4784C157.11 21.5042 157.081 21.5245 157.048 21.5377C157.015 21.5509 156.98 21.5568 156.945 21.5549Z" fill="#263238"/>
<path d="M132.561 45.9392C132.494 45.9382 132.43 45.9108 132.383 45.8627C132.336 45.8142 132.309 45.7493 132.309 45.6817C132.309 45.6142 132.336 45.5493 132.383 45.5008L137.878 40.0203C137.902 39.9964 137.93 39.9774 137.961 39.9645C137.992 39.9515 138.026 39.9449 138.059 39.9449C138.093 39.9449 138.126 39.9515 138.157 39.9645C138.189 39.9774 138.217 39.9964 138.24 40.0203C138.287 40.0679 138.313 40.132 138.313 40.1987C138.313 40.2654 138.287 40.3295 138.24 40.3772L132.745 45.8729C132.694 45.918 132.629 45.9418 132.561 45.9392Z" fill="#263238"/>
<path d="M138.057 21.5549C138.024 21.5547 137.991 21.5478 137.96 21.5347C137.929 21.5215 137.902 21.5024 137.878 21.4784L132.383 15.9877C132.336 15.9392 132.309 15.8743 132.309 15.8067C132.309 15.7392 132.336 15.6743 132.383 15.6258C132.406 15.6019 132.435 15.5829 132.466 15.57C132.497 15.557 132.53 15.5504 132.564 15.5504C132.597 15.5504 132.631 15.557 132.662 15.57C132.693 15.5829 132.721 15.6019 132.745 15.6258L138.24 21.1215C138.287 21.1692 138.313 21.2332 138.313 21.3C138.313 21.3667 138.287 21.4307 138.24 21.4784C138.192 21.5272 138.126 21.5547 138.057 21.5549Z" fill="#263238"/>
<path d="M162.441 45.9391C162.408 45.9395 162.375 45.9329 162.344 45.9198C162.313 45.9066 162.286 45.8871 162.263 45.8626L156.767 40.3669C156.72 40.3196 156.693 40.2554 156.693 40.1884C156.693 40.1215 156.72 40.0573 156.767 40.01C156.814 39.9627 156.879 39.9361 156.945 39.9361C157.012 39.9361 157.077 39.9627 157.124 40.01L162.62 45.5007C162.644 45.5244 162.663 45.5526 162.675 45.5836C162.688 45.6147 162.695 45.648 162.695 45.6817C162.695 45.7153 162.688 45.7486 162.675 45.7797C162.663 45.8108 162.644 45.839 162.62 45.8626C162.597 45.8871 162.569 45.9066 162.539 45.9198C162.508 45.9329 162.475 45.9395 162.441 45.9391Z" fill="#263238"/>
<path opacity="0.19" d="M109.211 51.1138C108.601 49.9637 107.729 48.9724 106.667 48.2191C105.605 47.4658 104.381 46.9713 103.094 46.7753C98.7551 46.1839 96.9759 50.5224 95.5994 52.893C94.2229 55.2636 91.2609 52.3016 87.9063 52.5004C84.5518 52.6993 84.1592 54.6671 82.9765 56.0691C81.7937 57.4711 78.4391 55.8703 76.665 56.8593C74.8908 57.8484 74.692 59.2249 74.692 59.2249H124.394C124.394 59.2249 125.974 53.7036 121.845 53.1071C117.715 52.5106 116.522 54.6824 115.14 54.2899C113.759 53.8973 114.35 51.333 112.377 50.7212C111.856 50.53 111.297 50.4659 110.747 50.5342C110.196 50.6025 109.67 50.8012 109.211 51.1138Z" fill="black"/>
<path opacity="0.19" d="M60.1879 63.6144C59.5771 62.4643 58.7058 61.473 57.6435 60.7197C56.5813 59.9664 55.3576 59.4719 54.0702 59.2759C49.7317 58.6845 47.9525 63.023 46.576 65.3936C45.1995 67.7642 42.2375 64.8022 38.8829 65.0011C35.5283 65.1999 35.1358 67.1678 33.953 68.5697C32.7703 69.9717 29.4157 68.3709 27.6416 69.3599C25.8674 70.349 25.6686 71.7255 25.6686 71.7255H75.3752C75.3752 71.7255 76.9506 66.2042 72.8262 65.6077C68.7018 65.0112 67.4986 67.183 66.1171 66.7905C64.7355 66.3979 65.3319 63.8336 63.359 63.2218C62.8374 63.0298 62.2774 62.9652 61.7258 63.0335C61.1742 63.1018 60.647 63.301 60.1879 63.6144Z" fill="black"/>
<path opacity="0.19" d="M152.984 63.6144C152.373 62.4643 151.502 61.473 150.439 60.7197C149.377 59.9664 148.153 59.4719 146.866 59.2759C142.528 58.6845 140.748 63.023 139.372 65.3936C137.995 67.7642 135.033 64.8022 131.679 65.0011C128.324 65.1999 127.932 67.1678 126.749 68.5697C125.566 69.9717 122.212 68.3709 120.437 69.3599C118.663 70.349 118.464 71.7255 118.464 71.7255H168.166C168.166 71.7255 169.746 66.2042 165.617 65.6077C161.488 65.0112 160.295 67.183 158.913 66.7905C157.531 66.3979 158.123 63.8336 156.15 63.2218C155.629 63.0306 155.07 62.9665 154.519 63.0348C153.969 63.1031 153.442 63.3018 152.984 63.6144Z" fill="black"/>
<path opacity="0.19" d="M177.016 102.289C176.688 101.67 176.22 101.137 175.649 100.732C175.078 100.326 174.42 100.06 173.728 99.9537C171.398 99.6376 170.445 101.967 169.701 103.242C168.956 104.517 167.371 102.921 165.571 103.028C163.771 103.135 163.557 104.195 162.92 104.935C162.283 105.674 160.483 104.833 159.53 105.363C159.27 105.483 159.04 105.659 158.857 105.878C158.673 106.098 158.541 106.355 158.469 106.632H185.173C185.173 106.632 186.025 103.665 183.797 103.349C181.569 103.033 180.937 104.195 180.192 103.981C179.448 103.767 179.769 102.391 178.709 102.075C178.43 101.973 178.131 101.94 177.837 101.977C177.542 102.014 177.261 102.121 177.016 102.289Z" fill="black"/>
<path opacity="0.19" d="M31.562 102.289C31.234 101.671 30.7665 101.138 30.1965 100.733C29.6266 100.328 28.9699 100.061 28.2788 99.9537C25.9489 99.6376 24.9956 101.967 24.2513 103.242C23.5069 104.517 21.9214 102.921 20.1167 103.028C18.312 103.135 18.1029 104.195 17.4708 104.935C16.8386 105.674 15.0288 104.833 14.0754 105.363C13.8157 105.483 13.5859 105.659 13.4025 105.878C13.2191 106.098 13.0868 106.355 13.015 106.632H39.7241C39.7241 106.632 40.5703 103.665 38.3476 103.349C36.1248 103.033 35.4824 104.195 34.7432 103.981C34.004 103.767 34.3201 102.391 33.2596 102.075C32.98 101.973 32.6802 101.94 32.385 101.977C32.0898 102.014 31.8077 102.121 31.562 102.289Z" fill="black"/>
<path d="M160.935 60.9887L154.521 55.46L137.027 75.7565L143.441 81.2851L160.935 60.9887Z" fill="#263238"/>
<path d="M143.461 81.6464L136.665 75.7835L154.509 55.1005L161.304 60.9633L143.461 81.6464ZM137.384 75.7071L143.41 80.9071L160.57 60.9939L154.544 55.8244L137.384 75.7071Z" fill="#263238"/>
<path d="M167.267 72.2797L160.922 66.8109L144.726 85.6013L151.07 91.0701L167.267 72.2797Z" fill="#263238"/>
<path d="M151.088 91.4298L144.358 85.6332L160.886 66.4592L167.616 72.2557L151.088 91.4298ZM145.077 85.5771L151.016 90.7109L166.877 72.3118L160.922 67.178L145.077 85.5771Z" fill="#263238"/>
<path d="M115.07 80.2598L119.082 75.6053L122.906 78.9038L131.909 68.4577L155.6 88.8757L159.148 84.7564L163.267 88.3098L156.803 95.8091L159.301 97.9656L149.706 109.095L115.07 80.2598Z" fill="#263238"/>
<path d="M149.737 109.452L114.708 80.2955L119.056 75.2484L122.88 78.5469L131.883 68.1008L155.569 88.5188L159.138 84.3995L163.644 88.2843L157.175 95.7887L159.678 97.9452L149.737 109.452ZM115.432 80.2293L149.681 108.738L158.944 97.9911L156.441 95.8397L162.91 88.3353L159.173 85.1133L155.605 89.2376L131.919 68.8146L122.931 79.2759L119.107 75.9774L115.432 80.2293Z" fill="#263238"/>
<path d="M157.883 76.6621L150.785 70.5443L131.213 93.2503L138.311 99.3681L157.883 76.6621Z" fill="white"/>
<path d="M138.327 99.7295L130.843 93.2752L150.751 70.1859L158.235 76.635L138.327 99.7295ZM131.562 93.2243L138.271 99.0106L157.511 76.691L150.802 70.9047L131.562 93.2243Z" fill="#263238"/>
<path d="M160.185 78.6406L153.087 72.5228L133.516 95.2289L140.613 101.347L160.185 78.6406Z" fill="white"/>
<path d="M140.632 101.708L133.173 95.2585L153.056 72.1691L160.54 78.6182L140.632 101.708ZM133.866 95.2024L140.576 100.989L159.816 78.6692L153.107 72.8879L133.866 95.2024Z" fill="#263238"/>
<path d="M161.666 78.0291L151.182 68.9921L149.86 70.5252L160.344 79.5621L161.666 78.0291Z" fill="white"/>
<path d="M160.361 79.9284L149.487 70.558L151.144 68.636L162.013 78.0064L160.361 79.9284ZM150.211 70.5071L160.31 79.2095L161.299 78.0625L151.2 69.3549L150.211 70.5071Z" fill="#263238"/>
<path d="M162.399 77.6918L154.227 70.703L152.912 72.2412L161.083 79.23L162.399 77.6918Z" fill="white"/>
<path d="M160.361 79.9283L151.832 72.5768L153.489 70.6548L162.018 78.0063L160.361 79.9283ZM152.546 72.5208L160.305 79.2095L161.294 78.0624L153.566 71.3737L152.546 72.5208Z" fill="#263238"/>
<path d="M153.525 75.9196L152.119 74.708L150.245 76.8821L151.651 78.0937L153.525 75.9196Z" fill="#263238"/>
<path d="M155.951 78.0064L154.545 76.7949L152.671 78.9689L154.077 80.1805L155.951 78.0064Z" fill="#263238"/>
<path d="M158.383 80.1056L156.977 78.894L155.103 81.0681L156.509 82.2797L158.383 80.1056Z" fill="#263238"/>
<path d="M150.301 73.1266L149.891 72.7737L148.017 74.9478L148.427 75.3006L150.301 73.1266Z" fill="#263238"/>
<path d="M150.994 73.7467L150.585 73.3939L148.711 75.5679L149.12 75.9208L150.994 73.7467Z" fill="#263238"/>
<path d="M147.425 76.4615L147.015 76.1086L145.141 78.2827L145.551 78.6355L147.425 76.4615Z" fill="#263238"/>
<path d="M148.117 77.0765L147.708 76.7236L145.834 78.8977L146.243 79.2505L148.117 77.0765Z" fill="#263238"/>
<path d="M144.542 79.7997L144.132 79.4469L142.258 81.621L142.668 81.9738L144.542 79.7997Z" fill="#263238"/>
<path d="M145.241 80.4114L144.832 80.0585L142.958 82.2326L143.367 82.5854L145.241 80.4114Z" fill="#263238"/>
<path d="M141.665 83.1346L141.256 82.7818L139.382 84.9559L139.791 85.3087L141.665 83.1346Z" fill="#263238"/>
<path d="M142.387 83.7356L141.978 83.3828L140.104 85.5569L140.513 85.9097L142.387 83.7356Z" fill="#263238"/>
<path d="M138.793 86.4677L138.384 86.1149L136.51 88.2889L136.919 88.6418L138.793 86.4677Z" fill="#263238"/>
<path d="M139.511 87.0705L139.102 86.7177L137.228 88.8918L137.637 89.2446L139.511 87.0705Z" fill="#263238"/>
<path d="M150.652 79.2457L149.246 78.0341L147.372 80.2082L148.778 81.4198L150.652 79.2457Z" fill="#263238"/>
<path d="M153.083 81.3446L151.678 80.1331L149.804 82.3071L151.21 83.5187L153.083 81.3446Z" fill="#263238"/>
<path d="M155.506 83.4353L154.1 82.2238L152.227 84.3978L153.632 85.6094L155.506 83.4353Z" fill="#263238"/>
<path d="M147.779 82.5839L146.374 81.3723L144.5 83.5464L145.905 84.758L147.779 82.5839Z" fill="#263238"/>
<path d="M150.202 84.6795L148.797 83.468L146.923 85.642L148.328 86.8536L150.202 84.6795Z" fill="#263238"/>
<path d="M153.376 86.489L151.966 85.2828L150.1 87.4642L151.511 88.6704L153.376 86.489Z" fill="#263238"/>
<path d="M144.903 85.9137L143.497 84.7021L141.623 86.8762L143.029 88.0877L144.903 85.9137Z" fill="#263238"/>
<path d="M147.335 88.0128L145.929 86.8012L144.055 88.9753L145.461 90.1868L147.335 88.0128Z" fill="#263238"/>
<path d="M149.761 90.1047L148.355 88.8931L146.481 91.0671L147.887 92.2787L149.761 90.1047Z" fill="#263238"/>
<path d="M142.031 89.2519L140.625 88.0403L138.751 90.2144L140.157 91.4259L142.031 89.2519Z" fill="#263238"/>
<path d="M144.462 91.3437L143.056 90.1321L141.182 92.3062L142.588 93.5178L144.462 91.3437Z" fill="#263238"/>
<path d="M146.89 93.4344L145.484 92.2228L143.61 94.3969L145.016 95.6085L146.89 93.4344Z" fill="#263238"/>
<path d="M143.705 75.0523L135.079 67.6164L120.753 84.2366L129.38 91.6725L143.705 75.0523Z" fill="white"/>
<path d="M129.405 92.0211L120.392 84.2515L135.049 67.2442L144.063 75.0137L129.405 92.0211ZM121.111 84.1954L129.349 91.3022L143.369 75.0851L135.126 67.9783L121.111 84.1954Z" fill="#263238"/>
<path d="M146.504 77.4673L137.878 70.0314L123.552 86.6516L132.178 94.0875L146.504 77.4673Z" fill="white"/>
<path d="M132.199 94.4479L123.186 86.6783L137.848 69.671L146.861 77.4405L132.199 94.4479ZM123.905 86.6223L132.153 93.729L146.148 77.4915L137.904 70.3899L123.905 86.6223Z" fill="#263238"/>
<path d="M147.856 77.2442L135.112 66.2601L134.144 67.3838L146.887 78.3679L147.856 77.2442Z" fill="white"/>
<path d="M146.907 78.7303L133.78 67.4125L135.08 65.8831L148.207 77.2366L146.907 78.7303ZM134.499 67.3615L146.856 78.0115L147.489 77.2723L135.136 66.6223L134.499 67.3615Z" fill="#263238"/>
<path d="M147.855 77.2478L137.958 68.7168L136.989 69.8405L146.886 78.3715L147.855 77.2478Z" fill="white"/>
<path d="M146.907 78.7304L136.624 69.8648L137.924 68.3353L148.207 77.2366L146.907 78.7304ZM137.343 69.8138L146.856 78.0116L147.488 77.2723L137.975 69.0797L137.343 69.8138Z" fill="#263238"/>
<path d="M139.131 73.3148L137.42 71.8403L136.049 73.4312L137.76 74.9058L139.131 73.3148Z" fill="#263238"/>
<path d="M142.087 75.8587L140.376 74.3842L139.005 75.9751L140.715 77.4497L142.087 75.8587Z" fill="#263238"/>
<path d="M145.041 78.4059L143.331 76.9314L141.959 78.5224L143.67 79.9969L145.041 78.4059Z" fill="#263238"/>
<path d="M135.205 69.9285L134.707 69.4991L133.335 71.0901L133.833 71.5195L135.205 69.9285Z" fill="#263238"/>
<path d="M136.075 70.6652L135.576 70.2358L134.205 71.8268L134.703 72.2562L136.075 70.6652Z" fill="#263238"/>
<path d="M133.102 72.3713L132.603 71.9419L131.232 73.5329L131.73 73.9622L133.102 72.3713Z" fill="#263238"/>
<path d="M133.96 73.1114L133.462 72.6821L132.09 74.273L132.588 74.7024L133.96 73.1114Z" fill="#263238"/>
<path d="M130.99 74.8137L130.492 74.3843L129.121 75.9753L129.619 76.4047L130.99 74.8137Z" fill="#263238"/>
<path d="M131.855 75.5504L131.357 75.121L129.985 76.712L130.483 77.1414L131.855 75.5504Z" fill="#263238"/>
<path d="M128.873 77.2575L128.375 76.8281L127.003 78.4188L127.501 78.8483L128.873 77.2575Z" fill="#263238"/>
<path d="M129.765 77.9865L129.267 77.5571L127.896 79.1481L128.394 79.5775L129.765 77.9865Z" fill="#263238"/>
<path d="M126.796 79.6888L126.298 79.2594L124.927 80.8504L125.425 81.2797L126.796 79.6888Z" fill="#263238"/>
<path d="M127.64 80.4306L127.142 80.0012L125.77 81.5922L126.269 82.0216L127.64 80.4306Z" fill="#263238"/>
<path d="M137.035 75.7521L135.324 74.2775L133.953 75.8685L135.663 77.343L137.035 75.7521Z" fill="#263238"/>
<path d="M139.985 78.301L138.275 76.8264L136.903 78.4174L138.614 79.8919L139.985 78.301Z" fill="#263238"/>
<path d="M142.933 80.8488L141.222 79.3743L139.851 80.9652L141.561 82.4398L142.933 80.8488Z" fill="#263238"/>
<path d="M134.926 78.195L133.216 76.7205L131.844 78.3114L133.555 79.786L134.926 78.195Z" fill="#263238"/>
<path d="M138.56 80.4806L136.844 79.0126L135.478 80.6089L137.195 82.0769L138.56 80.4806Z" fill="#263238"/>
<path d="M140.832 83.2861L139.121 81.8116L137.75 83.4026L139.46 84.8771L140.832 83.2861Z" fill="#263238"/>
<path d="M132.825 80.6321L131.115 79.1576L129.743 80.7486L131.454 82.2231L132.825 80.6321Z" fill="#263238"/>
<path d="M135.781 83.176L134.07 81.7015L132.699 83.2924L134.41 84.767L135.781 83.176Z" fill="#263238"/>
<path d="M138.728 85.7239L137.018 84.2493L135.646 85.8403L137.357 87.3148L138.728 85.7239Z" fill="#263238"/>
<path d="M130.722 83.0751L129.011 81.6005L127.64 83.1915L129.351 84.666L130.722 83.0751Z" fill="#263238"/>
<path d="M133.678 85.6189L131.967 84.1444L130.596 85.7354L132.306 87.2099L133.678 85.6189Z" fill="#263238"/>
<path d="M136.627 88.1663L134.917 86.6918L133.545 88.2827L135.256 89.7573L136.627 88.1663Z" fill="#263238"/>
<path d="M161.658 90.5234L153.031 83.0875L138.706 99.7077L147.332 107.144L161.658 90.5234Z" fill="white"/>
<path d="M147.356 107.509L138.343 99.7396L153 82.7323L162.013 90.4916L147.356 107.509ZM139.061 99.6683L147.3 106.806L161.294 90.5732L153.056 83.4511L139.061 99.6683Z" fill="#263238"/>
<path d="M164.457 92.9386L155.83 85.5027L141.504 102.123L150.131 109.559L164.457 92.9386Z" fill="white"/>
<path d="M150.15 109.921L141.136 102.151L155.798 85.1438L164.812 92.9133L150.15 109.921ZM141.84 102.095L150.099 109.202L164.093 92.9694L155.849 85.8626L141.84 102.095Z" fill="#263238"/>
<path d="M165.808 92.7206L153.065 81.7365L152.097 82.8602L164.84 93.8444L165.808 92.7206Z" fill="white"/>
<path d="M164.858 94.2032L151.73 82.8853L153.03 81.3559L166.158 92.6737L164.858 94.2032ZM152.449 82.8445L164.807 93.4945L165.439 92.7604L153.086 82.1104L152.449 82.8445Z" fill="#263238"/>
<path d="M165.808 92.7189L155.911 84.1879L154.942 85.3116L164.839 93.8426L165.808 92.7189Z" fill="white"/>
<path d="M164.858 94.2032L154.585 85.3375L155.885 83.8081L166.168 92.6737L164.858 94.2032ZM155.294 85.2866L164.807 93.4843L165.439 92.7502L155.931 84.5473L155.294 85.2866Z" fill="#263238"/>
<path d="M157.079 88.7911L155.368 87.3165L153.997 88.9075L155.707 90.382L157.079 88.7911Z" fill="#263238"/>
<path d="M160.038 91.3333L158.328 89.8588L156.956 91.4497L158.667 92.9243L160.038 91.3333Z" fill="#263238"/>
<path d="M163.779 93.5799L162.063 92.1119L160.697 93.7082L162.414 95.1762L163.779 93.5799Z" fill="#263238"/>
<path d="M153.148 85.4048L152.649 84.9754L151.278 86.5664L151.776 86.9958L153.148 85.4048Z" fill="#263238"/>
<path d="M154.014 86.1455L153.516 85.7161L152.144 87.3071L152.642 87.7365L154.014 86.1455Z" fill="#263238"/>
<path d="M151.054 87.8426L150.556 87.4132L149.185 89.0042L149.683 89.4336L151.054 87.8426Z" fill="#263238"/>
<path d="M151.923 88.5826L151.425 88.1532L150.053 89.7442L150.551 90.1736L151.923 88.5826Z" fill="#263238"/>
<path d="M148.93 90.2923L148.432 89.8628L147.06 91.4535L147.558 91.883L148.93 90.2923Z" fill="#263238"/>
<path d="M149.814 91.0206L149.316 90.5912L147.945 92.1822L148.443 92.6115L149.814 91.0206Z" fill="#263238"/>
<path d="M146.835 92.7279L146.336 92.2985L144.965 93.8895L145.463 94.3189L146.835 92.7279Z" fill="#263238"/>
<path d="M147.698 93.468L147.2 93.0386L145.828 94.6295L146.327 95.0589L147.698 93.468Z" fill="#263238"/>
<path d="M144.745 95.1639L144.247 94.7345L142.876 96.3255L143.374 96.7548L144.745 95.1639Z" fill="#263238"/>
<path d="M145.6 95.9057L145.102 95.4763L143.73 97.0673L144.228 97.4967L145.6 95.9057Z" fill="#263238"/>
<path d="M154.979 91.2322L153.269 89.7576L151.897 91.3486L153.608 92.8231L154.979 91.2322Z" fill="#263238"/>
<path d="M157.935 93.776L156.224 92.3015L154.853 93.8925L156.564 95.367L157.935 93.776Z" fill="#263238"/>
<path d="M161.672 96.0351L159.956 94.5671L158.591 96.1634L160.307 97.6314L161.672 96.0351Z" fill="#263238"/>
<path d="M152.879 93.6661L151.168 92.1916L149.797 93.7826L151.508 95.2571L152.879 93.6661Z" fill="#263238"/>
<path d="M155.834 96.2134L154.123 94.7388L152.752 96.3298L154.462 97.8043L155.834 96.2134Z" fill="#263238"/>
<path d="M158.79 98.7573L157.079 97.2827L155.708 98.8737L157.418 100.348L158.79 98.7573Z" fill="#263238"/>
<path d="M150.78 96.1072L149.069 94.6327L147.698 96.2237L149.409 97.6982L150.78 96.1072Z" fill="#263238"/>
<path d="M154.506 98.398L152.789 96.93L151.424 98.5263L153.141 99.9943L154.506 98.398Z" fill="#263238"/>
<path d="M156.676 101.2L154.965 99.7256L153.594 101.317L155.305 102.791L156.676 101.2Z" fill="#263238"/>
<path d="M148.675 98.5463L146.964 97.0718L145.593 98.6627L147.303 100.137L148.675 98.5463Z" fill="#263238"/>
<path d="M151.629 101.094L149.918 99.619L148.547 101.21L150.258 102.685L151.629 101.094Z" fill="#263238"/>
<path d="M154.58 103.637L152.869 102.163L151.498 103.754L153.208 105.228L154.58 103.637Z" fill="#263238"/>
<path d="M46.3313 111.705L42.0896 107.259L45.745 103.772L36.2217 93.7951L58.8471 72.2046L55.0949 68.2688L59.0307 64.5166L65.8672 71.6795L68.2583 69.4006L78.3984 80.0302L46.3313 111.705Z" fill="#263238"/>
<path d="M46.3261 112.067L41.7378 107.249L45.3829 103.747L35.8647 93.7697L58.4902 72.1792L54.7329 68.2434L59.0357 64.1649L65.8774 71.3227L68.2633 69.0438L78.7603 80.0354L78.5819 80.2138L46.3261 112.067ZM42.4515 107.264L46.3363 111.343L78.0415 80.0252L68.248 69.7627L65.8774 72.0415L59.0357 64.8736L55.467 68.2791L59.2192 72.2148L36.5938 93.8003L46.1171 103.777L42.4515 107.264Z" fill="#263238"/>
<path d="M46.8201 96.599L41.3468 101.822L48.1925 108.996L53.6658 103.773L46.8201 96.599Z" fill="white"/>
<path d="M48.1821 109.355L40.9835 101.809L46.826 96.2371L54.0245 103.777L48.1821 109.355ZM41.7075 101.83L48.1974 108.636L53.2955 103.762L46.8107 96.9661L41.7075 101.83Z" fill="#263238"/>
<path d="M46.8206 96.5998L43.9401 99.3486L50.7857 106.522L53.6662 103.773L46.8206 96.5998Z" fill="white"/>
<path d="M50.7767 106.892L43.5781 99.3471L46.8256 96.2474L54.0242 103.788L50.7767 106.892ZM44.297 99.3624L50.792 106.168L53.3053 103.772L46.8103 96.9663L44.297 99.3624Z" fill="#263238"/>
<path d="M33.5656 76.6605L36.5021 82.4213L55.3192 102.141L60.5601 97.1396L37.4656 72.9388L33.5656 76.6605Z" fill="white"/>
<path d="M55.3142 102.503L36.2778 82.5334L33.2495 76.6094L37.4758 72.5768L60.9272 97.1497L55.3142 102.503ZM36.7111 82.2683L55.3295 101.779L60.1982 97.1293L37.4606 73.2956L33.8919 76.7165L36.7111 82.2683Z" fill="#263238"/>
<path d="M31.771 78.3735L34.7075 84.1292L53.5298 103.854L58.7706 98.8526L35.6711 74.6467L31.771 78.3735Z" fill="white"/>
<path d="M53.5196 104.211L34.4832 84.2463L31.455 78.3172L35.6813 74.2897L59.1326 98.8575L53.5196 104.211ZM34.9217 83.9812L53.5349 103.492L58.4087 98.8422L35.666 75.0085L32.0973 78.4242L34.9217 83.9812Z" fill="#263238"/>
<path d="M34.818 75.727L34.4492 76.0789L57.4148 100.145L57.7836 99.7927L34.818 75.727Z" fill="#263238"/>
<path d="M35.8151 78.1229L33.3325 80.4911L33.6844 80.86L36.167 78.4918L35.8151 78.1229Z" fill="#263238"/>
<path d="M37.7896 80.1908L35.307 82.5591L35.6589 82.928L38.1415 80.5597L37.7896 80.1908Z" fill="#263238"/>
<path d="M39.7638 82.2639L37.2812 84.6321L37.6331 85.001L40.1157 82.6328L39.7638 82.2639Z" fill="#263238"/>
<path d="M41.7385 84.3247L39.2559 86.6929L39.6078 87.0618L42.0903 84.6935L41.7385 84.3247Z" fill="#263238"/>
<path d="M43.7127 86.3928L41.2301 88.761L41.582 89.1299L44.0646 86.7617L43.7127 86.3928Z" fill="#263238"/>
<path d="M45.6869 88.4658L43.2043 90.8341L43.5562 91.203L46.0388 88.8347L45.6869 88.4658Z" fill="#263238"/>
<path d="M47.6614 90.5339L45.1788 92.9022L45.5307 93.2711L48.0133 90.9028L47.6614 90.5339Z" fill="#263238"/>
<path d="M49.6271 92.6034L47.1445 94.9717L47.4964 95.3406L49.979 92.9723L49.6271 92.6034Z" fill="#263238"/>
<path d="M51.6049 94.6678L49.1223 97.0361L49.4742 97.405L51.9568 95.0367L51.6049 94.6678Z" fill="#263238"/>
<path d="M53.5794 96.7409L51.0968 99.1092L51.4487 99.4781L53.9313 97.1098L53.5794 96.7409Z" fill="#263238"/>
<path d="M55.5536 98.809L53.071 101.177L53.4229 101.546L55.9055 99.1779L55.5536 98.809Z" fill="#263238"/>
<path d="M46.9125 68.7443L40.1335 75.2134L60.8289 96.9002L67.6079 90.4311L46.9125 68.7443Z" fill="white"/>
<path d="M60.8199 97.267L39.7749 75.1972L46.9123 68.3708L67.9624 90.4304L60.8199 97.267ZM40.4937 75.2278L60.8403 96.5482L67.2487 90.4304L46.9072 69.1101L40.4937 75.2278Z" fill="#263238"/>
<path d="M49.1116 66.6458L42.3326 73.1149L63.0281 94.8017L69.807 88.3326L49.1116 66.6458Z" fill="white"/>
<path d="M63.0224 95.1716L41.9723 73.1121L49.1097 66.2908L70.1598 88.3503L63.0224 95.1716ZM42.6962 73.1274L63.0377 94.4528L69.4512 88.335L49.1046 67.0096L42.6962 73.1274Z" fill="#263238"/>
<path d="M48.6458 65.1128L38.6322 74.6686L40.0295 76.1329L50.043 66.5771L48.6458 65.1128Z" fill="white"/>
<path d="M40.025 76.4973L38.2764 74.6619L48.6561 64.7563L50.4099 66.5916L40.025 76.4973ZM39.0054 74.6823L40.025 75.7784L49.6707 66.6018L48.6256 65.5057L39.0054 74.6823Z" fill="#263238"/>
<path d="M48.649 65.1082L40.8705 72.5311L42.2678 73.9954L50.0462 66.5725L48.649 65.1082Z" fill="white"/>
<path d="M42.2629 74.3662L40.5092 72.5309L48.6661 64.7563L50.4199 66.5916L42.2629 74.3662ZM41.2433 72.5462L42.2884 73.6474L49.696 66.5763L48.6509 65.4802L41.2433 72.5462Z" fill="#263238"/>
<path d="M45.7543 73.012L44.4117 74.2932L46.3933 76.3696L47.7358 75.0885L45.7543 73.012Z" fill="#263238"/>
<path d="M48.0714 70.7989L46.7289 72.0801L48.7104 74.1566L50.0529 72.8754L48.0714 70.7989Z" fill="#263238"/>
<path d="M50.3905 68.5822L49.048 69.8633L51.0295 71.9398L52.372 70.6587L50.3905 68.5822Z" fill="#263238"/>
<path d="M42.6656 75.9514L42.2747 76.3245L44.2562 78.401L44.6472 78.0279L42.6656 75.9514Z" fill="#263238"/>
<path d="M43.3413 75.3179L42.9503 75.691L44.9319 77.7674L45.3228 77.3944L43.3413 75.3179Z" fill="#263238"/>
<path d="M45.7074 79.1464L45.3164 79.5195L47.298 81.5959L47.6889 81.2229L45.7074 79.1464Z" fill="#263238"/>
<path d="M46.3779 78.4975L45.9869 78.8706L47.9685 80.9471L48.3594 80.574L46.3779 78.4975Z" fill="#263238"/>
<path d="M48.7407 82.3174L48.3497 82.6904L50.3313 84.7669L50.7222 84.3938L48.7407 82.3174Z" fill="#263238"/>
<path d="M49.4161 81.6786L49.0251 82.0517L51.0067 84.1282L51.3976 83.7551L49.4161 81.6786Z" fill="#263238"/>
<path d="M51.4611 85.2082L51.072 85.5811L53.0525 87.6477L53.4416 87.2748L51.4611 85.2082Z" fill="#263238"/>
<path d="M52.4581 84.8684L52.0671 85.2415L54.0487 87.3179L54.4396 86.9449L52.4581 84.8684Z" fill="#263238"/>
<path d="M54.821 88.6831L54.4301 89.0562L56.4116 91.1326L56.8026 90.7595L54.821 88.6831Z" fill="#263238"/>
<path d="M55.1562 87.7433L54.7671 88.1162L56.7476 90.1828L57.1366 89.8099L55.1562 87.7433Z" fill="#263238"/>
<path d="M48.7873 76.1931L47.4448 77.4742L49.4264 79.5507L50.7689 78.2696L48.7873 76.1931Z" fill="#263238"/>
<path d="M51.1098 73.98L49.7673 75.2612L51.7489 77.3376L53.0914 76.0565L51.1098 73.98Z" fill="#263238"/>
<path d="M53.4322 71.767L52.0897 73.0481L54.0713 75.1246L55.4138 73.8434L53.4322 71.767Z" fill="#263238"/>
<path d="M51.8293 79.3779L50.4868 80.6591L52.4684 82.7355L53.8109 81.4544L51.8293 79.3779Z" fill="#263238"/>
<path d="M54.1517 77.1648L52.8092 78.4459L54.7908 80.5224L56.1333 79.2412L54.1517 77.1648Z" fill="#263238"/>
<path d="M56.4656 74.9479L55.123 76.2291L57.1046 78.3055L58.4471 77.0244L56.4656 74.9479Z" fill="#263238"/>
<path d="M54.8674 82.5588L53.5249 83.84L55.5065 85.9164L56.849 84.6353L54.8674 82.5588Z" fill="#263238"/>
<path d="M57.1849 80.3457L55.8424 81.6269L57.824 83.7034L59.1665 82.4222L57.1849 80.3457Z" fill="#263238"/>
<path d="M59.5073 78.1327L58.1648 79.4138L60.1463 81.4903L61.4889 80.2091L59.5073 78.1327Z" fill="#263238"/>
<path d="M57.9006 85.7471L56.5581 87.0283L58.5397 89.1047L59.8822 87.8236L57.9006 85.7471Z" fill="#263238"/>
<path d="M60.2268 83.5305L58.8843 84.8116L60.8658 86.8881L62.2083 85.607L60.2268 83.5305Z" fill="#263238"/>
<path d="M62.5456 81.3138L61.2031 82.595L63.1847 84.6714L64.5272 83.3903L62.5456 81.3138Z" fill="#263238"/>
<path d="M70.1317 78.636L63.4745 84.9889L67.8001 89.5217L74.4574 83.1688L70.1317 78.636Z" fill="white"/>
<path d="M67.7942 89.89L63.1141 84.9856L70.1393 78.2816L74.8194 83.1859L67.7942 89.89ZM63.8381 85.0009L67.8146 89.166L74.1006 83.1656L70.1291 79.0004L63.8381 85.0009Z" fill="#263238"/>
<path d="M70.131 78.6327L64.7388 83.7784L69.0644 88.3112L74.4566 83.1655L70.131 78.6327Z" fill="white"/>
<path d="M69.0586 88.6817L64.3785 83.7773L70.1394 78.2816L74.8195 83.1859L69.0586 88.6817ZM65.0974 83.7977L69.0739 87.9629L74.0956 83.1656L70.1241 79.0004L65.0974 83.7977Z" fill="#263238"/>
<path d="M69.5199 76.6397L61.5201 84.2737L62.8048 85.6199L70.8046 77.9859L69.5199 76.6397Z" fill="white"/>
<path d="M62.8186 85.9848L61.1821 84.2718L69.5532 76.2881L71.1846 78.0011L62.8186 85.9848ZM61.9061 84.2871L62.8339 85.2659L70.4811 77.9858L69.5481 77.007L61.9061 84.2871Z" fill="#263238"/>
<path d="M69.5173 76.6402L62.849 83.0037L64.1337 84.3499L70.802 77.9864L69.5173 76.6402Z" fill="white"/>
<path d="M64.1238 84.7153L62.4873 83.0024L69.5278 76.2881L71.1592 78.0011L64.1238 84.7153ZM63.2112 83.0177L64.1391 83.9965L70.4659 77.9858L69.5329 77.007L63.2112 83.0177Z" fill="#263238"/>
<path d="M70.2597 80.0289L66.0692 84.0265L66.4211 84.3954L70.6116 80.3978L70.2597 80.0289Z" fill="#263238"/>
<path d="M71.0594 80.8664L66.8689 84.864L67.2208 85.2329L71.4113 81.2353L71.0594 80.8664Z" fill="#263238"/>
<path d="M71.8623 81.7078L67.6718 85.7053L68.0237 86.0742L72.2142 82.0766L71.8623 81.7078Z" fill="#263238"/>
<path d="M72.6616 82.5454L68.4711 86.543L68.823 86.9119L73.0135 82.9143L72.6616 82.5454Z" fill="#263238"/>
<path opacity="0.19" d="M96.3134 39.4748C96.3134 39.4748 96.5785 40.4944 97.0425 34.1931C97.5064 27.8919 93.3463 26.653 90.8839 28.1927C88.4216 29.7323 87.4988 28.4985 84.8835 24.1906C82.2681 19.8827 75.4978 17.1144 72.5766 20.0357C69.6554 22.9569 68.8805 25.4244 66.8973 23.8847C64.9141 22.3451 62.2784 18.3431 58.7403 18.96C55.2022 19.5768 54.2794 24.4965 52.8928 25.1134C51.5061 25.7303 48.279 21.1114 44.5828 23.1149C40.8867 25.1185 40.8918 27.117 40.4279 27.8868C39.9639 28.6566 38.2764 25.8832 35.6611 26.1942C33.0458 26.5052 32.1179 29.1154 32.1179 29.1154H81.172C83.3621 29.6999 85.4458 30.6273 87.3458 31.8633C90.731 34.0198 92.5765 32.521 93.6522 32.3731C94.7279 32.2253 94.5597 39.4595 94.5597 39.4595L96.3134 39.4748Z" fill="black"/>
<path opacity="0.19" d="M103.094 39.4749C103.094 39.4749 103.359 40.4945 103.818 34.1932C104.277 27.8919 100.142 26.6531 97.7001 28.1927C95.2581 29.7324 94.3353 28.4986 91.7302 24.1907C89.125 19.8828 82.3904 17.1145 79.4947 20.0357C76.599 22.957 75.824 25.4244 73.8307 23.8848C71.8373 22.3452 69.2424 18.3432 65.7196 18.96C62.1968 19.5769 61.2791 24.4966 59.8975 25.1135C58.5159 25.7303 55.3092 21.1114 51.6335 23.115C47.9577 25.1186 47.9577 27.117 47.4989 27.8868C47.0401 28.6566 45.3526 25.8833 42.7525 26.1943C40.1525 26.5052 39.2297 29.1155 39.2297 29.1155H88.0697C90.2423 29.7095 92.3072 30.6438 94.1875 31.8838C97.5522 34.0403 99.3875 32.5414 100.458 32.3936C101.529 32.2457 101.361 39.48 101.361 39.48L103.094 39.4749Z" fill="black"/>
<path opacity="0.19" d="M110.16 39.4749C110.16 39.4749 110.42 40.4945 110.879 34.1932C111.338 27.8919 107.208 26.6531 104.761 28.1927C102.314 29.7324 101.391 28.4986 98.791 24.1907C96.191 19.8828 89.4513 17.1145 86.5556 20.0357C83.6598 22.957 82.8798 25.4244 80.8915 23.8848C78.9033 22.3452 76.3032 18.3432 72.7753 18.96C69.2474 19.5769 68.3349 24.4966 66.9584 25.1135C65.5819 25.7303 62.3701 21.1114 58.6892 23.115C55.0084 25.1186 55.0135 27.117 54.5547 27.8868C54.0958 28.6566 52.4135 25.8833 49.8083 26.1943C47.2032 26.5052 46.2855 29.1155 46.2855 29.1155H95.1306C97.3036 29.7085 99.3685 30.6429 101.248 31.8838C104.618 34.0403 106.454 32.5414 107.524 32.3936C108.595 32.2457 108.426 39.48 108.426 39.48L110.16 39.4749Z" fill="black"/>
<path d="M96.655 39.3831H94.0346L92.7244 71.9754H97.9601L96.655 39.3831Z" fill="#77B629"/>
<path d="M98.2303 72.2303H92.4592L93.7898 39.1282H96.8997L98.2303 72.2303ZM92.9894 71.7205H97.695L96.4103 39.638H94.2793L92.9894 71.7205Z" fill="#263238"/>
<path d="M96.6344 39.6686H94.0497C93.9753 39.6686 93.904 39.6391 93.8514 39.5865C93.7988 39.5339 93.7693 39.4626 93.7693 39.3882C93.7693 39.3139 93.7988 39.2425 93.8514 39.19C93.904 39.1374 93.9753 39.1078 94.0497 39.1078H96.6344C96.6714 39.1071 96.7082 39.1139 96.7425 39.1278C96.7769 39.1416 96.8081 39.1622 96.8342 39.1884C96.8604 39.2146 96.881 39.2458 96.8949 39.2801C96.9087 39.3144 96.9155 39.3512 96.9148 39.3882C96.9148 39.4626 96.8853 39.5339 96.8327 39.5865C96.7801 39.6391 96.7088 39.6686 96.6344 39.6686Z" fill="white"/>
<path d="M96.6343 39.9234H94.0496C93.9793 39.9234 93.9097 39.9096 93.8447 39.8827C93.7798 39.8558 93.7208 39.8164 93.6711 39.7667C93.6214 39.717 93.5819 39.6579 93.555 39.593C93.5281 39.5281 93.5143 39.4584 93.5143 39.3881C93.5143 39.3179 93.5281 39.2482 93.555 39.1833C93.5819 39.1184 93.6214 39.0593 93.6711 39.0096C93.7208 38.9599 93.7798 38.9205 93.8447 38.8936C93.9097 38.8667 93.9793 38.8528 94.0496 38.8528H96.6343C96.7763 38.8528 96.9125 38.9092 97.0128 39.0096C97.1132 39.11 97.1696 39.2462 97.1696 39.3881C97.1696 39.5301 97.1132 39.6663 97.0128 39.7667C96.9125 39.8671 96.7763 39.9234 96.6343 39.9234ZM94.0496 39.3627V39.4136H96.6343L94.0496 39.3627Z" fill="#263238"/>
<path d="M93.9732 40.8768L93.9274 42.0544H96.7619L96.7109 40.8768H93.9732Z" fill="white"/>
<path d="M97.0271 42.3095H93.6624L93.7286 40.622H96.9761L97.0271 42.3095ZM94.1926 41.7997H96.4969L96.4663 41.1318H94.218L94.1926 41.7997Z" fill="#263238"/>
<path d="M97.7815 67.4891L97.7356 66.3115H92.9536L92.9077 67.4891H97.7815Z" fill="white"/>
<path d="M98.0466 67.744H92.6426L92.7089 66.0565H97.9956L98.0466 67.744ZM93.1728 67.2342H97.5164L97.4909 66.5663H93.1983L93.1728 67.2342Z" fill="#263238"/>
<path d="M93.2441 59.0466L93.1982 60.2192H97.4909L97.445 59.0466H93.2441Z" fill="white"/>
<path d="M97.756 60.4741H92.9332L92.9995 58.7917H97.6898L97.756 60.4741ZM93.4634 59.9642H97.2258L97.2004 59.3015H93.4889L93.4634 59.9642Z" fill="#263238"/>
<path d="M93.1015 62.6765L93.0505 63.8541H97.6337L97.5879 62.6765H93.1015Z" fill="white"/>
<path d="M97.904 64.109H92.8059L92.8773 62.4215H97.853L97.904 64.109ZM93.3157 63.5992H97.3942L97.3687 62.9313H93.3718L93.3157 63.5992Z" fill="#263238"/>
<path d="M93.3922 55.4116L93.3463 56.5893H97.3432L97.2974 55.4116H93.3922Z" fill="white"/>
<path d="M97.6082 56.8442H93.0811L93.1473 55.1567H97.5419L97.6082 56.8442ZM93.6113 56.3343H97.078V55.6665H93.6622L93.6113 56.3343Z" fill="#263238"/>
<path d="M93.8305 44.5118L93.7795 45.6843H96.9047L96.8588 44.5118H93.8305Z" fill="white"/>
<path d="M97.1696 45.9392H93.5143L93.5857 44.2568H97.1034L97.1696 45.9392ZM94.0445 45.4294H96.6394L96.6139 44.7666H94.0649L94.0445 45.4294Z" fill="#263238"/>
<path d="M93.535 51.7766L93.4891 52.9543H97.2006L97.1496 51.7766H93.535Z" fill="white"/>
<path d="M97.4859 53.2091H93.2443L93.3105 51.5217H97.389L97.4859 53.2091ZM93.7745 52.6993H96.9557L96.9251 52.0315H93.8L93.7745 52.6993Z" fill="#263238"/>
<path d="M93.6827 48.1468L93.6368 49.3194H97.0526L97.0067 48.1468H93.6827Z" fill="white"/>
<path d="M97.3178 49.5742H93.3718L93.4381 47.8918H97.2515L97.3178 49.5742ZM93.902 49.0644H96.7876V48.4017H93.9173L93.902 49.0644Z" fill="#263238"/>
<path d="M103.706 39.3831H101.09L99.78 71.9754H105.016L103.706 39.3831Z" fill="#77B629"/>
<path d="M105.281 72.2303H99.5251L100.856 39.1282H103.961L105.281 72.2303ZM100.045 71.7205H104.751L103.461 39.638H101.335L100.045 71.7205Z" fill="#263238"/>
<path d="M103.69 39.6686H101.105C101.031 39.6686 100.96 39.6391 100.907 39.5865C100.855 39.5339 100.825 39.4626 100.825 39.3882C100.824 39.3512 100.831 39.3144 100.845 39.2801C100.859 39.2458 100.879 39.2146 100.906 39.1884C100.932 39.1622 100.963 39.1416 100.997 39.1278C101.032 39.1139 101.068 39.1071 101.105 39.1078H103.69C103.765 39.1078 103.836 39.1374 103.888 39.19C103.941 39.2425 103.971 39.3139 103.971 39.3882C103.971 39.4626 103.941 39.5339 103.888 39.5865C103.836 39.6391 103.765 39.6686 103.69 39.6686Z" fill="white"/>
<path d="M103.69 39.9234H101.105C100.963 39.9234 100.827 39.8671 100.727 39.7667C100.626 39.6663 100.57 39.5301 100.57 39.3881C100.57 39.2462 100.626 39.11 100.727 39.0096C100.827 38.9092 100.963 38.8528 101.105 38.8528H103.69C103.832 38.8528 103.968 38.9092 104.069 39.0096C104.169 39.11 104.225 39.2462 104.225 39.3881C104.225 39.5301 104.169 39.6663 104.069 39.7667C103.968 39.8671 103.832 39.9234 103.69 39.9234ZM101.105 39.3627V39.4136H103.69H103.716L101.105 39.3627Z" fill="#263238"/>
<path d="M101.029 40.8768L100.983 42.0544H103.813L103.767 40.8768H101.029Z" fill="white"/>
<path d="M104.078 42.3095H100.718L100.785 40.622H104.012L104.078 42.3095ZM101.248 41.7997H103.548L103.522 41.1318H101.274L101.248 41.7997Z" fill="#263238"/>
<path d="M104.837 67.4891L104.786 66.3115H100.004L99.9585 67.4891H104.837Z" fill="white"/>
<path d="M105.102 67.744H99.6934L99.7596 66.0565H105.031L105.102 67.744ZM100.224 67.2342H104.572L104.542 66.5663H100.249L100.224 67.2342Z" fill="#263238"/>
<path d="M100.3 59.0466L100.249 60.2192H104.542L104.496 59.0466H100.3Z" fill="white"/>
<path d="M104.807 60.4741H99.984L100.055 58.7917H104.741L104.807 60.4741ZM100.514 59.9642H104.277L104.251 59.3015H100.545L100.514 59.9642Z" fill="#263238"/>
<path d="M100.152 62.6765L100.106 63.8541H104.689L104.644 62.6765H100.152Z" fill="white"/>
<path d="M104.955 64.109H99.8564L99.9227 62.4215H104.904L104.955 64.109ZM100.366 63.5992H104.445L104.419 62.9313H100.417L100.366 63.5992Z" fill="#263238"/>
<path d="M100.443 55.4116L100.397 56.5893H104.399L104.348 55.4116H100.443Z" fill="white"/>
<path d="M104.664 56.8442H100.132L100.198 55.1567H104.593L104.664 56.8442ZM100.662 56.3343H104.113L104.083 55.6665H100.667L100.662 56.3343Z" fill="#263238"/>
<path d="M100.881 44.5118L100.835 45.6843H103.961L103.915 44.5118H100.881Z" fill="white"/>
<path d="M104.225 45.9392H100.57L100.636 44.2568H104.159L104.225 45.9392ZM101.1 45.4294H103.695L103.67 44.7666H101.121L101.1 45.4294Z" fill="#263238"/>
<path d="M100.591 51.7766L100.545 52.9543H104.251L104.205 51.7766H100.591Z" fill="white"/>
<path d="M104.516 53.2091H100.28L100.346 51.5217H104.45L104.516 53.2091ZM100.81 52.6993H103.986L103.961 52.0315H100.835L100.81 52.6993Z" fill="#263238"/>
<path d="M100.739 48.1468L100.688 49.3194H104.103L104.057 48.1468H100.739Z" fill="white"/>
<path d="M104.373 49.5742H100.422L100.494 47.8918H104.302L104.373 49.5742ZM100.952 49.0644H103.838V48.4017H101.009L100.952 49.0644Z" fill="#263238"/>
<path d="M110.761 39.3831H108.141L106.831 71.9754H112.067L110.761 39.3831Z" fill="#77B629"/>
<path d="M112.331 72.2303H106.565L107.896 39.1282H111.006L112.331 72.2303ZM107.096 71.7205H111.801L110.516 39.638H108.385L107.096 71.7205Z" fill="#263238"/>
<path d="M110.741 39.6686H108.156C108.082 39.6686 108.01 39.6391 107.958 39.5865C107.905 39.5339 107.876 39.4626 107.876 39.3882C107.876 39.3139 107.905 39.2425 107.958 39.19C108.01 39.1374 108.082 39.1078 108.156 39.1078H110.741C110.778 39.1071 110.815 39.1139 110.849 39.1278C110.883 39.1416 110.915 39.1622 110.941 39.1884C110.967 39.2146 110.987 39.2458 111.001 39.2801C111.015 39.3144 111.022 39.3512 111.021 39.3882C111.021 39.4626 110.992 39.5339 110.939 39.5865C110.887 39.6391 110.815 39.6686 110.741 39.6686Z" fill="white"/>
<path d="M110.741 39.9234H108.156C108.014 39.9234 107.878 39.8671 107.778 39.7667C107.677 39.6663 107.621 39.5301 107.621 39.3881C107.621 39.2462 107.677 39.11 107.778 39.0096C107.878 38.9092 108.014 38.8528 108.156 38.8528H110.741C110.883 38.8528 111.019 38.9092 111.119 39.0096C111.22 39.11 111.276 39.2462 111.276 39.3881C111.276 39.5301 111.22 39.6663 111.119 39.7667C111.019 39.8671 110.883 39.9234 110.741 39.9234ZM108.156 39.3627V39.4136H110.741H110.766L108.156 39.3627Z" fill="#263238"/>
<path d="M108.08 40.8768L108.034 42.0544H110.868L110.817 40.8768H108.08Z" fill="white"/>
<path d="M111.134 42.3095H107.769L107.835 40.622H111.062L111.134 42.3095ZM108.299 41.7997H110.603L110.573 41.1318H108.324L108.299 41.7997Z" fill="#263238"/>
<path d="M111.888 67.4891L111.842 66.3115H107.06L107.014 67.4891H111.888Z" fill="white"/>
<path d="M112.153 67.744H106.749L106.815 66.0565H112.087L112.153 67.744ZM107.279 67.2342H111.623L111.597 66.5663H107.305L107.279 67.2342Z" fill="#263238"/>
<path d="M107.351 59.0466L107.305 60.2192H111.597L111.552 59.0466H107.351Z" fill="white"/>
<path d="M111.863 60.4741H107.04L107.106 58.7917H111.796L111.863 60.4741ZM107.57 59.9642H111.332L111.307 59.3015H107.595L107.57 59.9642Z" fill="#263238"/>
<path d="M107.203 62.6765L107.157 63.8541H111.74L111.694 62.6765H107.203Z" fill="white"/>
<path d="M112.005 64.109H106.907L106.978 62.4215H111.954L112.005 64.109ZM107.417 63.5992H111.47L111.444 62.9313H107.448L107.417 63.5992Z" fill="#263238"/>
<path d="M107.499 55.4116L107.453 56.5893H111.45L111.404 55.4116H107.499Z" fill="white"/>
<path d="M111.715 56.8442H107.172L107.244 55.1567H111.638L111.715 56.8442ZM107.718 56.3343H111.185L111.159 55.6665H107.743L107.718 56.3343Z" fill="#263238"/>
<path d="M107.937 44.5118L107.886 45.6843H111.011L110.965 44.5118H107.937Z" fill="white"/>
<path d="M111.276 45.9392H107.621L107.692 44.2568H111.21L111.276 45.9392ZM108.151 45.4294H110.741L110.715 44.7666H108.166L108.151 45.4294Z" fill="#263238"/>
<path d="M107.641 51.7766L107.595 52.9543H111.307L111.256 51.7766H107.641Z" fill="white"/>
<path d="M111.572 53.2091H107.33L107.396 51.5217H111.5L111.572 53.2091ZM107.86 52.6993H111.042L111.011 52.0315H107.886L107.86 52.6993Z" fill="#263238"/>
<path d="M107.789 48.1468L107.743 49.3194H111.159L111.113 48.1468H107.789Z" fill="white"/>
<path d="M111.424 49.5742H107.478L107.544 47.8918H111.358L111.424 49.5742ZM108.008 49.0644H110.894L110.868 48.4017H108.034L108.008 49.0644Z" fill="#263238"/>
<path d="M82.1203 64.5219H71.6997V86.7497H82.1203V64.5219Z" fill="#263238"/>
<path d="M82.1203 87.0047H71.6997C71.6321 87.0047 71.5673 86.9778 71.5195 86.93C71.4717 86.8822 71.4448 86.8174 71.4448 86.7498V64.522C71.4448 64.4544 71.4717 64.3896 71.5195 64.3418C71.5673 64.2939 71.6321 64.2671 71.6997 64.2671H82.1203C82.1879 64.2671 82.2527 64.2939 82.3005 64.3418C82.3483 64.3896 82.3752 64.4544 82.3752 64.522V86.7498C82.3739 86.817 82.3466 86.8811 82.2991 86.9286C82.2516 86.9761 82.1875 87.0034 82.1203 87.0047ZM71.9546 86.4949H81.8654V64.7769H71.9546V86.4949Z" fill="#263238"/>
<path d="M81.6513 61.5548L87.2949 64.8533H86.209L80.6062 62.0493L81.6513 61.5548Z" fill="white"/>
<path d="M88.2379 65.1083H86.1528L80.035 62.0494L81.6817 61.2745L88.2379 65.1083ZM86.27 64.5985H86.3516L81.6409 61.8455L81.1872 62.0545L86.27 64.5985Z" fill="#263238"/>
<path d="M86.7034 86.7497H76.2828V64.5219L81.6512 61.5548L86.7034 64.5219V86.7497Z" fill="#77B629"/>
<path d="M86.7034 87.0046H76.2829C76.2157 87.0033 76.1516 86.976 76.1041 86.9285C76.0565 86.8809 76.0293 86.8169 76.028 86.7497V64.5219C76.0284 64.4761 76.0408 64.4313 76.0641 64.3919C76.0874 64.3525 76.1206 64.32 76.1605 64.2975L81.5288 61.3355C81.5676 61.3132 81.6115 61.3014 81.6563 61.3014C81.701 61.3014 81.745 61.3132 81.7837 61.3355L86.8309 64.3027C86.8701 64.3241 86.9027 64.3558 86.9252 64.3945C86.9477 64.4331 86.9591 64.4772 86.9583 64.5219V86.7497C86.9583 86.8173 86.9315 86.8821 86.8837 86.9299C86.8359 86.9777 86.771 87.0046 86.7034 87.0046ZM76.5378 86.4948H86.4485V64.6697L81.6512 61.8505L76.5531 64.6697L76.5378 86.4948Z" fill="#263238"/>
<path d="M70.8943 65.0011H75.4826L81.6513 61.5548H77.0069L70.8943 65.0011Z" fill="#8F8F8F"/>
<path d="M75.4824 65.256H70.8941C70.8374 65.2568 70.7821 65.2387 70.7368 65.2046C70.6916 65.1704 70.659 65.1221 70.6443 65.0674C70.6295 65.013 70.6335 64.9551 70.6557 64.9033C70.6779 64.8515 70.717 64.8087 70.7666 64.7819L76.8844 61.3355C76.9234 61.3137 76.9671 61.3014 77.0118 61.2999H81.6817C81.738 61.3013 81.7922 61.321 81.8364 61.3559C81.8805 61.3909 81.9121 61.4392 81.9264 61.4936C81.9412 61.548 81.9372 61.6058 81.915 61.6577C81.8928 61.7095 81.8537 61.7523 81.8041 61.7791L75.6302 65.2254C75.5854 65.2509 75.5337 65.2616 75.4824 65.256ZM71.8678 64.7462H75.4365L80.6621 61.8097H77.0934L71.8678 64.7462Z" fill="#263238"/>
<path d="M82.4564 63.4819H80.774V65.0062H82.4564V63.4819Z" fill="#263238"/>
<path d="M82.7012 65.2561H80.509V63.2169H82.7012V65.2561ZM81.0188 64.7463H82.1914V63.7267H81.0188V64.7463Z" fill="#263238"/>
<path d="M111.638 67.9733H77.9501V86.7446H111.638V67.9733Z" fill="#263238"/>
<path d="M111.638 87.0046H77.95C77.8824 87.0046 77.8175 86.9777 77.7697 86.9299C77.7219 86.8821 77.6951 86.8173 77.6951 86.7497V67.9733C77.6951 67.9057 77.7219 67.8408 77.7697 67.793C77.8175 67.7452 77.8824 67.7184 77.95 67.7184H111.638C111.706 67.7197 111.77 67.747 111.817 67.7945C111.865 67.842 111.892 67.9061 111.893 67.9733V86.7497C111.892 86.8169 111.865 86.8809 111.817 86.9285C111.77 86.976 111.706 87.0033 111.638 87.0046ZM78.2049 86.4948H111.383V68.2282H78.2049V86.4948Z" fill="#263238"/>
<path d="M128.442 67.9733H92.7753V86.7446H128.442V67.9733Z" fill="white"/>
<path d="M128.442 87.0046H92.7549C92.6873 87.0046 92.6225 86.9777 92.5747 86.9299C92.5269 86.8821 92.5 86.8173 92.5 86.7497V67.9733C92.5 67.9057 92.5269 67.8408 92.5747 67.793C92.6225 67.7452 92.6873 67.7184 92.7549 67.7184H128.442C128.509 67.7197 128.573 67.747 128.621 67.7945C128.668 67.842 128.695 67.9061 128.697 67.9733V86.7497C128.695 86.8169 128.668 86.8809 128.621 86.9285C128.573 86.976 128.509 87.0033 128.442 87.0046ZM93.0302 86.4948H128.207V68.2282H93.0302V86.4948Z" fill="#263238"/>
<path d="M103.216 75.1667H97.338V86.7446H103.216V75.1667Z" fill="white"/>
<path d="M103.216 87.0047H97.3379C97.2703 87.0047 97.2055 86.9779 97.1577 86.9301C97.1099 86.8823 97.083 86.8174 97.083 86.7498V75.1669C97.083 75.0993 97.1099 75.0344 97.1577 74.9866C97.2055 74.9388 97.2703 74.912 97.3379 74.912H103.216C103.284 74.912 103.348 74.9388 103.396 74.9866C103.444 75.0344 103.471 75.0993 103.471 75.1669V86.7498C103.471 86.8174 103.444 86.8823 103.396 86.9301C103.348 86.9779 103.284 87.0047 103.216 87.0047ZM97.6081 86.4949H102.976V75.4218H97.5928L97.6081 86.4949Z" fill="#263238"/>
<path d="M102.253 75.1667H97.338V86.7446H102.253V75.1667Z" fill="#263238"/>
<path d="M102.253 87.0047H97.3379C97.2703 87.0047 97.2055 86.9779 97.1577 86.9301C97.1099 86.8823 97.083 86.8174 97.083 86.7498V75.1669C97.083 75.0993 97.1099 75.0344 97.1577 74.9866C97.2055 74.9388 97.2703 74.912 97.3379 74.912H102.253C102.32 74.9133 102.384 74.9406 102.431 74.9881C102.479 75.0356 102.506 75.0997 102.507 75.1669V86.7498C102.506 86.817 102.479 86.8811 102.431 86.9286C102.384 86.9761 102.32 87.0034 102.253 87.0047ZM97.5928 86.4949H101.998V75.4218H97.5928V86.4949Z" fill="#263238"/>
<path d="M113.744 75.1667H107.866V86.7446H113.744V75.1667Z" fill="white"/>
<path d="M113.744 87.0047H107.866C107.798 87.0047 107.733 86.9779 107.685 86.9301C107.638 86.8823 107.611 86.8174 107.611 86.7498V75.1669C107.611 75.0993 107.638 75.0344 107.685 74.9866C107.733 74.9388 107.798 74.912 107.866 74.912H113.744C113.811 74.9133 113.875 74.9406 113.923 74.9881C113.97 75.0356 113.997 75.0997 113.999 75.1669V86.7498C113.997 86.817 113.97 86.8811 113.923 86.9286C113.875 86.9761 113.811 87.0034 113.744 87.0047ZM108.136 86.4949H113.504V75.4218H108.121L108.136 86.4949Z" fill="#263238"/>
<path d="M112.78 75.1667H107.866V86.7446H112.78V75.1667Z" fill="#263238"/>
<path d="M112.78 87.0047H107.866C107.798 87.0047 107.733 86.9779 107.685 86.9301C107.638 86.8823 107.611 86.8174 107.611 86.7498V75.1669C107.611 75.0993 107.638 75.0344 107.685 74.9866C107.733 74.9388 107.798 74.912 107.866 74.912H112.78C112.847 74.9133 112.911 74.9406 112.959 74.9881C113.007 75.0356 113.034 75.0997 113.035 75.1669V86.7498C113.034 86.817 113.007 86.8811 112.959 86.9286C112.911 86.9761 112.847 87.0034 112.78 87.0047ZM108.121 86.4949H112.525V75.4218H108.121V86.4949Z" fill="#263238"/>
<path d="M124.271 75.1667H118.393V86.7446H124.271V75.1667Z" fill="white"/>
<path d="M124.271 87.0047H118.388C118.32 87.0047 118.256 86.9779 118.208 86.9301C118.16 86.8823 118.133 86.8174 118.133 86.7498V75.1669C118.133 75.0993 118.16 75.0344 118.208 74.9866C118.256 74.9388 118.32 74.912 118.388 74.912H124.266C124.333 74.9133 124.397 74.9406 124.445 74.9881C124.493 75.0356 124.52 75.0997 124.521 75.1669V86.7498C124.52 86.8162 124.493 86.8795 124.447 86.9269C124.4 86.9743 124.338 87.0021 124.271 87.0047ZM118.663 86.4949H123.996V75.4218H118.648L118.663 86.4949Z" fill="#263238"/>
<path d="M123.308 75.1667H118.393V86.7446H123.308V75.1667Z" fill="#263238"/>
<path d="M123.303 87.0047H118.388C118.32 87.0047 118.256 86.9779 118.208 86.9301C118.16 86.8823 118.133 86.8174 118.133 86.7498V75.1669C118.133 75.0993 118.16 75.0344 118.208 74.9866C118.256 74.9388 118.32 74.912 118.388 74.912H123.298C123.365 74.912 123.43 74.9388 123.478 74.9866C123.526 75.0344 123.552 75.0993 123.552 75.1669V86.7498C123.552 86.8166 123.526 86.8806 123.48 86.9283C123.433 86.976 123.369 87.0034 123.303 87.0047ZM118.648 86.4949H123.048V75.4218H118.648V86.4949Z" fill="#263238"/>
<path d="M82.5076 70.1248H79.3009V73.0664H82.5076V70.1248Z" fill="white"/>
<path d="M82.5075 73.3213H79.3008C79.2336 73.32 79.1695 73.2927 79.122 73.2452C79.0745 73.1977 79.0472 73.1336 79.0459 73.0664V70.1248C79.0459 70.0572 79.0728 69.9923 79.1206 69.9445C79.1684 69.8967 79.2332 69.8699 79.3008 69.8699H82.5075C82.5751 69.8699 82.64 69.8967 82.6878 69.9445C82.7356 69.9923 82.7624 70.0572 82.7624 70.1248V73.0664C82.7624 73.134 82.7356 73.1988 82.6878 73.2466C82.64 73.2944 82.5751 73.3213 82.5075 73.3213ZM79.5557 72.8115H82.2526V70.3797H79.5557V72.8115Z" fill="#263238"/>
<path d="M86.8462 70.1248H83.6395V73.0664H86.8462V70.1248Z" fill="white"/>
<path d="M86.8461 73.3213H83.6394C83.5718 73.3213 83.507 73.2944 83.4592 73.2466C83.4114 73.1988 83.3845 73.134 83.3845 73.0664V70.1248C83.3845 70.0572 83.4114 69.9923 83.4592 69.9445C83.507 69.8967 83.5718 69.8699 83.6394 69.8699H86.8461C86.9138 69.8699 86.9786 69.8967 87.0264 69.9445C87.0742 69.9923 87.1011 70.0572 87.1011 70.1248V73.0664C87.0997 73.1336 87.0725 73.1977 87.025 73.2452C86.9774 73.2927 86.9133 73.32 86.8461 73.3213ZM83.8943 72.8115H86.5912V70.3797H83.8943V72.8115Z" fill="#263238"/>
<path d="M91.1794 70.1248H87.9727V73.0664H91.1794V70.1248Z" fill="white"/>
<path d="M91.1795 73.3213H87.9728C87.9052 73.3213 87.8404 73.2944 87.7926 73.2466C87.7448 73.1988 87.7179 73.134 87.7179 73.0664V70.1248C87.7179 70.0572 87.7448 69.9923 87.7926 69.9445C87.8404 69.8967 87.9052 69.8699 87.9728 69.8699H91.1795C91.2471 69.8699 91.312 69.8967 91.3598 69.9445C91.4076 69.9923 91.4344 70.0572 91.4344 70.1248V73.0664C91.4331 73.1336 91.4058 73.1977 91.3583 73.2452C91.3108 73.2927 91.2467 73.32 91.1795 73.3213ZM88.2277 72.8115H90.9246V70.3797H88.2277V72.8115Z" fill="#263238"/>
<path d="M102.599 70.1248H97.8121V73.0664H102.599V70.1248Z" fill="white"/>
<path d="M102.584 73.3213H97.797C97.7294 73.3213 97.6646 73.2944 97.6168 73.2466C97.569 73.1988 97.5421 73.134 97.5421 73.0664V70.1248C97.5421 70.0572 97.569 69.9923 97.6168 69.9445C97.6646 69.8967 97.7294 69.8699 97.797 69.8699H102.584C102.652 69.8699 102.717 69.8967 102.764 69.9445C102.812 69.9923 102.839 70.0572 102.839 70.1248V73.0664C102.839 73.134 102.812 73.1988 102.764 73.2466C102.717 73.2944 102.652 73.3213 102.584 73.3213ZM98.0519 72.8115H102.329V70.3797H98.0519V72.8115Z" fill="#263238"/>
<path d="M102.324 70.1248H97.5367V73.0664H102.324V70.1248Z" fill="white"/>
<path d="M102.329 73.3213H97.5368C97.4696 73.32 97.4055 73.2927 97.358 73.2452C97.3104 73.1977 97.2832 73.1336 97.2819 73.0664V70.1248C97.2819 70.0572 97.3087 69.9923 97.3565 69.9445C97.4043 69.8967 97.4692 69.8699 97.5368 69.8699H102.329C102.397 69.8699 102.461 69.8967 102.509 69.9445C102.557 69.9923 102.584 70.0572 102.584 70.1248V73.0664C102.583 73.1336 102.555 73.1977 102.508 73.2452C102.46 73.2927 102.396 73.32 102.329 73.3213ZM97.7917 72.8115H102.074V70.3797H97.7917V72.8115Z" fill="#263238"/>
<path d="M113.117 70.1248H108.329V73.0664H113.117V70.1248Z" fill="white"/>
<path d="M113.117 73.3213H108.329C108.262 73.3213 108.197 73.2944 108.149 73.2466C108.101 73.1988 108.075 73.134 108.075 73.0664V70.1248C108.075 70.0572 108.101 69.9923 108.149 69.9445C108.197 69.8967 108.262 69.8699 108.329 69.8699H113.117C113.184 69.8699 113.249 69.8967 113.297 69.9445C113.345 69.9923 113.372 70.0572 113.372 70.1248V73.0664C113.372 73.134 113.345 73.1988 113.297 73.2466C113.249 73.2944 113.184 73.3213 113.117 73.3213ZM108.584 72.8115H112.862V70.3797H108.584V72.8115Z" fill="#263238"/>
<path d="M112.841 70.1248H108.054V73.0664H112.841V70.1248Z" fill="white"/>
<path d="M112.846 73.3213H108.054C107.987 73.32 107.923 73.2927 107.875 73.2452C107.828 73.1977 107.801 73.1336 107.799 73.0664V70.1248C107.799 70.0572 107.826 69.9923 107.874 69.9445C107.922 69.8967 107.987 69.8699 108.054 69.8699H112.846C112.914 69.8699 112.979 69.8967 113.027 69.9445C113.074 69.9923 113.101 70.0572 113.101 70.1248V73.0664C113.1 73.1336 113.073 73.1977 113.025 73.2452C112.978 73.2927 112.914 73.32 112.846 73.3213ZM108.309 72.8115H112.592V70.3797H108.309V72.8115Z" fill="#263238"/>
<path d="M123.634 70.1248H118.847V73.0664H123.634V70.1248Z" fill="white"/>
<path d="M123.634 73.3213H118.847C118.779 73.3213 118.714 73.2944 118.667 73.2466C118.619 73.1988 118.592 73.134 118.592 73.0664V70.1248C118.592 70.0572 118.619 69.9923 118.667 69.9445C118.714 69.8967 118.779 69.8699 118.847 69.8699H123.634C123.702 69.8699 123.766 69.8967 123.814 69.9445C123.862 69.9923 123.889 70.0572 123.889 70.1248V73.0664C123.889 73.134 123.862 73.1988 123.814 73.2466C123.766 73.2944 123.702 73.3213 123.634 73.3213ZM119.102 72.8115H123.379V70.3797H119.102V72.8115Z" fill="#263238"/>
<path d="M123.359 70.1248H118.572V73.0664H123.359V70.1248Z" fill="white"/>
<path d="M123.364 73.3213H118.572C118.505 73.32 118.441 73.2927 118.393 73.2452C118.345 73.1977 118.318 73.1336 118.317 73.0664V70.1248C118.317 70.0572 118.344 69.9923 118.392 69.9445C118.439 69.8967 118.504 69.8699 118.572 69.8699H123.364C123.432 69.8699 123.496 69.8967 123.544 69.9445C123.592 69.9923 123.619 70.0572 123.619 70.1248V73.0664C123.619 73.134 123.592 73.1988 123.544 73.2466C123.496 73.2944 123.432 73.3213 123.364 73.3213ZM118.827 72.8115H123.109V70.3797H118.827V72.8115Z" fill="#263238"/>
<path d="M77.4809 73.0307H73.2137V75.5033H77.4809V73.0307Z" fill="#77B629"/>
<path d="M77.4809 75.7582H73.2138C73.1466 75.7569 73.0825 75.7296 73.035 75.6821C72.9874 75.6346 72.9602 75.5705 72.9589 75.5033V73.0307C72.9602 72.9635 72.9874 72.8994 73.035 72.8519C73.0825 72.8044 73.1466 72.7771 73.2138 72.7758H77.4809C77.5485 72.7758 77.6133 72.8027 77.6611 72.8505C77.7089 72.8983 77.7358 72.9631 77.7358 73.0307V75.5033C77.7358 75.5709 77.7089 75.6358 77.6611 75.6836C77.6133 75.7314 77.5485 75.7582 77.4809 75.7582ZM73.4687 75.2484H77.226V73.2856H73.4687V75.2484Z" fill="#263238"/>
<path d="M78.8268 73.0307H74.5597V75.5033H78.8268V73.0307Z" fill="#77B629"/>
<path d="M78.8266 75.7582H74.5442C74.4766 75.7582 74.4118 75.7314 74.364 75.6836C74.3162 75.6358 74.2893 75.5709 74.2893 75.5033V73.0307C74.2893 72.9631 74.3162 72.8983 74.364 72.8505C74.4118 72.8027 74.4766 72.7758 74.5442 72.7758H78.8113C78.8785 72.7771 78.9426 72.8044 78.9901 72.8519C79.0377 72.8994 79.0649 72.9635 79.0662 73.0307V75.5033C79.0652 75.568 79.04 75.63 78.9957 75.6771C78.9514 75.7242 78.8911 75.7532 78.8266 75.7582ZM74.8144 75.2484H78.5717V73.2856H74.8144V75.2484Z" fill="#263238"/>
<path d="M82.6961 74.4224H72.1787V86.7497H82.6961V74.4224Z" fill="#263238"/>
<path d="M82.7014 87.0045H72.1789C72.1113 87.0045 72.0464 86.9777 71.9986 86.9299C71.9508 86.8821 71.924 86.8172 71.924 86.7496V74.4224C71.924 74.3548 71.9508 74.2899 71.9986 74.2421C72.0464 74.1943 72.1113 74.1675 72.1789 74.1675H82.7014C82.769 74.1675 82.8338 74.1943 82.8816 74.2421C82.9294 74.2899 82.9563 74.3548 82.9563 74.4224V86.7496C82.9563 86.8172 82.9294 86.8821 82.8816 86.9299C82.8338 86.9777 82.769 87.0045 82.7014 87.0045ZM72.4389 86.4947H82.4465V74.6875H72.4338L72.4389 86.4947Z" fill="#263238"/>
<path d="M90.5016 74.4224H79.9841V86.7497H90.5016V74.4224Z" fill="#77B629"/>
<path d="M90.5015 87.0045H79.984C79.9164 87.0045 79.8516 86.9777 79.8038 86.9299C79.756 86.8821 79.7291 86.8172 79.7291 86.7496V74.4224C79.7291 74.3548 79.756 74.2899 79.8038 74.2421C79.8516 74.1943 79.9164 74.1675 79.984 74.1675H90.5015C90.5691 74.1675 90.6339 74.1943 90.6817 74.2421C90.7295 74.2899 90.7564 74.3548 90.7564 74.4224V86.7496C90.7551 86.8168 90.7278 86.8809 90.6803 86.9284C90.6327 86.976 90.5687 87.0032 90.5015 87.0045ZM80.2389 86.4947H90.2465V74.6875H80.2389V86.4947Z" fill="#263238"/>
<path d="M86.6575 82.2227H83.828V86.7447H86.6575V82.2227Z" fill="#263238"/>
<path d="M86.6524 87.0047H83.828C83.7604 87.0047 83.6956 86.9779 83.6478 86.9301C83.6 86.8823 83.5731 86.8174 83.5731 86.7498V82.2227C83.5731 82.1551 83.6 82.0902 83.6478 82.0424C83.6956 81.9946 83.7604 81.9678 83.828 81.9678H86.6524C86.72 81.9678 86.7848 81.9946 86.8326 82.0424C86.8804 82.0902 86.9073 82.1551 86.9073 82.2227V86.7498C86.9073 86.8174 86.8804 86.8823 86.8326 86.9301C86.7848 86.9779 86.72 87.0047 86.6524 87.0047ZM84.1033 86.4949H86.4179V82.4776H84.1033V86.4949Z" fill="#263238"/>
<path d="M78.9645 75.8907H77.2158V84.2618H78.9645V75.8907Z" fill="#77B629"/>
<path d="M78.9645 84.5167H77.2158C77.1482 84.5167 77.0834 84.4898 77.0356 84.442C76.9878 84.3942 76.9609 84.3294 76.9609 84.2618V75.8906C76.9609 75.823 76.9878 75.7582 77.0356 75.7104C77.0834 75.6626 77.1482 75.6357 77.2158 75.6357H78.9645C79.0317 75.637 79.0958 75.6643 79.1433 75.7118C79.1908 75.7594 79.2181 75.8235 79.2194 75.8906V84.2618C79.2181 84.329 79.1908 84.393 79.1433 84.4406C79.0958 84.4881 79.0317 84.5154 78.9645 84.5167ZM77.4707 84.0069H78.7096V76.1456H77.4707V84.0069Z" fill="#263238"/>
<path d="M76.7264 75.8907H74.9778V84.2618H76.7264V75.8907Z" fill="#77B629"/>
<path d="M76.7265 84.5167H74.9778C74.9106 84.5154 74.8465 84.4881 74.799 84.4406C74.7515 84.393 74.7242 84.329 74.7229 84.2618V75.8906C74.7242 75.8235 74.7515 75.7594 74.799 75.7118C74.8465 75.6643 74.9106 75.637 74.9778 75.6357H76.7265C76.7941 75.6357 76.8589 75.6626 76.9067 75.7104C76.9545 75.7582 76.9814 75.823 76.9814 75.8906V84.2618C76.9814 84.3294 76.9545 84.3942 76.9067 84.442C76.8589 84.4898 76.7941 84.5167 76.7265 84.5167ZM75.2327 84.0069H76.4716V76.1456H75.2327V84.0069Z" fill="#263238"/>
<path d="M74.4933 75.8907H72.7446V84.2618H74.4933V75.8907Z" fill="#77B629"/>
<path d="M74.4933 84.5167H72.7447C72.677 84.5167 72.6122 84.4898 72.5644 84.442C72.5166 84.3942 72.4897 84.3294 72.4897 84.2618V75.8906C72.4897 75.823 72.5166 75.7582 72.5644 75.7104C72.6122 75.6626 72.677 75.6357 72.7447 75.6357H74.4933C74.5609 75.6357 74.6257 75.6626 74.6736 75.7104C74.7214 75.7582 74.7482 75.823 74.7482 75.8906V84.2618C74.7482 84.3294 74.7214 84.3942 74.6736 84.442C74.6257 84.4898 74.5609 84.5167 74.4933 84.5167ZM72.9996 84.0069H74.2384V76.1456H73.0149L72.9996 84.0069Z" fill="#263238"/>
<path d="M96.4662 69.8903H93.9478V86.6733H96.4662V69.8903Z" fill="white"/>
<path d="M96.4663 86.9231H93.9529C93.8853 86.9231 93.8205 86.8962 93.7727 86.8484C93.7249 86.8006 93.698 86.7358 93.698 86.6682V69.8903C93.698 69.8227 93.7249 69.7578 93.7727 69.71C93.8205 69.6622 93.8853 69.6354 93.9529 69.6354H96.4663C96.5339 69.6354 96.5987 69.6622 96.6465 69.71C96.6943 69.7578 96.7212 69.8227 96.7212 69.8903V86.6733C96.7198 86.74 96.6924 86.8035 96.6447 86.8502C96.5971 86.897 96.533 86.9231 96.4663 86.9231ZM94.2078 86.4133H96.2114V70.1452H94.2078V86.4133Z" fill="#263238"/>
<path d="M96.8639 69.8903H94.3455V86.6733H96.8639V69.8903Z" fill="#77B629"/>
<path d="M97.1189 86.9231H94.0906V69.6354H97.1189V86.9231ZM94.6004 86.4133H96.609V70.1452H94.6004V86.4133Z" fill="#263238"/>
<path d="M106.734 69.8903H104.215V86.6733H106.734V69.8903Z" fill="white"/>
<path d="M106.734 86.9231H104.215C104.148 86.9218 104.084 86.8945 104.037 86.847C103.989 86.7995 103.962 86.7354 103.96 86.6682V69.8903C103.962 69.8231 103.989 69.759 104.037 69.7115C104.084 69.664 104.148 69.6367 104.215 69.6354H106.734C106.801 69.6354 106.866 69.6622 106.914 69.71C106.962 69.7578 106.989 69.8227 106.989 69.8903V86.6733C106.987 86.74 106.96 86.8035 106.912 86.8502C106.865 86.897 106.801 86.9231 106.734 86.9231ZM104.47 86.4133H106.479V70.1452H104.47V86.4133Z" fill="#263238"/>
<path d="M107.132 69.8903H104.613V86.6733H107.132V69.8903Z" fill="#77B629"/>
<path d="M107.381 86.9231H104.358V69.6354H107.381V86.9231ZM104.868 86.4133H106.872V70.1452H104.868V86.4133Z" fill="#263238"/>
<path d="M117.246 69.8903H114.728V86.6733H117.246V69.8903Z" fill="white"/>
<path d="M117.246 86.9231H114.728C114.66 86.9218 114.596 86.8945 114.549 86.847C114.501 86.7995 114.474 86.7354 114.473 86.6682V69.8903C114.474 69.8231 114.501 69.759 114.549 69.7115C114.596 69.664 114.66 69.6367 114.728 69.6354H117.246C117.314 69.6354 117.379 69.6622 117.426 69.71C117.474 69.7578 117.501 69.8227 117.501 69.8903V86.6733C117.5 86.74 117.472 86.8035 117.425 86.8502C117.377 86.897 117.313 86.9231 117.246 86.9231ZM114.983 86.4133H116.991V70.1452H114.983V86.4133Z" fill="#263238"/>
<path d="M117.644 69.8903H115.125V86.6733H117.644V69.8903Z" fill="#77B629"/>
<path d="M117.878 86.9231H114.87V69.6354H117.878V86.9231ZM115.36 86.4133H117.368V70.1452H115.38L115.36 86.4133Z" fill="#263238"/>
<path d="M127.774 69.8903H125.255V86.6733H127.774V69.8903Z" fill="white"/>
<path d="M127.774 86.9231H125.255C125.188 86.9231 125.123 86.8962 125.075 86.8484C125.027 86.8006 125 86.7358 125 86.6682V69.8903C125 69.8227 125.027 69.7578 125.075 69.71C125.123 69.6622 125.188 69.6354 125.255 69.6354H127.774C127.841 69.6367 127.905 69.664 127.953 69.7115C128 69.759 128.027 69.8231 128.029 69.8903V86.6733C128.026 86.7396 127.998 86.8024 127.951 86.8488C127.904 86.8953 127.84 86.9218 127.774 86.9231ZM125.526 86.4133H127.534V70.1452H125.526V86.4133Z" fill="#263238"/>
<path d="M128.171 69.8903H125.653V86.6733H128.171V69.8903Z" fill="#77B629"/>
<path d="M128.421 86.9231H125.398V69.6354H128.421V86.9231ZM125.908 86.4133H127.911V70.1452H125.908V86.4133Z" fill="#263238"/>
<path d="M102.926 225.668C120.208 225.668 134.218 224.399 134.218 222.834C134.218 221.268 120.208 219.999 102.926 219.999C85.6433 219.999 71.6333 221.268 71.6333 222.834C71.6333 224.399 85.6433 225.668 102.926 225.668Z" fill="#263238"/>
<path d="M146.88 188.396C171.874 163.402 171.874 122.878 146.88 97.8841C121.886 72.8898 81.3623 72.8899 56.368 97.8841C31.3738 122.878 31.3738 163.402 56.368 188.396C81.3623 213.391 121.886 213.391 146.88 188.396Z" fill="#77B629"/>
<path d="M91.0978 115.35L97.6998 116.268L100.07 118.424L102.992 118.674L104.093 121.361L103.542 123.262L101.63 124.297L96.7414 123.828L96.5732 123.242L98.75 121.498L96.981 118.689L92.6221 118.383L90.1903 116.563L91.0978 115.35Z" fill="white"/>
<path d="M147.534 171.96L142.314 171.45L136.033 171.042L131.511 172.362L127.029 172.724L122.66 175.12L120.081 176.038L118.475 176.507L115.926 179.148L113.351 181.187L108.692 179.862L108.518 175.482L105.74 175.187L102.824 176.038L102.003 174.855L101.529 172.143L100.081 170.986L98.1231 171.873L97.9702 173.504L95.5333 174.371L92.5764 172.388L90.6799 169.145L91.674 164.414L95.987 163.466L97.4502 164.149L99.1988 163.639L101.004 161.687L103.068 161.717L107.014 165.47L107.993 165.026L106.724 161.758L105.337 160.264L104.827 157.41L109.538 153.499L108.692 147.891L110.471 145.317L111.383 141.407L112.755 140.688L115.472 137.522L115.273 136.314L112.984 137.139L112.204 136.12L110.603 136.589L108.294 137.894L108.906 135.661L113.581 132.709L114.366 131.057L117.343 133.668L119.041 134.595L120.912 133.413L119.484 131.776L115.783 130.481L111.128 127.57L106.759 126.158L103.094 126.596L100.83 125.358L98.327 125.46L98.2047 126.127L99.1529 130.44L100.173 131.725L100.224 136.777L96.6243 135.294L96.4662 133.127L92.9791 132.566L91.1948 131.343L90.8583 127.453L94.1925 123.155L93.4634 119.587L91.8983 120.198L90.4963 119.179L89.4206 117.139L88.3551 117.287L88.4571 119.79L86.9276 120.555L84.7049 115.666L83.3233 115.274L81.0291 114.998L79.0358 116.849L82.7625 118.766L84.0727 121.07L77.6695 118.669L72.8772 115.799L71.4243 111.904L67.2897 111.843L64.9293 114.59C64.3477 115.227 63.7316 115.831 63.0838 116.4C62.4414 116.91 59.7547 118.006 59.7547 118.006L59.8974 120.652L56.5887 121.779L57.3484 123.308L62.9971 122.61L66.6626 124.863L68.1564 129.961L67.8709 134.947L69.5686 139.673L67.5803 148.014L69.8133 158.908L72.918 164.649L76.1757 168.758L78.4495 168.411L77.0373 166.296L75.36 164.883L73.6929 161.891L74.9216 161.213L78.4903 165.867L81.3146 170.104L82.4209 173.897L86.1731 176.446L92.194 178.638L100.351 178.465L103.323 179.969L105.755 181.789L108.85 182.625L112.311 182.564L115.477 181.478C115.477 181.478 115.758 182.982 115.987 183.711C116.216 184.44 114.881 187.514 114.881 187.514L114.141 190.925L116.247 193.79L119.816 194.162L125.699 197.506L127.998 197.787L128.635 199.974L129.191 200.917C140.015 195.765 149.168 187.67 155.604 177.557L155.37 176.482L157.215 168.187L154.937 167.427L147.534 171.96Z" fill="white"/>
<path d="M145.857 109.941L143.44 107.637L140.463 105.026L138.602 100.825L141.355 100.494L141.075 98.9952L139.132 99.4031L140.524 98.205L141.977 96.6756L141.549 95.2175L139.117 93.3975L137.827 90.3692C126.322 82.4815 112.555 78.5662 98.6202 79.2186C84.6855 79.871 71.345 85.0555 60.6265 93.9838L64.705 95.3807L63.4305 98.6027L60.8304 99.9945L61.692 104.017L60.6724 104.797L59.6833 106.836L60.601 109.421L63.1501 108.988L62.8544 111.761L65.3372 111.037L67.9831 104.409L67.7384 101.952L71.7353 100.469L72.2451 98.4294L76.3236 96.7572L76.0381 94.1469L79.0562 93.1273C79.0562 93.1273 80.9017 91.3226 81.3402 91.1951C82.2362 91.13 83.1359 91.13 84.032 91.1951L86.7289 92.3014L89.7877 91.4092L91.9442 89.0386L95.3804 88.3504C95.9542 88.5295 96.5627 88.568 97.1545 88.4625C97.8836 88.2484 99.7699 86.5915 99.7699 86.5915L104.766 87.9782L106.902 88.7786L107.539 90.9657L109.813 90.6139L110.16 89.0845L112.306 89.4057L112.505 90.6139L108.472 93.061L111.888 95.5438L118.006 96.9254L121.065 99.1992L124.358 98.5517L124.659 96.8846L125.74 96.2525L121.095 94.4426L118.679 94.8352L120.402 93.6983L117.878 91.6896L120.315 90.8179L124.032 91.6285L125.786 94.9167L127.942 96.3442L130.491 100.188L134.381 101.58L135.788 106.393L139.78 107.596L140.101 109.242L140.218 111.282L141.865 113.652L142.538 114.876L145.143 114.59L145.587 111.771L145.857 109.941Z" fill="white"/>
<path d="M143.456 94.6975L143.7 95.5336L143.654 98.0827L144.674 99.9945L146.448 100.107L147.259 102.88L145.296 102.661L147.157 110.66L146.346 114.381L148.707 118.123L151.113 119.316L153.433 127.198L157.134 132.76L160.539 136.839L164.149 136.732L164.46 133.474L164.827 132.964C164.396 130.328 163.804 127.722 163.053 125.159C159.604 113.323 152.797 102.742 143.456 94.6975Z" fill="white"/>
<path d="M105.51 168.422L105.097 169.176L109.854 169.207L112.204 170.736L115.059 170.221L115.61 168.32L112.087 168.717L105.51 168.422Z" fill="white"/>
<path d="M119.296 167.397L116.492 169.166L117.266 170.206L121.059 169.099L121.447 167.718L120.178 168.248L119.296 167.397Z" fill="white"/>
<path opacity="0.19" d="M149.242 180.774C136.611 184.466 123.149 184.175 110.689 179.939C98.2294 175.704 87.3782 167.731 79.6135 157.106C71.8487 146.482 67.5479 133.722 67.2967 120.564C67.0455 107.407 70.8563 94.4921 78.2099 83.5787C68.8734 87.2476 60.5302 93.0601 53.8535 100.547C47.1768 108.034 42.3536 116.985 39.7732 126.679C37.1927 136.373 36.9273 146.538 38.9983 156.353C41.0692 166.169 45.4186 175.36 51.6954 183.185C57.9723 191.01 66.0007 197.25 75.133 201.401C84.2652 205.552 94.2454 207.499 104.268 207.083C114.291 206.667 124.076 203.901 132.833 199.008C141.59 194.115 149.074 187.232 154.682 178.914C152.923 179.602 151.103 180.219 149.242 180.774Z" fill="black"/>
<path d="M101.605 203.986C98.614 203.987 95.6268 203.766 92.6684 203.323C92.6008 203.314 92.5397 203.278 92.4986 203.223C92.4575 203.169 92.4397 203.1 92.4491 203.033C92.4586 202.965 92.4945 202.904 92.549 202.863C92.6035 202.822 92.6721 202.804 92.7397 202.813C96.1998 203.331 99.6986 203.545 103.196 203.451C103.263 203.451 103.328 203.477 103.376 203.523C103.425 203.57 103.453 203.633 103.456 203.701C103.457 203.734 103.451 203.767 103.439 203.798C103.426 203.83 103.408 203.858 103.385 203.882C103.362 203.906 103.334 203.926 103.303 203.939C103.273 203.953 103.24 203.96 103.206 203.961C102.676 203.981 102.141 203.986 101.605 203.986Z" fill="#263238"/>
<path d="M90.1191 202.88H90.0681C88.2531 202.523 86.4331 202.084 84.6539 201.564C84.589 201.545 84.5342 201.501 84.5017 201.442C84.4692 201.383 84.4616 201.313 84.4805 201.248C84.5006 201.184 84.5447 201.13 84.6037 201.098C84.6626 201.066 84.7317 201.057 84.7966 201.075C86.5606 201.585 88.3653 202.028 90.1649 202.375C90.2315 202.389 90.2901 202.428 90.3282 202.484C90.3663 202.54 90.3809 202.609 90.3689 202.676C90.3571 202.733 90.3258 202.785 90.2803 202.822C90.2348 202.859 90.1778 202.88 90.1191 202.88Z" fill="#263238"/>
<path d="M82.4821 200.871C82.4551 200.876 82.4274 200.876 82.4005 200.871C68.1943 196.134 56.2324 186.327 48.8023 173.325C41.3721 160.323 38.9949 145.039 42.1253 130.395C42.1412 130.329 42.1819 130.272 42.239 130.236C42.2961 130.199 42.3651 130.187 42.4312 130.201C42.4639 130.207 42.4949 130.221 42.5225 130.239C42.55 130.258 42.5735 130.282 42.5915 130.31C42.6096 130.338 42.6218 130.37 42.6276 130.403C42.6333 130.435 42.6324 130.469 42.625 130.502C39.5197 145.023 41.876 160.179 49.2432 173.072C56.6105 185.965 68.4716 195.689 82.5585 200.387C82.6261 200.397 82.6867 200.435 82.7268 200.49C82.767 200.546 82.7835 200.615 82.7726 200.682C82.7618 200.75 82.7246 200.81 82.6691 200.851C82.6137 200.891 82.5446 200.907 82.477 200.896L82.4821 200.871Z" fill="#263238"/>
<path d="M44.4655 123.354C44.4368 123.359 44.4074 123.359 44.3788 123.354C44.3152 123.331 44.263 123.284 44.2335 123.223C44.204 123.162 44.1994 123.092 44.2208 123.028C45.5208 119.334 47.1716 115.772 49.1506 112.393C49.1847 112.335 49.2402 112.293 49.3051 112.276C49.37 112.259 49.4391 112.268 49.4973 112.301C49.5555 112.336 49.5977 112.393 49.6149 112.459C49.632 112.524 49.6228 112.594 49.5891 112.653C47.6275 116.003 45.992 119.534 44.7051 123.196C44.6845 123.243 44.651 123.282 44.6085 123.31C44.566 123.338 44.5164 123.353 44.4655 123.354Z" fill="#263238"/>
<path d="M101.651 207.402C85.3929 207.416 69.7335 201.268 57.8271 190.198C45.9206 179.127 38.6517 163.955 37.4845 147.739C36.3172 131.523 41.3385 115.467 51.5367 102.805C61.735 90.1436 76.3525 81.8169 92.445 79.5023C108.537 77.1878 124.909 81.0574 138.262 90.3318C151.616 99.6062 160.958 113.596 164.409 129.484C167.859 145.372 165.16 161.977 156.856 175.954C148.553 189.932 135.261 200.243 119.658 204.812C113.808 206.523 107.746 207.395 101.651 207.402ZM101.712 79.3676C88.3238 79.3448 75.268 83.537 64.3956 91.3497C53.5233 99.1624 45.3859 110.199 41.1373 122.896C36.8887 135.592 36.7444 149.303 40.7248 162.086C44.7051 174.869 52.6083 186.075 63.3138 194.115C74.0193 202.155 86.984 206.621 100.37 206.88C113.756 207.139 126.883 203.178 137.892 195.558C148.901 187.939 157.232 177.047 161.704 164.428C166.176 151.809 166.562 138.102 162.808 125.251C158.934 112.037 150.892 100.43 139.882 92.1607C128.871 83.8917 115.482 79.4042 101.712 79.3676Z" fill="#263238"/>
<path d="M91.9798 161.498C92.0206 164.557 90.2567 167.106 88.039 167.106C85.8213 167.106 83.9911 164.659 83.9605 161.58C83.9299 158.501 85.6887 155.972 87.9064 155.972C90.1241 155.972 91.9441 158.414 91.9798 161.498Z" fill="#263238"/>
<path d="M90.3484 158.934C90.5065 160.122 90.0578 161.167 89.3288 161.264C88.5998 161.361 87.9064 160.474 87.7433 159.281C87.5801 158.088 88.0339 157.048 88.7629 156.951C89.4919 156.854 90.2057 157.741 90.3484 158.934Z" fill="white"/>
<path d="M119.546 160.876C119.586 163.961 117.822 166.484 115.605 166.51C113.387 166.535 111.557 164.063 111.526 160.983C111.496 157.904 113.249 155.375 115.467 155.375C117.685 155.375 119.505 157.787 119.546 160.876Z" fill="#263238"/>
<path d="M117.777 158.001C117.935 159.194 117.486 160.234 116.757 160.331C116.028 160.428 115.335 159.541 115.171 158.353C115.008 157.165 115.462 156.12 116.191 156.023C116.92 155.926 117.613 156.813 117.777 158.001Z" fill="white"/>
<path d="M117.746 187.769C117.567 187.768 117.395 187.705 117.258 187.591C117.121 187.476 117.028 187.317 116.996 187.142C115.691 180.112 109.691 174.942 102.722 174.855H102.533C99.2629 174.879 96.0929 175.986 93.5191 178.004C90.9454 180.021 89.1132 182.835 88.3092 186.005C88.2835 186.102 88.2388 186.193 88.1779 186.273C88.1169 186.353 88.0408 186.42 87.9539 186.47C87.8671 186.521 87.7711 186.553 87.6716 186.567C87.572 186.58 87.4708 186.574 87.3737 186.548C87.2767 186.522 87.1856 186.478 87.1058 186.417C87.026 186.356 86.9589 186.28 86.9085 186.193C86.8581 186.106 86.8253 186.01 86.8119 185.91C86.7986 185.811 86.805 185.709 86.8308 185.612C87.7197 182.118 89.7411 179.017 92.5792 176.793C95.4174 174.569 98.9122 173.348 102.518 173.321H102.727C110.415 173.418 117.042 179.112 118.48 186.856C118.498 186.955 118.497 187.057 118.476 187.155C118.456 187.253 118.416 187.346 118.359 187.429C118.302 187.512 118.229 187.583 118.145 187.638C118.061 187.692 117.967 187.73 117.868 187.749L117.746 187.769Z" fill="#263238"/>
<path d="M78.3323 156.839C77.7914 156.874 77.2585 156.694 76.8507 156.337C76.443 155.98 76.1937 155.475 76.1579 154.934C76.1221 154.394 76.3026 153.861 76.6597 153.453C77.0168 153.045 77.5212 152.796 78.0621 152.76C78.1742 152.76 89.0332 151.231 95.5435 146.311C95.7571 146.149 96.0004 146.031 96.2596 145.964C96.5188 145.896 96.7888 145.88 97.0541 145.917C97.3194 145.953 97.575 146.042 97.8061 146.177C98.0372 146.313 98.2393 146.492 98.401 146.706C98.5627 146.92 98.6807 147.163 98.7484 147.422C98.816 147.681 98.832 147.951 98.7953 148.217C98.7586 148.482 98.67 148.737 98.5346 148.969C98.3991 149.2 98.2195 149.402 98.0059 149.564C90.6289 155.146 79.0919 156.737 78.6025 156.803L78.3323 156.839Z" fill="#263238"/>
<path d="M124.914 159.316C124.715 159.317 124.517 159.288 124.327 159.23C114.595 156.308 105.276 149.513 104.883 149.227C104.447 148.907 104.156 148.426 104.074 147.891C103.993 147.356 104.127 146.811 104.447 146.375C104.768 145.939 105.248 145.648 105.783 145.566C106.318 145.484 106.864 145.618 107.3 145.939C107.386 146.005 116.476 152.612 125.5 155.324C125.968 155.466 126.37 155.77 126.633 156.183C126.895 156.596 127 157.089 126.929 157.573C126.858 158.057 126.616 158.5 126.246 158.82C125.876 159.14 125.403 159.316 124.914 159.316Z" fill="#263238"/>
<path d="M145.714 142.579C145.714 143.801 145.229 144.972 144.365 145.836C143.501 146.7 142.33 147.185 141.108 147.185C139.886 147.185 138.715 146.7 137.851 145.836C136.987 144.972 136.502 143.801 136.502 142.579C136.502 139.928 141.09 131.985 141.09 131.985C141.09 131.985 145.714 139.943 145.714 142.579Z" fill="white"/>
<path d="M141.105 147.642C139.791 147.612 138.541 147.063 137.63 146.114C136.72 145.165 136.222 143.894 136.247 142.579C136.247 139.887 140.698 132.184 140.886 131.873L141.105 131.491L141.33 131.873C141.518 132.199 145.969 139.903 145.969 142.579C145.992 143.895 145.494 145.166 144.582 146.114C143.671 147.063 142.421 147.612 141.105 147.642ZM141.105 132.5C140.193 134.116 136.757 140.356 136.757 142.579C136.737 143.163 136.835 143.745 137.044 144.291C137.254 144.836 137.571 145.333 137.977 145.754C138.383 146.174 138.87 146.508 139.408 146.736C139.945 146.964 140.524 147.082 141.108 147.082C141.692 147.082 142.271 146.964 142.808 146.736C143.346 146.508 143.833 146.174 144.239 145.754C144.645 145.333 144.962 144.836 145.172 144.291C145.382 143.745 145.479 143.163 145.459 142.579C145.459 140.356 142.023 134.116 141.105 132.5Z" fill="#263238"/>
<path d="M152.79 152.689C152.807 153.11 152.739 153.53 152.59 153.925C152.44 154.319 152.212 154.679 151.92 154.983C151.628 155.287 151.278 155.529 150.89 155.695C150.502 155.86 150.084 155.945 149.663 155.945C149.241 155.945 148.824 155.86 148.436 155.695C148.048 155.529 147.697 155.287 147.405 154.983C147.113 154.679 146.885 154.319 146.736 153.925C146.586 153.53 146.518 153.11 146.535 152.689C146.535 150.889 149.66 145.495 149.66 145.495C149.66 145.495 152.79 150.879 152.79 152.689Z" fill="white"/>
<path d="M149.66 156.196C148.746 156.176 147.877 155.795 147.243 155.135C146.61 154.476 146.263 153.593 146.28 152.678C146.28 150.828 149.339 145.577 149.441 145.358L149.66 144.975L149.884 145.358C150.012 145.577 153.045 150.828 153.045 152.678C153.06 153.593 152.712 154.477 152.078 155.136C151.444 155.795 150.574 156.176 149.66 156.196ZM149.66 146C148.956 147.259 146.79 151.236 146.79 152.678C146.789 153.056 146.863 153.431 147.007 153.78C147.151 154.13 147.362 154.447 147.629 154.715C147.896 154.983 148.213 155.195 148.562 155.34C148.91 155.486 149.285 155.561 149.662 155.561C150.04 155.562 150.415 155.488 150.764 155.344C151.114 155.2 151.431 154.989 151.699 154.722C151.967 154.455 152.179 154.139 152.324 153.79C152.47 153.441 152.545 153.067 152.545 152.689C152.545 151.236 150.369 147.259 149.66 146Z" fill="#263238"/>
<path d="M70.1295 174.065C70.1465 174.487 70.0782 174.907 69.9287 175.301C69.7792 175.696 69.5516 176.056 69.2595 176.36C68.9673 176.664 68.6168 176.906 68.2288 177.071C67.8409 177.236 67.4235 177.322 67.0018 177.322C66.5801 177.322 66.1628 177.236 65.7748 177.071C65.3869 176.906 65.0363 176.664 64.7442 176.36C64.4521 176.056 64.2244 175.696 64.0749 175.301C63.9254 174.907 63.8571 174.487 63.8741 174.065C63.8741 172.266 66.9993 166.872 66.9993 166.872C66.9993 166.872 70.1295 172.266 70.1295 174.065Z" fill="white"/>
<path d="M66.9992 177.583C66.0847 177.564 65.215 177.183 64.5812 176.524C63.9474 175.864 63.6014 174.98 63.6192 174.065C63.6192 172.22 66.6781 166.969 66.78 166.744L66.9992 166.367L67.2185 166.744C67.351 166.969 70.3844 172.22 70.3844 174.065C70.4008 174.98 70.0536 175.864 69.419 176.524C68.7844 177.183 67.9142 177.564 66.9992 177.583ZM66.9992 167.387C66.2906 168.651 64.129 172.627 64.129 174.065C64.1127 174.453 64.1749 174.839 64.3119 175.202C64.4489 175.565 64.6579 175.896 64.9263 176.176C65.1946 176.456 65.5168 176.679 65.8735 176.831C66.2302 176.983 66.614 177.062 67.0018 177.062C67.3896 177.062 67.7733 176.983 68.13 176.831C68.4867 176.679 68.8089 176.456 69.0773 176.176C69.3457 175.896 69.5547 175.565 69.6917 175.202C69.8287 174.839 69.8909 174.453 69.8746 174.065C69.8746 172.627 67.7079 168.651 66.9992 167.387Z" fill="#263238"/>
<path d="M119.622 116.772C119.639 117.194 119.571 117.614 119.421 118.009C119.272 118.403 119.044 118.763 118.752 119.067C118.46 119.371 118.109 119.613 117.721 119.779C117.333 119.944 116.916 120.029 116.494 120.029C116.073 120.029 115.655 119.944 115.267 119.779C114.879 119.613 114.529 119.371 114.237 119.067C113.945 118.763 113.717 118.403 113.567 118.009C113.418 117.614 113.35 117.194 113.367 116.772C113.367 114.968 116.492 109.579 116.492 109.579C116.492 109.579 119.622 114.963 119.622 116.772Z" fill="white"/>
<path d="M116.492 120.29C115.578 120.27 114.709 119.889 114.075 119.229C113.442 118.57 113.095 117.687 113.112 116.772C113.112 114.922 116.171 109.671 116.272 109.446L116.492 109.069L116.716 109.446C116.843 109.671 119.877 114.922 119.877 116.772C119.892 117.687 119.544 118.571 118.91 119.23C118.276 119.889 117.406 120.27 116.492 120.29ZM116.492 110.094C115.788 111.353 113.621 115.33 113.621 116.772C113.605 117.16 113.667 117.547 113.804 117.909C113.941 118.272 114.15 118.604 114.419 118.883C114.687 119.163 115.009 119.386 115.366 119.538C115.723 119.69 116.106 119.769 116.494 119.769C116.882 119.769 117.266 119.69 117.622 119.538C117.979 119.386 118.301 119.163 118.57 118.883C118.838 118.604 119.047 118.272 119.184 117.909C119.321 117.547 119.383 117.16 119.367 116.772C119.367 115.33 117.2 111.353 116.492 110.094Z" fill="#263238"/>
<path d="M84.0371 110.084C84.0541 110.505 83.9858 110.926 83.8363 111.32C83.6868 111.714 83.4592 112.074 83.167 112.378C82.8749 112.683 82.5244 112.925 82.1364 113.09C81.7485 113.255 81.3311 113.34 80.9094 113.34C80.4877 113.34 80.0704 113.255 79.6824 113.09C79.2944 112.925 78.9439 112.683 78.6518 112.378C78.3597 112.074 78.132 111.714 77.9825 111.32C77.833 110.926 77.7647 110.505 77.7817 110.084C77.7817 108.279 80.912 102.89 80.912 102.89C80.912 102.89 84.0371 108.279 84.0371 110.084Z" fill="white"/>
<path d="M80.912 113.601C79.9974 113.581 79.128 113.2 78.4937 112.541C77.8594 111.882 77.5118 110.998 77.5268 110.084C77.5268 108.233 80.5857 102.982 80.6877 102.758L80.912 102.38L81.1312 102.758C81.2587 102.982 84.292 108.233 84.292 110.084C84.3084 110.998 83.962 111.881 83.3285 112.541C82.695 113.2 81.8261 113.581 80.912 113.601ZM80.912 103.405C80.2033 104.664 78.0366 108.641 78.0366 110.084C78.0203 110.471 78.0825 110.858 78.2195 111.221C78.3566 111.583 78.5655 111.915 78.8339 112.195C79.1023 112.475 79.4245 112.697 79.7812 112.85C80.1379 113.002 80.5216 113.08 80.9094 113.08C81.2972 113.08 81.681 113.002 82.0377 112.85C82.3944 112.697 82.7166 112.475 82.985 112.195C83.2533 111.915 83.4623 111.583 83.5993 111.221C83.7363 110.858 83.7985 110.471 83.7822 110.084C83.7822 108.641 81.6155 104.664 80.912 103.405Z" fill="#263238"/>
<path d="M107.713 213.321C107.73 213.742 107.662 214.162 107.512 214.557C107.363 214.951 107.135 215.311 106.843 215.615C106.551 215.919 106.2 216.161 105.812 216.327C105.424 216.492 105.007 216.577 104.585 216.577C104.163 216.577 103.746 216.492 103.358 216.327C102.97 216.161 102.62 215.919 102.328 215.615C102.035 215.311 101.808 214.951 101.658 214.557C101.509 214.162 101.44 213.742 101.458 213.321C101.458 211.521 104.588 206.127 104.588 206.127C104.588 206.127 107.713 211.521 107.713 213.321Z" fill="white"/>
<path d="M104.587 216.838C103.672 216.82 102.802 216.439 102.168 215.779C101.533 215.12 101.186 214.236 101.202 213.321C101.202 211.475 104.236 206.224 104.363 206L104.587 205.623L104.807 206C104.934 206.224 107.968 211.475 107.968 213.321C107.984 214.235 107.637 215.118 107.004 215.778C106.37 216.437 105.502 216.818 104.587 216.838ZM104.587 206.642C103.879 207.907 101.712 211.883 101.712 213.321C101.696 213.708 101.758 214.095 101.895 214.458C102.032 214.82 102.241 215.152 102.509 215.432C102.778 215.712 103.1 215.934 103.457 216.087C103.813 216.239 104.197 216.317 104.585 216.317C104.973 216.317 105.356 216.239 105.713 216.087C106.07 215.934 106.392 215.712 106.66 215.432C106.929 215.152 107.138 214.82 107.275 214.458C107.412 214.095 107.474 213.708 107.458 213.321C107.458 211.883 105.291 207.907 104.587 206.642Z" fill="#263238"/>
<path d="M71.4192 140.703C71.4362 141.124 71.3679 141.545 71.2184 141.939C71.0689 142.333 70.8412 142.693 70.5491 142.998C70.257 143.302 69.9065 143.544 69.5185 143.709C69.1306 143.874 68.7132 143.96 68.2915 143.96C67.8698 143.96 67.4524 143.874 67.0645 143.709C66.6765 143.544 66.326 143.302 66.0339 142.998C65.7418 142.693 65.5141 142.333 65.3646 141.939C65.2151 141.545 65.1468 141.124 65.1638 140.703C65.1638 138.898 68.2889 133.504 68.2889 133.504C68.2889 133.504 71.4192 138.924 71.4192 140.703Z" fill="white"/>
<path d="M68.2892 144.216C67.3755 144.197 66.5066 143.817 65.873 143.158C65.2394 142.5 64.8927 141.617 64.9091 140.703C64.9091 138.852 67.968 133.601 68.07 133.377L68.2892 133L68.5084 133.377C68.6409 133.601 71.6743 138.852 71.6743 140.703C71.6893 141.617 71.3416 142.5 70.7071 143.158C70.0727 143.817 69.2033 144.197 68.2892 144.216ZM68.2892 134.019C67.5805 135.279 65.4189 139.255 65.4189 140.698C65.4026 141.085 65.4648 141.472 65.6018 141.835C65.7388 142.198 65.9478 142.529 66.2162 142.809C66.4846 143.089 66.8068 143.312 67.1635 143.464C67.5202 143.616 67.9039 143.694 68.2917 143.694C68.6795 143.694 69.0633 143.616 69.42 143.464C69.7767 143.312 70.0989 143.089 70.3673 142.809C70.6356 142.529 70.8446 142.198 70.9816 141.835C71.1186 141.472 71.1808 141.085 71.1645 140.698C71.1645 139.26 68.9978 135.284 68.2892 134.024V134.019Z" fill="#263238"/>
<path d="M30.996 172.158V118.71C30.996 117.384 30.4697 116.113 29.5329 115.175C28.5961 114.237 27.3253 113.71 25.9998 113.708C24.6743 113.71 23.4035 114.237 22.4667 115.175C21.5299 116.113 21.0036 117.384 21.0036 118.71V171.853C19.0755 172.894 17.5444 174.541 16.6474 176.54C15.7504 178.539 15.5375 180.779 16.0418 182.911C16.5461 185.043 17.7393 186.95 19.4368 188.336C21.1342 189.721 23.2412 190.508 25.4313 190.575C27.6215 190.642 29.7726 189.986 31.5517 188.706C33.3307 187.427 34.6383 185.597 35.2721 183.5C35.9059 181.402 35.8304 179.154 35.0573 177.104C34.2843 175.054 32.8568 173.315 30.996 172.158Z" fill="white"/>
<path d="M25.7605 190.812C25.3619 190.81 24.9638 190.788 24.5675 190.746C22.419 190.506 20.4024 189.589 18.809 188.128C17.2156 186.667 16.1278 184.737 15.7028 182.617C15.2779 180.498 15.5377 178.298 16.4447 176.335C17.3517 174.373 18.8591 172.749 20.749 171.7V118.71C20.749 117.317 21.3022 115.981 22.287 114.997C23.2718 114.012 24.6074 113.459 26.0001 113.459C27.3927 113.459 28.7284 114.012 29.7131 114.997C30.6979 115.981 31.2511 117.317 31.2511 118.71V172.021C33.1111 173.208 34.5359 174.966 35.3116 177.031C36.0874 179.097 36.1722 181.358 35.5535 183.476C34.9347 185.594 33.6456 187.454 31.8798 188.776C30.114 190.099 27.9668 190.814 25.7605 190.812ZM26.0001 113.943C24.7426 113.946 23.5374 114.447 22.6487 115.336C21.76 116.226 21.2602 117.432 21.2588 118.689V172L21.1263 172.077C19.2534 173.09 17.7667 174.693 16.8962 176.636C16.0257 178.58 15.82 180.756 16.3108 182.828C16.8017 184.901 17.9617 186.753 19.6115 188.1C21.2613 189.447 23.3088 190.212 25.4374 190.278C27.5659 190.343 29.6568 189.706 31.3866 188.464C33.1163 187.222 34.3885 185.444 35.0063 183.406C35.6241 181.368 35.5531 179.183 34.8042 177.19C34.0554 175.196 32.6704 173.505 30.8637 172.378L30.7413 172.301V118.71C30.7433 118.085 30.6223 117.467 30.385 116.889C30.1478 116.312 29.799 115.786 29.3587 115.344C28.9183 114.901 28.3951 114.549 27.8188 114.309C27.2425 114.069 26.6245 113.944 26.0001 113.943Z" fill="#263238"/>
<path d="M27.8099 173.178V130.298H24.1903V173.046C22.3347 173.421 20.6814 174.464 19.5436 175.978C18.4058 177.491 17.8625 179.369 18.0168 181.256C18.1711 183.143 19.0122 184.908 20.3806 186.216C21.7491 187.524 23.55 188.285 25.4419 188.354C27.3339 188.424 29.1856 187.796 30.6461 186.592C32.1066 185.387 33.0745 183.688 33.3663 181.818C33.6582 179.947 33.2538 178.035 32.2297 176.442C31.2057 174.85 29.6331 173.688 27.8099 173.178Z" fill="#77B629"/>
<path d="M25.745 188.569C23.79 188.568 21.9034 187.849 20.4444 186.548C18.9854 185.246 18.0557 183.454 17.8322 181.512C17.6087 179.57 18.107 177.613 19.2323 176.014C20.3576 174.416 22.0314 173.286 23.9352 172.842V130.043H28.0646V172.989C29.8896 173.546 31.454 174.74 32.473 176.353C33.4921 177.966 33.898 179.891 33.617 181.779C33.3361 183.666 32.3868 185.39 30.942 186.636C29.4973 187.882 27.653 188.568 25.745 188.569ZM24.445 130.553V173.255L24.241 173.295C22.4482 173.659 20.8512 174.668 19.7524 176.131C18.6536 177.593 18.1295 179.408 18.2793 181.232C18.429 183.055 19.2423 184.76 20.565 186.024C21.8878 187.287 23.6281 188.022 25.4562 188.089C27.2844 188.155 29.0735 187.549 30.4846 186.385C31.8957 185.22 32.8307 183.579 33.1126 181.771C33.3945 179.964 33.0037 178.116 32.0141 176.577C31.0246 175.038 29.5051 173.916 27.7435 173.423L27.5548 173.372V130.548L24.445 130.553Z" fill="#263238"/>
<path d="M22.6249 179.821C23.8103 179.821 24.7713 178.86 24.7713 177.675C24.7713 176.489 23.8103 175.528 22.6249 175.528C21.4396 175.528 20.4786 176.489 20.4786 177.675C20.4786 178.86 21.4396 179.821 22.6249 179.821Z" fill="white"/>
<path d="M25.1588 124.649H22.4262C22.359 124.648 22.2949 124.62 22.2474 124.573C22.1998 124.525 22.1726 124.461 22.1713 124.394C22.1713 124.326 22.1981 124.262 22.2459 124.214C22.2937 124.166 22.3586 124.139 22.4262 124.139H25.1588C25.2264 124.139 25.2912 124.166 25.339 124.214C25.3868 124.262 25.4137 124.326 25.4137 124.394C25.4137 124.462 25.3868 124.527 25.339 124.574C25.2912 124.622 25.2264 124.649 25.1588 124.649Z" fill="#263238"/>
<path d="M25.1588 128.728H22.4262C22.3586 128.728 22.2937 128.701 22.2459 128.653C22.1981 128.605 22.1713 128.54 22.1713 128.473C22.1726 128.405 22.1998 128.341 22.2474 128.294C22.2949 128.246 22.359 128.219 22.4262 128.218H25.1588C25.2264 128.218 25.2912 128.245 25.339 128.292C25.3868 128.34 25.4137 128.405 25.4137 128.473C25.4137 128.54 25.3868 128.605 25.339 128.653C25.2912 128.701 25.2264 128.728 25.1588 128.728Z" fill="#263238"/>
<path d="M25.1588 132.847H22.4262C22.3586 132.847 22.2937 132.82 22.2459 132.772C22.1981 132.724 22.1713 132.659 22.1713 132.592C22.1726 132.525 22.1998 132.461 22.2474 132.413C22.2949 132.366 22.359 132.338 22.4262 132.337H25.1588C25.2264 132.337 25.2912 132.364 25.339 132.412C25.3868 132.459 25.4137 132.524 25.4137 132.592C25.4137 132.659 25.3868 132.724 25.339 132.772C25.2912 132.82 25.2264 132.847 25.1588 132.847Z" fill="#263238"/>
<path d="M25.1588 136.946H22.4262C22.3586 136.946 22.2937 136.919 22.2459 136.871C22.1981 136.823 22.1713 136.758 22.1713 136.691C22.1726 136.624 22.1998 136.559 22.2474 136.512C22.2949 136.464 22.359 136.437 22.4262 136.436H25.1588C25.2264 136.436 25.2912 136.463 25.339 136.511C25.3868 136.558 25.4137 136.623 25.4137 136.691C25.4137 136.758 25.3868 136.823 25.339 136.871C25.2912 136.919 25.2264 136.946 25.1588 136.946Z" fill="#263238"/>
<path d="M25.1588 141.045H22.4262C22.3586 141.045 22.2937 141.018 22.2459 140.97C22.1981 140.922 22.1713 140.857 22.1713 140.79C22.1726 140.723 22.1998 140.658 22.2474 140.611C22.2949 140.563 22.359 140.536 22.4262 140.535H25.1588C25.2264 140.535 25.2912 140.562 25.339 140.61C25.3868 140.657 25.4137 140.722 25.4137 140.79C25.4137 140.857 25.3868 140.922 25.339 140.97C25.2912 141.018 25.2264 141.045 25.1588 141.045Z" fill="#263238"/>
<path d="M25.1588 145.143H22.4262C22.3586 145.143 22.2937 145.117 22.2459 145.069C22.1981 145.021 22.1713 144.956 22.1713 144.889C22.1713 144.821 22.1981 144.756 22.2459 144.708C22.2937 144.661 22.3586 144.634 22.4262 144.634H25.1588C25.2264 144.634 25.2912 144.661 25.339 144.708C25.3868 144.756 25.4137 144.821 25.4137 144.889C25.4137 144.956 25.3868 145.021 25.339 145.069C25.2912 145.117 25.2264 145.143 25.1588 145.143Z" fill="#263238"/>
<path d="M25.1588 149.242H22.4262C22.3586 149.242 22.2937 149.215 22.2459 149.168C22.1981 149.12 22.1713 149.055 22.1713 148.987C22.1713 148.92 22.1981 148.855 22.2459 148.807C22.2937 148.759 22.3586 148.732 22.4262 148.732H25.1588C25.2264 148.732 25.2912 148.759 25.339 148.807C25.3868 148.855 25.4137 148.92 25.4137 148.987C25.4137 149.055 25.3868 149.12 25.339 149.168C25.2912 149.215 25.2264 149.242 25.1588 149.242Z" fill="#263238"/>
<path d="M25.1588 153.341H22.4262C22.359 153.34 22.2949 153.313 22.2474 153.265C22.1998 153.218 22.1726 153.154 22.1713 153.086C22.1713 153.019 22.1981 152.954 22.2459 152.906C22.2937 152.858 22.3586 152.831 22.4262 152.831H25.1588C25.2264 152.831 25.2912 152.858 25.339 152.906C25.3868 152.954 25.4137 153.019 25.4137 153.086C25.4137 153.154 25.3868 153.219 25.339 153.267C25.2912 153.314 25.2264 153.341 25.1588 153.341Z" fill="#263238"/>
<path d="M25.1588 157.44H22.4262C22.359 157.439 22.2949 157.412 22.2474 157.364C22.1998 157.316 22.1726 157.252 22.1713 157.185C22.1713 157.118 22.1981 157.053 22.2459 157.005C22.2937 156.957 22.3586 156.93 22.4262 156.93H25.1588C25.2264 156.93 25.2912 156.957 25.339 157.005C25.3868 157.053 25.4137 157.118 25.4137 157.185C25.4137 157.253 25.3868 157.318 25.339 157.365C25.2912 157.413 25.2264 157.44 25.1588 157.44Z" fill="#263238"/>
<path d="M25.1588 161.539H22.4262C22.359 161.538 22.2949 161.51 22.2474 161.463C22.1998 161.415 22.1726 161.351 22.1713 161.284C22.1713 161.216 22.1981 161.152 22.2459 161.104C22.2937 161.056 22.3586 161.029 22.4262 161.029H25.1588C25.2264 161.029 25.2912 161.056 25.339 161.104C25.3868 161.152 25.4137 161.216 25.4137 161.284C25.4137 161.352 25.3868 161.417 25.339 161.464C25.2912 161.512 25.2264 161.539 25.1588 161.539Z" fill="#263238"/>
<path d="M25.1588 165.633H22.4262C22.3586 165.633 22.2937 165.606 22.2459 165.558C22.1981 165.51 22.1713 165.445 22.1713 165.378C22.1726 165.311 22.1998 165.247 22.2474 165.199C22.2949 165.152 22.359 165.124 22.4262 165.123H25.1588C25.2264 165.123 25.2912 165.15 25.339 165.198C25.3868 165.245 25.4137 165.31 25.4137 165.378C25.4137 165.445 25.3868 165.51 25.339 165.558C25.2912 165.606 25.2264 165.633 25.1588 165.633Z" fill="#263238"/>
<path d="M25.1588 169.732H22.4262C22.3586 169.732 22.2937 169.705 22.2459 169.657C22.1981 169.609 22.1713 169.544 22.1713 169.477C22.1726 169.41 22.1998 169.345 22.2474 169.298C22.2949 169.25 22.359 169.223 22.4262 169.222H25.1588C25.2264 169.222 25.2912 169.249 25.339 169.297C25.3868 169.344 25.4137 169.409 25.4137 169.477C25.4137 169.544 25.3868 169.609 25.339 169.657C25.2912 169.705 25.2264 169.732 25.1588 169.732Z" fill="#263238"/>
<path d="M19.1635 139.408L13.265 129.197L7.37158 139.408H11.6081V172.036H14.927V139.408H19.1635Z" fill="#263238"/>
</svg>
