<svg width="384" height="292" viewBox="0 0 384 292" fill="none" xmlns="http://www.w3.org/2000/svg">
<path d="M384 256.651H0V256.843H384V256.651Z" fill="#EBEBEB"/>
<path d="M65.7257 263.962H40.2896V264.154H65.7257V263.962Z" fill="#EBEBEB"/>
<path d="M138.11 261.881H111.614V262.073H138.11V261.881Z" fill="#EBEBEB"/>
<path d="M100.992 267.672H58.4297V267.864H100.992V267.672Z" fill="#EBEBEB"/>
<path d="M344.702 268.378H311.532V268.57H344.702V268.378Z" fill="#EBEBEB"/>
<path d="M302.078 263.578H284.491V263.77H302.078V263.578Z" fill="#EBEBEB"/>
<path d="M222.19 266.658H150.244V266.85H222.19V266.658Z" fill="#EBEBEB"/>
<path d="M182.016 222.398H33.7233C32.5616 222.396 31.4481 221.933 30.6274 221.111C29.8067 220.289 29.3457 219.175 29.3457 218.013V9.55477C29.3558 8.39971 29.8212 7.29529 30.6409 6.4814C31.4605 5.6675 32.5682 5.20986 33.7233 5.20789H182.016C183.179 5.20789 184.295 5.66991 185.117 6.4923C185.94 7.3147 186.402 8.43012 186.402 9.59316V218.013C186.402 219.176 185.94 220.291 185.117 221.114C184.295 221.936 183.179 222.398 182.016 222.398V222.398ZM33.7233 5.36149C32.6125 5.36352 31.5479 5.80621 30.7632 6.59238C29.9784 7.37855 29.5377 8.44397 29.5377 9.55477V218.013C29.5377 219.124 29.9784 220.189 30.7632 220.975C31.5479 221.762 32.6125 222.204 33.7233 222.206H182.016C183.128 222.204 184.193 221.762 184.979 220.976C185.765 220.19 186.208 219.124 186.21 218.013V9.55477C186.208 8.44326 185.765 7.37786 184.979 6.59191C184.193 5.80596 183.128 5.36352 182.016 5.36149H33.7233Z" fill="#EBEBEB"/>
<path d="M348.142 222.398H199.841C198.679 222.396 197.565 221.934 196.743 221.112C195.921 220.29 195.458 219.175 195.456 218.013V9.55477C195.468 8.39901 195.935 7.2946 196.756 6.48092C197.577 5.66723 198.686 5.20984 199.841 5.20789H348.142C349.296 5.21188 350.402 5.67041 351.22 6.48409C352.038 7.29777 352.502 8.40104 352.512 9.55477V218.013C352.512 219.173 352.052 220.286 351.233 221.108C350.414 221.93 349.303 222.394 348.142 222.398V222.398ZM199.841 5.36149C198.73 5.36352 197.664 5.80596 196.878 6.59191C196.093 7.37786 195.65 8.44326 195.648 9.55477V218.013C195.65 219.124 196.093 220.19 196.878 220.976C197.664 221.762 198.73 222.204 199.841 222.206H348.142C349.254 222.204 350.319 221.762 351.105 220.976C351.891 220.19 352.333 219.124 352.335 218.013V9.55477C352.333 8.44326 351.891 7.37786 351.105 6.59191C350.319 5.80596 349.254 5.36352 348.142 5.36149H199.841Z" fill="#EBEBEB"/>
<path d="M239.432 156.189H217.667V250.576H239.432V156.189Z" fill="#F0F0F0"/>
<path d="M329.173 250.576H221.845V256.559H329.173V250.576Z" fill="#F0F0F0"/>
<path d="M239.432 250.576H333.351V156.189H239.432V250.576Z" fill="#F5F5F5"/>
<path d="M247.987 198.759H324.795V167.801H247.987V198.759Z" fill="#F0F0F0"/>
<path d="M247.987 238.964H324.795V208.006H247.987V238.964Z" fill="#F0F0F0"/>
<path d="M295.012 170.42H277.77C277.207 170.418 276.667 170.193 276.268 169.795C275.87 169.396 275.645 168.856 275.643 168.293V168.293C275.645 167.73 275.87 167.191 276.269 166.793C276.668 166.396 277.208 166.173 277.77 166.173H295.012C295.575 166.173 296.115 166.396 296.514 166.793C296.912 167.191 297.137 167.73 297.139 168.293V168.293C297.137 168.856 296.913 169.396 296.514 169.795C296.116 170.193 295.576 170.418 295.012 170.42V170.42Z" fill="#F5F5F5"/>
<path d="M295.012 210.61H277.77C277.208 210.61 276.668 210.386 276.269 209.989C275.87 209.592 275.645 209.053 275.643 208.49V208.49C275.645 207.927 275.87 207.388 276.269 206.991C276.668 206.593 277.208 206.37 277.77 206.37H295.012C295.575 206.37 296.115 206.593 296.514 206.991C296.912 207.388 297.137 207.927 297.139 208.49V208.49C297.137 209.053 296.912 209.592 296.514 209.989C296.115 210.386 295.575 210.61 295.012 210.61V210.61Z" fill="#F5F5F5"/>
<path d="M285.927 26.0053H246.79V68.6908H285.927V26.0053Z" fill="#E0E0E0"/>
<path d="M288.269 26.0053H248.11V68.6908H288.269V26.0053Z" fill="#F5F5F5"/>
<path d="M284.897 65.3269V29.3691L251.474 29.3691V65.3269H284.897Z" fill="white"/>
<path d="M272.279 53.7608L276.242 46.8949C276.657 46.1771 276.876 45.3627 276.877 44.5334C276.878 43.7041 276.66 42.8893 276.246 42.1708C275.832 41.4524 275.236 40.8556 274.518 40.4405C273.8 40.0255 272.986 39.8067 272.156 39.8063H264.192C263.363 39.8077 262.549 40.0269 261.831 40.442C261.114 40.8571 260.518 41.4534 260.103 42.1714C259.689 42.8893 259.47 43.7035 259.469 44.5325C259.468 45.3615 259.685 46.1762 260.099 46.8949L264.069 53.7608C264.482 54.4857 265.079 55.0884 265.8 55.5077C266.521 55.927 267.34 56.1478 268.174 56.1478C269.008 56.1478 269.827 55.927 270.548 55.5077C271.269 55.0884 271.867 54.4857 272.279 53.7608V53.7608Z" fill="#F5F5F5"/>
<path d="M96.9829 100.34H72.814V256.651H96.9829V100.34Z" fill="#E0E0E0"/>
<path d="M158.577 256.651H77.6526L69.1509 64.2594H150.075L158.577 256.651Z" fill="#E6E6E6"/>
<path d="M170.381 256.651H80.8704L72.3687 64.2594H161.879L170.381 256.651Z" fill="#F0F0F0"/>
<path d="M89.6332 247.22L82.4678 73.6904H153.116L160.282 247.22H89.6332Z" fill="white"/>
<path d="M119.985 247.22L95.9697 73.6904H103.504L127.519 247.22H119.985Z" fill="#FAFAFA"/>
<path d="M130.714 247.22L106.698 73.6904H119.547L143.562 247.22H130.714Z" fill="#FAFAFA"/>
<path d="M290.842 152.295H292.608C292.608 148.655 292.608 139.416 292.793 118.242C293.108 79.8421 293.722 77.5381 293.722 77.5381L289.536 95.2482C286.841 114.863 290.304 134.578 290.842 152.295Z" fill="#E6E6E6"/>
<path d="M287.347 92.6063C281.288 85.3871 268.339 83.2828 255.091 81.4857C249.892 80.7791 268.77 92.6677 277.993 101.116C285.166 107.674 289.744 109.487 291.71 116.023C292.731 107.874 292.562 98.8271 287.347 92.6063Z" fill="#E6E6E6"/>
<path d="M295.38 105.509C301.44 98.2895 314.381 96.1852 327.636 94.388C332.843 93.6892 313.966 105.578 304.735 114.018C297.569 120.585 292.984 122.397 291.018 128.933C289.997 120.777 290.158 111.729 295.38 105.509Z" fill="#E6E6E6"/>
<path d="M292.785 75.8639C297.331 67.2316 308.759 59.1061 321.585 56.0264C326.623 54.813 309.919 71.9625 303.575 83.0217C298.644 91.5772 292.101 101.669 291.072 108.888C289.536 94.557 288.246 84.4655 292.785 75.8639Z" fill="#E6E6E6"/>
<path d="M292.247 156.435C286.871 156.435 282.363 153.724 282.056 150.291L281.157 144.362H303.36L302.462 150.291C302.131 153.724 297.662 156.435 292.247 156.435Z" fill="#F0F0F0"/>
<path d="M304.781 146.604H279.713L278.999 140H305.503L304.781 146.604Z" fill="#F0F0F0"/>
<path d="M192 291.334C274.239 291.334 340.907 287.442 340.907 282.64C340.907 277.839 274.239 273.946 192 273.946C109.76 273.946 43.0923 277.839 43.0923 282.64C43.0923 287.442 109.76 291.334 192 291.334Z" fill="#F5F5F5"/>
<path d="M215.747 81.6239C215.747 60.2368 207.251 39.7257 192.128 24.6028C177.005 9.47986 156.494 0.983887 135.107 0.983887C113.72 0.983887 93.2086 9.47986 78.0857 24.6028C62.9628 39.7257 54.4668 60.2368 54.4668 81.6239C54.4668 116.591 76.063 145.176 107.835 157.533L163.246 179.037L152.732 160.344C170.615 156.331 186.599 146.349 198.053 132.041C209.506 117.733 215.747 99.9516 215.747 81.6239V81.6239Z" fill="#77B629"/>
<path d="M133.302 154.968C118.441 154.966 103.914 150.558 91.5579 142.301C79.202 134.043 69.5721 122.307 63.8861 108.577C58.2 94.8463 56.713 79.7382 59.6132 65.1628C62.5134 50.5873 69.6706 37.1992 80.1795 26.6912C90.6885 16.1833 104.077 9.02761 118.653 6.1289C133.229 3.23018 148.337 4.71867 162.067 10.4062C175.796 16.0936 187.531 25.7247 195.788 38.0814C204.044 50.4381 208.451 64.9656 208.451 79.8268C208.428 99.7499 200.503 118.85 186.415 132.938C172.326 147.025 153.225 154.948 133.302 154.968ZM133.302 5.45364C118.593 5.45516 104.214 9.81835 91.9845 17.9915C79.7549 26.1646 70.2236 37.7807 64.5956 51.3707C58.9677 64.9608 57.4959 79.9145 60.3665 94.3409C63.2371 108.767 70.321 122.019 80.7226 132.419C91.1242 142.82 104.376 149.902 118.803 152.771C133.23 155.64 148.183 154.167 161.773 148.538C175.362 142.908 186.977 133.376 195.149 121.145C203.321 108.915 207.683 94.5361 207.683 79.8268C207.65 60.1104 199.803 41.2111 185.861 27.2702C171.918 13.3294 153.018 5.4841 133.302 5.45364Z" fill="white"/>
<path d="M80.5786 85.2872C80.5786 74.8731 82.6957 66.5352 86.93 60.2734C88.8767 57.2715 91.4836 54.7541 94.5515 52.9133C97.6195 51.0725 101.068 49.957 104.632 49.652C112.379 48.8123 118.351 51.0165 122.55 56.2645C126.748 61.5125 128.845 69.2693 128.84 79.5349C128.84 86.9947 127.923 93.2078 126.09 98.1742C124.503 102.782 121.771 106.91 118.149 110.17C114.503 113.275 109.974 115.156 105.201 115.546C99.9476 116.115 95.5956 115.439 92.1447 113.519C88.6938 111.599 85.9034 108.271 83.7735 103.535C81.6436 98.8245 80.5786 92.7419 80.5786 85.2872ZM94.9709 83.8126C94.9709 90.2587 95.8439 94.7925 97.5898 97.4139C98.3066 98.6281 99.3663 99.6033 100.636 100.217C101.905 100.83 103.328 101.055 104.725 100.862C106.236 100.704 107.684 100.172 108.937 99.3141C110.191 98.4559 111.211 97.2986 111.905 95.947C113.59 93.003 114.432 87.965 114.432 80.8328C114.432 74.827 113.549 70.5365 111.782 67.9611C111.042 66.7568 109.965 65.7953 108.686 65.1949C107.406 64.5945 105.978 64.3814 104.579 64.5819C101.681 64.8994 99.3511 66.5582 97.5898 69.5586C95.8285 72.5589 94.9556 77.3102 94.9709 83.8126V83.8126Z" fill="white"/>
<path d="M136.658 47.2713L151.05 45.7353V69.8428L166.126 44.1071L185.272 42.0258L168.276 67.9458L186.032 105.739L168.307 107.659L158.484 82.4917L151.05 93.9657V109.502L136.658 111.038V47.2713Z" fill="white"/>
<path d="M65.7562 20.1531C64.5969 20.1547 63.4632 19.8123 62.4986 19.1693C61.5339 18.5264 60.7816 17.6117 60.3369 16.5411C59.8922 15.4705 59.7751 14.292 60.0003 13.1548C60.2256 12.0176 60.7831 10.9728 61.6023 10.1525C62.4215 9.33222 63.4656 8.77336 64.6025 8.54663C65.7394 8.31991 66.918 8.4355 67.9892 8.87879C69.0604 9.32208 69.976 10.0731 70.6203 11.037C71.2645 12.0008 71.6084 13.134 71.6084 14.2933C71.6063 15.8455 70.9894 17.3336 69.8925 18.4319C68.7957 19.5302 67.3084 20.1491 65.7562 20.1531V20.1531ZM65.7562 9.20915C64.7485 9.20763 63.763 9.50516 62.9244 10.0641C62.0859 10.623 61.4321 11.4182 61.0457 12.3489C60.6594 13.2796 60.5579 14.304 60.7541 15.2925C60.9504 16.2809 61.4355 17.1889 62.148 17.9015C62.8606 18.614 63.7686 19.0991 64.757 19.2954C65.7455 19.4916 66.7699 19.3901 67.7006 19.0038C68.6314 18.6174 69.4265 17.9636 69.9854 17.1251C70.5443 16.2865 70.8419 15.301 70.8404 14.2933C70.8383 12.9455 70.302 11.6535 69.349 10.7005C68.396 9.74748 67.104 9.21118 65.7562 9.20915V9.20915Z" fill="#77B629"/>
<path d="M122.719 176.165C121.944 176.165 121.186 175.935 120.542 175.504C119.897 175.073 119.395 174.461 119.099 173.745C118.803 173.029 118.726 172.241 118.878 171.481C119.029 170.721 119.403 170.023 119.952 169.476C120.5 168.928 121.199 168.556 121.959 168.405C122.719 168.255 123.507 168.334 124.223 168.631C124.938 168.929 125.55 169.432 125.979 170.077C126.408 170.723 126.637 171.481 126.635 172.256C126.633 173.293 126.22 174.287 125.485 175.02C124.751 175.753 123.756 176.165 122.719 176.165ZM122.719 169.107C122.096 169.107 121.487 169.291 120.969 169.637C120.451 169.983 120.048 170.475 119.809 171.051C119.571 171.626 119.509 172.259 119.63 172.87C119.752 173.481 120.052 174.042 120.492 174.482C120.932 174.922 121.493 175.222 122.104 175.344C122.715 175.465 123.348 175.403 123.924 175.165C124.499 174.926 124.991 174.523 125.337 174.005C125.683 173.487 125.867 172.878 125.867 172.256C125.867 171.42 125.536 170.62 124.945 170.029C124.355 169.439 123.554 169.107 122.719 169.107Z" fill="#77B629"/>
<path d="M195.701 18.3561C195.701 18.6362 195.618 18.91 195.462 19.1427C195.306 19.3754 195.084 19.5565 194.825 19.663C194.566 19.7695 194.281 19.7966 194.007 19.7408C193.732 19.685 193.48 19.5489 193.283 19.3497C193.086 19.1506 192.953 18.8974 192.9 18.6222C192.848 18.3471 192.878 18.0625 192.987 17.8046C193.096 17.5466 193.28 17.327 193.514 17.1736C193.749 17.0202 194.023 16.9399 194.303 16.943C194.676 16.947 195.031 17.0977 195.293 17.3622C195.554 17.6268 195.701 17.9839 195.701 18.3561V18.3561Z" fill="#77B629"/>
<path d="M108.457 170.842C108.457 171.122 108.374 171.396 108.218 171.628C108.062 171.861 107.841 172.042 107.582 172.149C107.324 172.255 107.039 172.283 106.765 172.228C106.491 172.173 106.239 172.037 106.042 171.839C105.844 171.64 105.71 171.388 105.657 171.113C105.603 170.839 105.632 170.554 105.74 170.296C105.848 170.038 106.031 169.818 106.264 169.664C106.497 169.509 106.771 169.428 107.051 169.429C107.425 169.431 107.782 169.581 108.045 169.846C108.309 170.111 108.457 170.469 108.457 170.842Z" fill="#77B629"/>
<path d="M252.227 259.631L256.85 277.725L265.521 275.598L260.89 257.496L252.227 259.631Z" fill="#FF8B7B"/>
<path d="M265.728 271.904L255.905 274.008C255.752 274.038 255.616 274.124 255.524 274.249C255.432 274.374 255.389 274.529 255.406 274.684L256.082 281.872C256.103 282.053 256.162 282.227 256.255 282.384C256.348 282.54 256.472 282.676 256.621 282.781C256.769 282.887 256.938 282.96 257.116 282.997C257.294 283.033 257.478 283.032 257.656 282.993C260.728 282.225 261.657 281.811 265.543 280.966C270.09 279.968 271.687 280.236 277.063 279.069C280.289 278.362 280.135 274.983 278.699 274.976C274.877 274.981 271.121 273.98 267.809 272.073C267.163 271.751 266.417 271.691 265.728 271.904Z" fill="#263238"/>
<path opacity="0.2" d="M252.219 259.639L254.608 268.962L263.278 266.835L260.89 257.504L252.219 259.639Z" fill="black"/>
<path d="M236.774 189.927C226.452 159.553 218.273 123.726 218.273 123.726L247.726 121.867C247.726 121.867 252.065 168.377 254.331 189.82C256.681 212.092 264 262.434 264 262.434L250.713 265.13C250.713 265.13 238.249 217.721 236.774 189.927Z" fill="#77B629"/>
<path opacity="0.2" d="M231.859 140.606L224.709 149.446C226.529 156.266 228.664 163.93 230.999 171.772C232.342 161.439 232.63 150.997 231.859 140.606V140.606Z" fill="black"/>
<path d="M263.8 264.3L251.62 266.973C251.377 267.024 251.124 266.986 250.908 266.864C250.692 266.743 250.527 266.547 250.445 266.313L249.101 262.38C249.057 262.247 249.04 262.107 249.053 261.967C249.066 261.827 249.108 261.692 249.175 261.569C249.243 261.447 249.336 261.339 249.447 261.254C249.559 261.169 249.687 261.108 249.823 261.075L263.048 257.964C263.19 257.931 263.338 257.928 263.482 257.958C263.625 257.987 263.76 258.047 263.878 258.134C263.996 258.221 264.093 258.333 264.163 258.461C264.234 258.59 264.275 258.732 264.284 258.878L264.591 263.248C264.61 263.49 264.539 263.73 264.394 263.923C264.248 264.117 264.037 264.251 263.8 264.3Z" fill="#263238"/>
<path opacity="0.1" d="M263.8 264.3L251.62 266.973C251.377 267.024 251.124 266.986 250.908 266.864C250.692 266.743 250.527 266.547 250.445 266.313L249.101 262.38C249.057 262.247 249.04 262.107 249.053 261.967C249.066 261.827 249.108 261.692 249.175 261.569C249.243 261.447 249.336 261.339 249.447 261.254C249.559 261.169 249.687 261.108 249.823 261.075L263.048 257.964C263.19 257.931 263.338 257.928 263.482 257.958C263.625 257.987 263.76 258.047 263.878 258.134C263.996 258.221 264.093 258.333 264.163 258.461C264.234 258.59 264.275 258.732 264.284 258.878L264.591 263.248C264.61 263.49 264.539 263.73 264.394 263.923C264.248 264.117 264.037 264.251 263.8 264.3Z" fill="white"/>
<path d="M203.643 259.001L203.098 277.671L212.029 277.548L212.575 258.878L203.643 259.001Z" fill="#FF8B7B"/>
<path d="M212.244 273.716L202.752 273.854C202.597 273.854 202.447 273.911 202.332 274.014C202.217 274.118 202.145 274.261 202.13 274.415L201.362 281.596C201.348 281.777 201.372 281.959 201.432 282.131C201.492 282.302 201.588 282.46 201.712 282.592C201.836 282.725 201.986 282.831 202.154 282.903C202.321 282.974 202.501 283.01 202.683 283.009C205.839 282.909 206.838 282.648 210.816 282.586C215.47 282.51 216.476 283.093 221.929 283.009C225.231 282.955 225.769 279.614 224.348 279.322C220.609 278.563 217.135 276.837 214.272 274.315C213.698 273.862 212.972 273.648 212.244 273.716V273.716Z" fill="#263238"/>
<path opacity="0.2" d="M203.643 259.009L203.359 268.632L212.298 268.501L212.575 258.878L203.643 259.009Z" fill="black"/>
<path d="M205.87 189.313C208.389 157.356 206.262 140.122 209.971 124.248L236.774 122.589C236.774 122.589 228.457 169.56 223.857 190.803C219.256 212.046 214.326 263.648 214.326 263.648L201.155 263.809C201.155 263.809 199.542 214.242 205.87 189.313Z" fill="#77B629"/>
<path d="M214.272 266.013L201.815 266.205C201.556 266.208 201.305 266.112 201.114 265.936C200.923 265.761 200.805 265.519 200.786 265.26L200.517 261.144C200.509 261.009 200.528 260.874 200.572 260.746C200.617 260.618 200.687 260.501 200.778 260.401C200.869 260.3 200.979 260.219 201.102 260.162C201.224 260.105 201.357 260.074 201.492 260.069L215.063 259.646C215.215 259.642 215.365 259.673 215.503 259.735C215.642 259.796 215.765 259.889 215.863 260.004C215.961 260.12 216.031 260.256 216.07 260.403C216.108 260.55 216.113 260.703 216.084 260.852L215.247 265.191C215.205 265.42 215.084 265.627 214.906 265.776C214.729 265.926 214.504 266.01 214.272 266.013V266.013Z" fill="#263238"/>
<path opacity="0.1" d="M214.272 266.013L201.815 266.205C201.556 266.208 201.305 266.112 201.114 265.936C200.923 265.761 200.805 265.519 200.786 265.26L200.517 261.144C200.509 261.009 200.528 260.874 200.572 260.746C200.617 260.618 200.687 260.501 200.778 260.401C200.869 260.3 200.979 260.219 201.102 260.162C201.224 260.105 201.357 260.074 201.492 260.069L215.063 259.646C215.215 259.642 215.365 259.673 215.503 259.735C215.642 259.796 215.765 259.889 215.863 260.004C215.961 260.12 216.031 260.256 216.07 260.403C216.108 260.55 216.113 260.703 216.084 260.852L215.247 265.191C215.205 265.42 215.084 265.627 214.906 265.776C214.729 265.926 214.504 266.01 214.272 266.013V266.013Z" fill="white"/>
<path d="M247.135 68.4527L248.671 70.9717L250.368 73.5599C251.466 75.2572 252.611 76.9161 253.755 78.5365C254.899 80.157 256.113 81.693 257.334 83.1445C258.419 84.4379 259.633 85.6166 260.959 86.662L257.203 86.1013C258.727 85.7879 260.217 85.3249 261.65 84.7189C263.224 84.047 264.762 83.2934 266.258 82.461C267.794 81.6239 269.33 80.6946 270.866 79.7269C272.402 78.7593 273.938 77.7071 275.389 76.7241L275.512 76.6473C276.038 76.278 276.678 76.1097 277.318 76.1729C277.957 76.2362 278.552 76.5269 278.995 76.9921C279.438 77.4573 279.699 78.066 279.731 78.7075C279.762 79.349 279.563 79.9806 279.168 80.4873C277.962 82.1073 276.651 83.6466 275.244 85.0953C273.846 86.5438 272.367 87.9105 270.812 89.1887C269.206 90.5082 267.504 91.707 265.72 92.7753C263.806 93.9339 261.762 94.862 259.63 95.5401C259.057 95.7164 258.453 95.7726 257.857 95.7052C257.261 95.6378 256.686 95.4483 256.166 95.1484L255.875 94.9794C253.672 93.666 251.653 92.0676 249.869 90.2255C249.034 89.3858 248.233 88.5359 247.465 87.6757C246.697 86.8156 245.967 85.9375 245.276 85.0415C243.863 83.2751 242.565 81.4626 241.329 79.6117C240.714 78.6901 240.108 77.7609 239.532 76.8085C238.956 75.8562 238.403 74.9346 237.819 73.8748C237.263 72.665 237.176 71.292 237.574 70.0215C237.972 68.751 238.828 67.6735 239.975 66.9977C241.122 66.3218 242.479 66.0957 243.783 66.3631C245.088 66.6305 246.246 67.3723 247.035 68.445L247.135 68.4527Z" fill="#FF8B7B"/>
<path d="M235.492 58.1998C245.898 59.3826 253.77 75.4952 253.77 75.4952L243.018 86.9154C243.018 86.9154 238.241 81.2168 233.103 74.0053C227.52 66.1717 227.259 57.2706 235.492 58.1998Z" fill="#006218"/>
<path d="M234.67 60.6344C230.669 59.2136 218.135 61.341 218.135 61.341C221.645 65.8338 223.979 103.051 224.279 124.455C228.08 124.977 237.112 124.908 240.499 124.125C240.077 115.723 237.312 75.572 234.67 60.6344Z" fill="white"/>
<path d="M248.341 71.9086C247.868 68.0378 245.992 64.4748 243.067 61.8956C240.143 59.3163 236.373 57.9001 232.474 57.9157C224.986 57.9782 217.523 58.8016 210.202 60.3733C209.065 60.6194 207.99 61.09 207.038 61.7575C206.086 62.4249 205.277 63.2758 204.658 64.2601C204.039 65.2444 203.623 66.3424 203.434 67.4896C203.245 68.6369 203.288 69.8102 203.558 70.9409C209.073 94.0808 207.621 116.03 209.096 126.237C215.105 127.734 221.282 128.444 227.474 128.349C227.474 128.349 227.251 125.507 226.975 120.907C226.875 119.11 224.563 65.2424 220.961 60.6113C220.961 60.6113 228.687 59.8433 232.689 61.2411C235.661 78.0142 238.441 128.372 238.441 128.38C244.762 127.927 249.193 124.24 249.109 123.188C250.368 102.598 249.754 83.9585 248.341 71.9086Z" fill="#006218"/>
<path d="M216.845 41.6725C218.02 46.1961 219.395 54.1525 217.237 58.4994C217.016 58.9232 216.949 59.4104 217.047 59.8781C217.145 60.3459 217.402 60.7651 217.774 61.0645C220.547 63.2073 224.11 65.1964 229.294 64.9045C234.74 64.5743 234.333 61.318 232.95 59.1445C232.809 58.9144 232.623 58.7153 232.402 58.5595C232.182 58.4037 231.932 58.2944 231.668 58.2383C226.522 57.1785 226.461 53.085 227.198 49.1529L216.845 41.6725Z" fill="#FF8B7B"/>
<path opacity="0.2" d="M221.061 44.7139L227.205 49.1222C227.012 50.0733 226.904 51.0397 226.883 52.0099C224.663 51.91 221.507 49.7903 221.123 47.5094C220.934 46.5888 220.913 45.6418 221.061 44.7139V44.7139Z" fill="black"/>
<path d="M233.833 35.9278C235.223 35.0062 235.96 28.6549 233.833 26.5966C236.029 24.6613 234.762 20.3528 231.752 19.6232C228.741 18.8936 226.529 20.875 222.651 18.3867C221.983 19.293 222.367 20.4526 223.526 21.1285C225.201 22.1038 233.833 35.9278 233.833 35.9278Z" fill="#263238"/>
<path d="M214.956 33.9925C216 40.9045 216.254 45.044 220.094 48.2849C225.877 53.1617 234.21 49.1297 235.262 42.0027C236.214 35.5899 234.348 25.3217 227.274 23.202C225.707 22.7331 224.046 22.6697 222.447 23.0178C220.848 23.3659 219.363 24.1141 218.133 25.1922C216.902 26.2704 215.965 27.6434 215.409 29.1825C214.853 30.7217 214.697 32.3766 214.956 33.9925V33.9925Z" fill="#FF8B7B"/>
<path d="M217.075 39.86C218.926 38.9922 217.912 31.5733 217.459 30.1141C222.32 30.7899 235.991 27.1419 231.49 21.8274C228.203 17.9874 218.611 22.3803 214.525 19.0703C213.312 20.3682 215.001 21.9042 215.001 21.9042C215.001 21.9042 208.512 23.4402 211.161 28.0482C205.893 27.8101 209.502 40.628 217.075 39.86Z" fill="#263238"/>
<path d="M212.383 25.1144C209.825 27.1189 208.819 26.2203 207.337 24.8687C206.984 28.8085 210.117 29.3154 211.569 28.9083C212.521 27.6795 212.383 25.1144 212.383 25.1144Z" fill="#263238"/>
<path d="M212.682 40.367C213.537 41.8104 214.911 42.8734 216.522 43.3391C218.557 43.869 219.325 41.8031 218.55 39.7679C217.851 37.9017 215.946 35.3827 214.003 35.7743C212.06 36.166 211.576 38.5391 212.682 40.367Z" fill="#FF8B7B"/>
<path d="M224.494 34.6069C224.548 35.1752 224.886 35.6053 225.262 35.5669C225.639 35.5285 225.892 35.0447 225.838 34.4764C225.785 33.908 225.447 33.478 225.07 33.5164C224.694 33.5548 224.448 34.0386 224.494 34.6069Z" fill="#263238"/>
<path d="M230.891 33.5087C230.945 34.077 231.283 34.5071 231.659 34.4764C232.036 34.4457 232.289 33.9465 232.235 33.3782C232.182 32.8098 231.844 32.3798 231.467 32.4182C231.091 32.4566 230.845 32.9404 230.891 33.5087Z" fill="#263238"/>
<path d="M228.61 34.1768C228.61 34.1768 230.192 37.3333 231.751 38.7848C230.83 39.8216 229.079 39.5528 229.079 39.5528L228.61 34.1768Z" fill="#FF5652"/>
<path d="M227.328 42.3176C226.691 42.371 226.051 42.2913 225.446 42.0837C224.842 41.8761 224.288 41.5452 223.818 41.1119C223.798 41.0977 223.78 41.0791 223.768 41.0575C223.755 41.0358 223.748 41.0117 223.746 40.9867C223.744 40.9618 223.747 40.9367 223.756 40.9133C223.765 40.8899 223.779 40.8688 223.797 40.8514C223.815 40.834 223.836 40.8208 223.86 40.8128C223.884 40.8047 223.909 40.8021 223.934 40.805C223.958 40.8078 223.982 40.8162 224.004 40.8294C224.025 40.8427 224.043 40.8604 224.056 40.8815C224.588 41.3486 225.223 41.6838 225.909 41.8599C226.595 42.0361 227.312 42.0482 228.004 41.8952C228.048 41.8862 228.093 41.8948 228.131 41.9193C228.168 41.9437 228.194 41.9821 228.203 42.0258C228.21 42.0705 228.2 42.116 228.174 42.1532C228.148 42.1903 228.109 42.2162 228.065 42.2255C227.821 42.2704 227.575 42.3011 227.328 42.3176V42.3176Z" fill="#263238"/>
<path d="M222.098 33.67C222.043 33.6854 221.984 33.6854 221.929 33.67C221.848 33.633 221.784 33.5659 221.751 33.4828C221.718 33.3998 221.718 33.3072 221.752 33.2245C221.957 32.73 222.276 32.2911 222.683 31.944C223.09 31.5968 223.574 31.3513 224.095 31.2277C224.138 31.2201 224.183 31.2212 224.226 31.231C224.269 31.2408 224.309 31.2592 224.345 31.285C224.381 31.3107 224.411 31.3434 224.434 31.3811C224.457 31.4187 224.472 31.4606 224.479 31.5042C224.492 31.5926 224.471 31.6828 224.419 31.7558C224.368 31.8288 224.29 31.879 224.202 31.8959V31.8959C223.792 31.9979 223.411 32.1959 223.092 32.4736C222.773 32.7513 222.524 33.1008 222.367 33.4933C222.341 33.5433 222.302 33.5857 222.255 33.6166C222.208 33.6475 222.154 33.6659 222.098 33.67V33.67Z" fill="#263238"/>
<path d="M233.326 30.4597C233.273 30.4727 233.217 30.4732 233.164 30.4612C233.111 30.4492 233.061 30.425 233.018 30.3905C232.713 30.1091 232.344 29.9044 231.943 29.7936C231.543 29.6828 231.122 29.6689 230.714 29.7531C230.629 29.7769 230.537 29.766 230.46 29.7229C230.382 29.6798 230.325 29.6079 230.3 29.5227C230.278 29.4372 230.29 29.3467 230.333 29.2696C230.375 29.1925 230.446 29.1347 230.53 29.108C231.047 28.9904 231.585 28.9988 232.098 29.1324C232.612 29.2661 233.085 29.5211 233.479 29.876C233.54 29.9402 233.574 30.0254 233.574 30.1141C233.574 30.2027 233.54 30.2879 233.479 30.3521C233.437 30.3997 233.385 30.4365 233.326 30.4597V30.4597Z" fill="#263238"/>
<path d="M209.311 60.6191C197.707 63.5452 194.481 78.3829 194.481 78.3829L208.896 88.7202C208.896 88.7202 212.468 84.98 213.543 76.2018C214.057 72.0239 211.661 60.5039 209.311 60.6191Z" fill="#006218"/>
<path d="M207.521 116.852L214.226 119.356L209.095 126.268C209.095 126.268 203.297 123.265 204.388 119.924L207.521 116.852Z" fill="#FF8B7B"/>
<path d="M217.344 126.091L215.14 128.203C214.715 128.609 214.16 128.851 213.574 128.887C212.987 128.922 212.407 128.748 211.937 128.395L209.073 126.237L214.203 119.325L217.39 122.52C217.628 122.754 217.816 123.033 217.943 123.342C218.07 123.651 218.134 123.982 218.129 124.315C218.125 124.649 218.053 124.978 217.918 125.283C217.783 125.589 217.588 125.863 217.344 126.091Z" fill="#FF8B7B"/>
<path d="M283.722 79.1816L282.9 75.4337C282.814 75.0471 282.591 74.7048 282.272 74.4704C281.953 74.2359 281.559 74.1252 281.165 74.1589V74.1589C279.974 74.2594 278.822 74.6269 277.793 75.2341L273.185 77.9681L273.592 82.315C275.504 85.2641 281.479 82.6222 281.479 82.6222L281.971 82.4302C282.603 82.1871 283.127 81.7259 283.448 81.13C283.769 80.5341 283.866 79.843 283.722 79.1816V79.1816Z" fill="#FF8B7B"/>
<path d="M272.594 79.6425C272.31 78.1756 272.947 76.9929 272.801 75.6105C272.678 74.4047 273.001 73.053 272.617 71.4095C273.078 70.6415 274.744 71.2713 274.767 73.3065C275.282 75.3954 277.578 75.0959 278.492 74.8425C278.492 74.8655 275.389 80.2646 272.594 79.6425Z" fill="#FF8B7B"/>
</svg>
